<svg width="348" height="236" viewBox="0 0 348 236" fill="none" xmlns="http://www.w3.org/2000/svg">
<mask id="mask0_2224_1111" style="mask-type:alpha" maskUnits="userSpaceOnUse" x="0" y="0" width="319" height="236">
<rect width="319" height="236" fill="url(#paint0_linear_2224_1111)"/>
</mask>
<g mask="url(#mask0_2224_1111)">
<g clip-path="url(#clip0_2224_1111)">
<path d="M0 3.64522C0 1.63201 1.63202 0 3.64522 0H315.355C317.368 0 319 1.63202 319 3.64522V236H0V3.64522Z" fill="#314872"/>
<path d="M5 32H314V243H5V32Z" fill="#0F1828"/>
<mask id="path-4-inside-1_2224_1111" fill="white">
<path d="M5 5H314V32H5V5Z"/>
</mask>
<path d="M5 5H314V32H5V5Z" fill="#1F2D47"/>
<path d="M314 31.3696H5V32.6304H314V31.3696Z" fill="#314872" mask="url(#path-4-inside-1_2224_1111)"/>
<path d="M18.9759 16.4553L21.4281 15.0586C21.5182 15.0041 21.453 14.8663 21.3537 14.9013L18.611 16.0882L17.5141 14.9935C17.4186 14.898 17.4762 14.7346 17.6103 14.7198L22.3156 14.2029C22.5381 14.1785 22.6951 14.4159 22.5856 14.6111L20.768 17.8486C20.6961 17.9768 20.5215 18.0008 20.4176 17.8968L19.4657 16.945C19.4657 16.945 18.2638 17.6149 17.8328 17.8865C17.4959 18.0988 17.0719 18.3881 16.7952 18.5782C15.6053 19.3967 15.0005 19.9105 15.0005 21.2451V23.1897C15.0005 23.5968 15.5011 23.7911 15.7757 23.4908L18.0485 21.0056C18.3508 20.675 18.7783 20.4867 19.2264 20.4867H20.4744C21.4628 20.4867 22.3276 20.3028 23.0688 19.9354C23.8102 19.5679 24.3866 19.0444 24.7985 18.3641C25.2103 17.6841 25.4161 16.8798 25.4161 15.9505C25.4161 15.0212 25.2153 14.225 24.8142 13.5366C24.413 12.8482 23.8513 12.3139 23.1291 11.9339C22.4067 11.5533 21.5639 11.3633 20.601 11.3633H18.6707C16.6437 11.3633 15.0005 13.0065 15.0005 15.0334V16.7435C15.0005 17.289 15.3 17.7535 15.8096 17.7829C16.0717 17.798 16.3202 17.7572 16.6051 17.6446C17.2219 17.4009 19.078 16.3994 19.078 16.3994" fill="url(#paint1_linear_2224_1111)"/>
<path opacity="0.5" d="M15 21.8776V23.1896C15 23.5967 15.5006 23.791 15.7752 23.4907L18.048 21.0056C18.2773 20.7547 18.5788 20.586 18.9066 20.5191C18.8643 20.5182 18.8218 20.5176 18.7792 20.5176C17.3431 20.5176 16.0262 21.0281 15.0002 21.8777L15 21.8776Z" fill="url(#paint2_linear_2224_1111)"/>
<path opacity="0.5" d="M24.8137 13.5365C24.4125 12.8481 23.8508 12.3138 23.1286 11.9338C23.1196 11.9289 23.1103 11.9246 23.1013 11.9199C23.1044 11.9985 23.1064 12.0775 23.1064 12.1569C23.1064 12.9955 22.932 13.7931 22.6181 14.516C22.6133 14.5479 22.6027 14.5801 22.5853 14.6113L22.5305 14.7088L22.149 15.3884L20.7675 17.8489C20.6956 17.9772 20.521 18.0011 20.4171 17.8972L19.9297 17.4098L19.4654 16.9455C19.4654 16.9455 18.2635 17.6154 17.8325 17.8871C17.74 17.9453 17.6409 18.0094 17.5402 18.0756C17.274 18.2507 16.9956 18.4409 16.7949 18.5789C15.6048 19.3967 15 19.9105 15 21.2452V21.8775C16.0261 21.0281 17.3429 20.5174 18.779 20.5174C18.8217 20.5174 18.864 20.5182 18.9065 20.519C19.0107 20.4976 19.1176 20.4864 19.2258 20.4864H20.4737C21.4621 20.4864 22.327 20.3025 23.0681 19.9351C23.8096 19.5676 24.3859 19.0441 24.7978 18.3638C25.2097 17.6838 25.4154 16.8795 25.4154 15.9502C25.4154 15.021 25.2147 14.2247 24.8135 13.5363L24.8137 13.5365Z" fill="url(#paint3_linear_2224_1111)"/>
<path d="M16.6051 17.6443C17.1474 17.43 18.6477 16.63 19.0022 16.4399L20.9986 15.3029L21.4282 15.0583C21.5183 15.0038 21.4531 14.8659 21.3539 14.901L20.7248 15.1733L18.6112 16.0881L17.5143 14.9934C17.4465 14.9255 17.456 14.8233 17.5153 14.7646C16.5259 15.4543 15.7566 16.4377 15.334 17.5886C15.4606 17.7011 15.6208 17.7719 15.8097 17.7828C16.0717 17.7979 16.3202 17.7571 16.6051 17.6444V17.6443Z" fill="url(#paint4_radial_2224_1111)"/>
<path opacity="0.5" d="M23.1017 11.9199C22.3853 11.5489 21.5519 11.3633 20.601 11.3633H18.6707C16.6437 11.3633 15.0005 13.0065 15.0005 15.0334V16.7435C15.0005 17.0867 15.1191 17.3978 15.3339 17.5887C15.7566 16.4379 16.5259 15.4544 17.5152 14.7648C17.5281 14.752 17.5434 14.7413 17.5607 14.7335C17.5757 14.7267 17.5924 14.7219 17.6106 14.7198L18.0088 14.6761L22.3159 14.2029C22.5031 14.1824 22.6438 14.347 22.6187 14.516C22.6895 14.3531 22.753 14.1864 22.8092 14.0163C23.0023 13.4314 23.107 12.8065 23.107 12.1569C23.107 12.0775 23.105 11.9985 23.1019 11.9199H23.1017Z" fill="url(#paint5_radial_2224_1111)"/>
<path d="M32.4492 14.085C33.3211 14.085 33.9905 14.2397 34.4574 14.5491C34.9243 14.8529 35.1577 15.3535 35.1577 16.0511C35.1577 16.7542 34.9215 17.2633 34.4489 17.5783C33.9764 17.8877 33.3014 18.0424 32.4238 18.0424H32.0104V20H30.6941V14.2369C30.981 14.1807 31.2847 14.1413 31.6054 14.1188C31.926 14.0963 32.2073 14.085 32.4492 14.085ZM32.5335 15.2073C32.4379 15.2073 32.3423 15.2101 32.2466 15.2157C32.1566 15.2213 32.0779 15.227 32.0104 15.2326V16.9202H32.4238C32.8795 16.9202 33.2226 16.8583 33.4533 16.7345C33.6839 16.6108 33.7992 16.3801 33.7992 16.0426C33.7992 15.8795 33.7683 15.7445 33.7064 15.6376C33.6502 15.5307 33.5658 15.4463 33.4533 15.3845C33.3464 15.317 33.2142 15.272 33.0567 15.2495C32.8992 15.2213 32.7248 15.2073 32.5335 15.2073ZM38.7148 16.6755C38.6022 16.6473 38.4701 16.6192 38.3182 16.5911C38.1663 16.5573 38.0032 16.5405 37.8288 16.5405C37.75 16.5405 37.6544 16.5489 37.5419 16.5658C37.435 16.577 37.3534 16.5911 37.2972 16.608V20H36.0399V15.7979C36.265 15.7192 36.5293 15.646 36.8331 15.5785C37.1425 15.5054 37.4856 15.4689 37.8625 15.4689C37.93 15.4689 38.0116 15.4745 38.1072 15.4857C38.2029 15.4914 38.2985 15.5026 38.3941 15.5195C38.4897 15.5307 38.5854 15.5476 38.681 15.5701C38.7766 15.587 38.8582 15.6095 38.9257 15.6376L38.7148 16.6755ZM41.2133 19.1225C41.337 19.1225 41.4552 19.1196 41.5677 19.114C41.6802 19.1084 41.7702 19.1 41.8377 19.0887V18.1352C41.7871 18.124 41.7111 18.1127 41.6099 18.1015C41.5086 18.0902 41.4158 18.0846 41.3314 18.0846C41.2133 18.0846 41.1008 18.093 40.9939 18.1099C40.8927 18.1212 40.8026 18.1465 40.7239 18.1859C40.6451 18.2252 40.5833 18.2787 40.5383 18.3462C40.4933 18.4137 40.4708 18.4981 40.4708 18.5993C40.4708 18.7962 40.5354 18.934 40.6648 19.0128C40.7998 19.0859 40.9827 19.1225 41.2133 19.1225ZM41.112 15.4435C41.4833 15.4435 41.7927 15.4857 42.0402 15.5701C42.2877 15.6545 42.4846 15.7754 42.6309 15.9329C42.7827 16.0904 42.8896 16.2817 42.9515 16.5067C43.0134 16.7317 43.0443 16.982 43.0443 17.2577V19.8734C42.8643 19.9128 42.614 19.9578 42.2933 20.0084C41.9727 20.0647 41.5846 20.0928 41.1289 20.0928C40.842 20.0928 40.5805 20.0675 40.3442 20.0169C40.1136 19.9662 39.9139 19.8847 39.7451 19.7722C39.5763 19.654 39.447 19.5022 39.357 19.3165C39.267 19.1309 39.222 18.9031 39.222 18.6331C39.222 18.3743 39.2726 18.1549 39.3738 17.9749C39.4807 17.7949 39.6213 17.6515 39.7957 17.5446C39.9701 17.4377 40.1698 17.3618 40.3948 17.3167C40.6198 17.2661 40.8533 17.2408 41.0952 17.2408C41.2583 17.2408 41.4017 17.2492 41.5255 17.2661C41.6549 17.2774 41.7589 17.2942 41.8377 17.3167V17.1986C41.8377 16.9849 41.773 16.8133 41.6436 16.6839C41.5142 16.5545 41.2892 16.4898 40.9686 16.4898C40.7548 16.4898 40.5439 16.5067 40.3358 16.5405C40.1276 16.5686 39.9476 16.6108 39.7957 16.667L39.6354 15.6545C39.7085 15.632 39.7985 15.6095 39.9054 15.587C40.0179 15.5589 40.1389 15.5364 40.2682 15.5195C40.3976 15.497 40.5326 15.4801 40.6733 15.4689C40.8195 15.452 40.9658 15.4435 41.112 15.4435ZM44.139 14.4563L45.3962 14.2538V15.5617H46.9066V16.608H45.3962V18.169C45.3962 18.4334 45.4413 18.6443 45.5313 18.8018C45.6269 18.9593 45.8153 19.0381 46.0966 19.0381C46.2316 19.0381 46.3694 19.0268 46.5101 19.0043C46.6563 18.9762 46.7885 18.9396 46.9066 18.8946L47.0838 19.8734C46.9319 19.9353 46.7632 19.9887 46.5776 20.0338C46.3919 20.0788 46.1641 20.1013 45.8941 20.1013C45.5509 20.1013 45.2669 20.0563 45.0419 19.9662C44.8168 19.8706 44.6368 19.7412 44.5018 19.5781C44.3668 19.4093 44.2712 19.2068 44.2149 18.9706C44.1643 18.7343 44.139 18.4727 44.139 18.1859V14.4563ZM49.1877 20H47.9305V15.5617H49.1877V20ZM49.3058 14.2791C49.3058 14.5097 49.2299 14.6926 49.078 14.8276C48.9317 14.957 48.7574 15.0216 48.5549 15.0216C48.3523 15.0216 48.1751 14.957 48.0233 14.8276C47.877 14.6926 47.8039 14.5097 47.8039 14.2791C47.8039 14.0485 47.877 13.8685 48.0233 13.7391C48.1751 13.6041 48.3523 13.5366 48.5549 13.5366C48.7574 13.5366 48.9317 13.6041 49.078 13.7391C49.2299 13.8685 49.3058 14.0485 49.3058 14.2791ZM52.8081 17.6458C52.8081 17.2408 52.7546 16.9539 52.6478 16.7852C52.5465 16.6164 52.3693 16.532 52.1162 16.532C52.0374 16.532 51.9559 16.5377 51.8715 16.5489C51.7871 16.5545 51.7055 16.563 51.6268 16.5742V20H50.3695V15.7135C50.4764 15.6854 50.6002 15.6573 50.7408 15.6292C50.8871 15.5954 51.0389 15.5673 51.1964 15.5448C51.3596 15.5167 51.5255 15.497 51.6943 15.4857C51.863 15.4689 52.029 15.4604 52.1921 15.4604C52.5128 15.4604 52.7715 15.5026 52.9684 15.587C53.1709 15.6657 53.3369 15.7614 53.4662 15.8739C53.6462 15.7445 53.8516 15.6432 54.0822 15.5701C54.3185 15.497 54.535 15.4604 54.7319 15.4604C55.0863 15.4604 55.376 15.511 55.601 15.6123C55.8317 15.7079 56.0145 15.8457 56.1495 16.0258C56.2845 16.2058 56.3773 16.4195 56.4279 16.667C56.4786 16.9145 56.5039 17.1902 56.5039 17.4939V20H55.2466V17.6458C55.2466 17.2408 55.1932 16.9539 55.0863 16.7852C54.9851 16.6164 54.8079 16.532 54.5547 16.532C54.4872 16.532 54.3916 16.5489 54.2678 16.5827C54.1497 16.6164 54.0513 16.6586 53.9725 16.7092C54.0119 16.8386 54.0372 16.9764 54.0485 17.1227C54.0597 17.2633 54.0653 17.4152 54.0653 17.5783V20H52.8081V17.6458ZM58.9028 20H57.6456V15.5617H58.9028V20ZM59.0209 14.2791C59.0209 14.5097 58.945 14.6926 58.7931 14.8276C58.6469 14.957 58.4725 15.0216 58.27 15.0216C58.0675 15.0216 57.8903 14.957 57.7384 14.8276C57.5921 14.6926 57.519 14.5097 57.519 14.2791C57.519 14.0485 57.5921 13.8685 57.7384 13.7391C57.8903 13.6041 58.0675 13.5366 58.27 13.5366C58.4725 13.5366 58.6469 13.6041 58.7931 13.7391C58.945 13.8685 59.0209 14.0485 59.0209 14.2791Z" fill="white"/>
<circle cx="298.5" cy="17.5" r="7.5" fill="#496CAB"/>
</g>
</g>
<path d="M22.913 58V50.377H24.288V55.437C24.5373 55.041 24.8197 54.6157 25.135 54.161C25.4577 53.699 25.7877 53.2407 26.125 52.786C26.4697 52.3313 26.8107 51.895 27.148 51.477C27.4853 51.0517 27.8007 50.685 28.094 50.377H29.227V58H27.863V52.544C27.555 52.9107 27.2287 53.325 26.884 53.787C26.5467 54.2417 26.213 54.7147 25.883 55.206C25.553 55.69 25.234 56.174 24.926 56.658C24.618 57.1347 24.3393 57.582 24.09 58H22.913ZM30.7366 52.423C30.8319 52.3863 30.9492 52.3497 31.0886 52.313C31.2279 52.2763 31.3782 52.2433 31.5396 52.214C31.7009 52.1847 31.8696 52.1627 32.0456 52.148C32.2289 52.126 32.4122 52.115 32.5956 52.115C32.9109 52.115 33.2116 52.1443 33.4976 52.203C33.7836 52.2617 34.0329 52.357 34.2456 52.489C34.4582 52.621 34.6269 52.7897 34.7516 52.995C34.8836 53.2003 34.9496 53.446 34.9496 53.732C34.9496 54.04 34.8652 54.3003 34.6966 54.513C34.5279 54.7257 34.3336 54.8833 34.1136 54.986C34.4436 55.1107 34.6966 55.294 34.8726 55.536C35.0486 55.778 35.1366 56.086 35.1366 56.46C35.1366 56.7607 35.0706 57.0173 34.9386 57.23C34.8139 57.4427 34.6379 57.6187 34.4106 57.758C34.1906 57.89 33.9302 57.9853 33.6296 58.044C33.3289 58.11 33.0026 58.143 32.6506 58.143C32.2252 58.143 31.8292 58.1063 31.4626 58.033C31.0959 57.967 30.8062 57.8863 30.5936 57.791L30.8246 56.713C30.9639 56.7717 31.1876 56.8413 31.4956 56.922C31.8036 56.9953 32.1666 57.032 32.5846 57.032C33.3912 57.032 33.7946 56.7973 33.7946 56.328C33.7946 56.1593 33.7579 56.0237 33.6846 55.921C33.6112 55.8183 33.5196 55.7413 33.4096 55.69C33.2996 55.6313 33.1749 55.5947 33.0356 55.58C32.8962 55.558 32.7606 55.547 32.6286 55.547H31.5286V54.557H32.6176C32.8889 54.557 33.1199 54.5093 33.3106 54.414C33.5086 54.3113 33.6076 54.1353 33.6076 53.886C33.6076 53.6807 33.5122 53.5193 33.3216 53.402C33.1382 53.2773 32.8779 53.215 32.5406 53.215C32.3939 53.215 32.2436 53.226 32.0896 53.248C31.9356 53.2627 31.7852 53.2847 31.6386 53.314C31.4992 53.3433 31.3709 53.3763 31.2536 53.413C31.1362 53.4423 31.0446 53.4717 30.9786 53.501L30.7366 52.423ZM41.5276 52.247V58H40.2076C40.2076 57.582 40.2076 57.1677 40.2076 56.757C40.2149 56.3463 40.2186 55.965 40.2186 55.613C40.2259 55.261 40.2296 54.9567 40.2296 54.7C40.2369 54.436 40.2406 54.2417 40.2406 54.117C40.0206 54.403 39.7932 54.7183 39.5586 55.063C39.3239 55.4077 39.0892 55.7523 38.8546 56.097C38.6272 56.4417 38.4109 56.779 38.2056 57.109C38.0002 57.439 37.8206 57.736 37.6666 58H36.4896V52.247H37.7986C37.7986 52.6723 37.7949 53.0793 37.7876 53.468C37.7876 53.8493 37.7876 54.1977 37.7876 54.513C37.7876 54.8283 37.7839 55.1033 37.7766 55.338C37.7766 55.5727 37.7766 55.7523 37.7766 55.877C37.9819 55.5617 38.1946 55.239 38.4146 54.909C38.6346 54.5717 38.8546 54.2453 39.0746 53.93C39.3019 53.6073 39.5256 53.303 39.7456 53.017C39.9656 52.731 40.1782 52.4743 40.3836 52.247H41.5276ZM42.9059 55.129C42.9059 54.7037 42.9719 54.3077 43.1039 53.941C43.2359 53.567 43.4229 53.2443 43.6649 52.973C43.9143 52.7017 44.2149 52.489 44.5669 52.335C44.9189 52.181 45.3149 52.104 45.7549 52.104C46.2976 52.104 46.8109 52.203 47.2949 52.401L47.0089 53.49C46.8549 53.424 46.6789 53.369 46.4809 53.325C46.2903 53.281 46.0849 53.259 45.8649 53.259C45.3443 53.259 44.9483 53.424 44.6769 53.754C44.4056 54.0767 44.2699 54.535 44.2699 55.129C44.2699 55.701 44.3983 56.1557 44.6549 56.493C44.9116 56.823 45.3443 56.988 45.9529 56.988C46.1803 56.988 46.4039 56.966 46.6239 56.922C46.8439 56.878 47.0346 56.823 47.1959 56.757L47.3829 57.857C47.2363 57.9303 47.0126 57.9963 46.7119 58.055C46.4186 58.1137 46.1143 58.143 45.7989 58.143C45.3076 58.143 44.8786 58.0697 44.5119 57.923C44.1526 57.769 43.8519 57.56 43.6099 57.296C43.3753 57.0247 43.1993 56.7057 43.0819 56.339C42.9646 55.965 42.9059 55.5617 42.9059 55.129ZM49.7444 54.557C49.9131 54.3883 50.0964 54.2013 50.2944 53.996C50.4924 53.7833 50.6867 53.5707 50.8774 53.358C51.0754 53.1453 51.2624 52.9437 51.4384 52.753C51.6144 52.555 51.7611 52.3863 51.8784 52.247H53.4404C53.2791 52.4377 53.0921 52.6467 52.8794 52.874C52.6741 53.1013 52.4577 53.336 52.2304 53.578C52.0104 53.8127 51.7904 54.0437 51.5704 54.271C51.3577 54.491 51.1634 54.689 50.9874 54.865C51.2147 55.0557 51.4494 55.2793 51.6914 55.536C51.9407 55.7853 52.1827 56.053 52.4174 56.339C52.6594 56.6177 52.8831 56.9037 53.0884 57.197C53.2937 57.483 53.4661 57.7507 53.6054 58H52.0654C51.9261 57.78 51.7611 57.549 51.5704 57.307C51.3871 57.065 51.1927 56.8303 50.9874 56.603C50.7821 56.3683 50.5731 56.1483 50.3604 55.943C50.1477 55.7377 49.9424 55.5617 49.7444 55.415V58H48.4134V52.247H49.7444V54.557ZM59.2657 52.247C58.6717 54.4323 57.9823 56.4123 57.1977 58.187C57.051 58.517 56.9007 58.7993 56.7467 59.034C56.5927 59.2687 56.4203 59.463 56.2297 59.617C56.039 59.771 55.8263 59.881 55.5917 59.947C55.357 60.0203 55.0857 60.057 54.7777 60.057C54.5723 60.057 54.367 60.035 54.1617 59.991C53.9637 59.947 53.8133 59.8993 53.7107 59.848L53.9527 58.781C54.2167 58.8837 54.477 58.935 54.7337 58.935C55.0783 58.935 55.346 58.8507 55.5367 58.682C55.7347 58.5207 55.907 58.2677 56.0537 57.923C55.6357 57.1163 55.2323 56.2363 54.8437 55.283C54.4623 54.3297 54.1213 53.3177 53.8207 52.247H55.2397C55.313 52.555 55.401 52.8887 55.5037 53.248C55.6137 53.6073 55.731 53.974 55.8557 54.348C55.9803 54.7147 56.1123 55.0813 56.2517 55.448C56.391 55.8147 56.5303 56.1557 56.6697 56.471C56.9043 55.8183 57.1243 55.1253 57.3297 54.392C57.535 53.6513 57.722 52.9363 57.8907 52.247H59.2657ZM59.8464 55.151C59.8464 54.645 59.9197 54.2013 60.0664 53.82C60.2204 53.4387 60.422 53.1233 60.6714 52.874C60.9207 52.6173 61.2067 52.4267 61.5294 52.302C61.852 52.17 62.182 52.104 62.5194 52.104C63.3114 52.104 63.9274 52.3497 64.3674 52.841C64.8147 53.3323 65.0384 54.0657 65.0384 55.041C65.0384 55.1143 65.0347 55.1987 65.0274 55.294C65.0274 55.382 65.0237 55.4627 65.0164 55.536H61.2214C61.258 55.998 61.4194 56.3573 61.7054 56.614C61.9987 56.8633 62.4204 56.988 62.9704 56.988C63.293 56.988 63.5864 56.9587 63.8504 56.9C64.1217 56.8413 64.3344 56.779 64.4884 56.713L64.6644 57.802C64.591 57.8387 64.4884 57.879 64.3564 57.923C64.2317 57.9597 64.085 57.9927 63.9164 58.022C63.755 58.0587 63.579 58.088 63.3884 58.11C63.1977 58.132 63.0034 58.143 62.8054 58.143C62.2994 58.143 61.8594 58.0697 61.4854 57.923C61.1114 57.769 60.8034 57.56 60.5614 57.296C60.3194 57.0247 60.1397 56.7093 60.0224 56.35C59.905 55.9833 59.8464 55.5837 59.8464 55.151ZM63.7074 54.557C63.7074 54.3737 63.6817 54.2013 63.6304 54.04C63.579 53.8713 63.502 53.7283 63.3994 53.611C63.304 53.4863 63.183 53.391 63.0364 53.325C62.897 53.2517 62.7284 53.215 62.5304 53.215C62.325 53.215 62.1454 53.2553 61.9914 53.336C61.8374 53.4093 61.7054 53.5083 61.5954 53.633C61.4927 53.7577 61.412 53.9007 61.3534 54.062C61.2947 54.2233 61.2544 54.3883 61.2324 54.557H63.7074ZM67.7915 54.227C67.7695 54.535 67.7475 54.8577 67.7255 55.195C67.7035 55.525 67.6852 55.855 67.6705 56.185C67.6559 56.515 67.6412 56.834 67.6265 57.142C67.6119 57.45 67.6009 57.736 67.5935 58H66.3065C66.3212 57.5747 66.3432 57.1163 66.3725 56.625C66.4019 56.1263 66.4349 55.624 66.4715 55.118C66.5155 54.6047 66.5595 54.1023 66.6035 53.611C66.6475 53.1197 66.6952 52.665 66.7465 52.247H67.9015C68.1802 52.6943 68.4625 53.2223 68.7485 53.831C69.0345 54.4323 69.3535 55.118 69.7055 55.888C70.0722 55.1033 70.4059 54.3957 70.7065 53.765C71.0072 53.127 71.2749 52.621 71.5095 52.247H72.6755C72.7269 52.665 72.7745 53.1197 72.8185 53.611C72.8699 54.1023 72.9139 54.6047 72.9505 55.118C72.9872 55.624 73.0202 56.1263 73.0495 56.625C73.0789 57.1163 73.1009 57.5747 73.1155 58H71.7955C71.7809 57.3987 71.7552 56.779 71.7185 56.141C71.6892 55.4957 71.6525 54.8577 71.6085 54.227C71.4985 54.447 71.3775 54.6927 71.2455 54.964C71.1209 55.2353 70.9962 55.5103 70.8715 55.789C70.7469 56.0677 70.6259 56.339 70.5085 56.603C70.3912 56.8597 70.2885 57.087 70.2005 57.285H69.2105C69.1225 57.087 69.0162 56.856 68.8915 56.592C68.7742 56.328 68.6532 56.0567 68.5285 55.778C68.4039 55.4993 68.2755 55.228 68.1435 54.964C68.0189 54.6927 67.9015 54.447 67.7915 54.227ZM79.7053 52.247V58H78.3853C78.3853 57.582 78.3853 57.1677 78.3853 56.757C78.3926 56.3463 78.3963 55.965 78.3963 55.613C78.4036 55.261 78.4073 54.9567 78.4073 54.7C78.4146 54.436 78.4183 54.2417 78.4183 54.117C78.1983 54.403 77.971 54.7183 77.7363 55.063C77.5016 55.4077 77.267 55.7523 77.0323 56.097C76.805 56.4417 76.5886 56.779 76.3833 57.109C76.178 57.439 75.9983 57.736 75.8443 58H74.6673V52.247H75.9763C75.9763 52.6723 75.9726 53.0793 75.9653 53.468C75.9653 53.8493 75.9653 54.1977 75.9653 54.513C75.9653 54.8283 75.9616 55.1033 75.9543 55.338C75.9543 55.5727 75.9543 55.7523 75.9543 55.877C76.1596 55.5617 76.3723 55.239 76.5923 54.909C76.8123 54.5717 77.0323 54.2453 77.2523 53.93C77.4796 53.6073 77.7033 53.303 77.9233 53.017C78.1433 52.731 78.356 52.4743 78.5613 52.247H79.7053ZM83.266 56.911H83.926C84.1534 56.6103 84.3294 56.2767 84.454 55.91C84.586 55.536 84.6814 55.1473 84.74 54.744C84.7987 54.3333 84.8354 53.9153 84.85 53.49C84.8647 53.0647 84.8757 52.6503 84.883 52.247H89.008V56.911H89.888V59.628H88.7V58H84.443V59.628H83.266V56.911ZM87.677 56.911V53.347H86.115C86.1004 53.6477 86.082 53.9557 86.06 54.271C86.038 54.579 85.9977 54.887 85.939 55.195C85.8804 55.4957 85.7997 55.7927 85.697 56.086C85.6017 56.372 85.4734 56.647 85.312 56.911H87.677ZM96.134 55.118C96.134 55.5727 96.068 55.987 95.936 56.361C95.804 56.735 95.617 57.054 95.375 57.318C95.133 57.582 94.8397 57.7873 94.495 57.934C94.1577 58.0807 93.7837 58.154 93.373 58.154C92.9623 58.154 92.5883 58.0807 92.251 57.934C91.9137 57.7873 91.624 57.582 91.382 57.318C91.14 57.054 90.9493 56.735 90.81 56.361C90.678 55.987 90.612 55.5727 90.612 55.118C90.612 54.6633 90.678 54.2527 90.81 53.886C90.9493 53.512 91.14 53.193 91.382 52.929C91.6313 52.665 91.9247 52.4633 92.262 52.324C92.5993 52.1773 92.9697 52.104 93.373 52.104C93.7763 52.104 94.1467 52.1773 94.484 52.324C94.8287 52.4633 95.122 52.665 95.364 52.929C95.606 53.193 95.793 53.512 95.925 53.886C96.0643 54.2527 96.134 54.6633 96.134 55.118ZM94.77 55.118C94.77 54.546 94.6453 54.095 94.396 53.765C94.154 53.4277 93.813 53.259 93.373 53.259C92.933 53.259 92.5883 53.4277 92.339 53.765C92.097 54.095 91.976 54.546 91.976 55.118C91.976 55.6973 92.097 56.1557 92.339 56.493C92.5883 56.8303 92.933 56.999 93.373 56.999C93.813 56.999 94.154 56.8303 94.396 56.493C94.6453 56.1557 94.77 55.6973 94.77 55.118ZM98.8362 54.557C99.0049 54.3883 99.1882 54.2013 99.3862 53.996C99.5842 53.7833 99.7785 53.5707 99.9692 53.358C100.167 53.1453 100.354 52.9437 100.53 52.753C100.706 52.555 100.853 52.3863 100.97 52.247H102.532C102.371 52.4377 102.184 52.6467 101.971 52.874C101.766 53.1013 101.55 53.336 101.322 53.578C101.102 53.8127 100.882 54.0437 100.662 54.271C100.45 54.491 100.255 54.689 100.079 54.865C100.307 55.0557 100.541 55.2793 100.783 55.536C101.033 55.7853 101.275 56.053 101.509 56.339C101.751 56.6177 101.975 56.9037 102.18 57.197C102.386 57.483 102.558 57.7507 102.697 58H101.157C101.018 57.78 100.853 57.549 100.662 57.307C100.479 57.065 100.285 56.8303 100.079 56.603C99.8739 56.3683 99.6649 56.1483 99.4522 55.943C99.2395 55.7377 99.0342 55.5617 98.8362 55.415V58H97.5052V52.247H98.8362V54.557ZM108.357 52.247C107.763 54.4323 107.074 56.4123 106.289 58.187C106.143 58.517 105.992 58.7993 105.838 59.034C105.684 59.2687 105.512 59.463 105.321 59.617C105.131 59.771 104.918 59.881 104.683 59.947C104.449 60.0203 104.177 60.057 103.869 60.057C103.664 60.057 103.459 60.035 103.253 59.991C103.055 59.947 102.905 59.8993 102.802 59.848L103.044 58.781C103.308 58.8837 103.569 58.935 103.825 58.935C104.17 58.935 104.438 58.8507 104.628 58.682C104.826 58.5207 104.999 58.2677 105.145 57.923C104.727 57.1163 104.324 56.2363 103.935 55.283C103.554 54.3297 103.213 53.3177 102.912 52.247H104.331C104.405 52.555 104.493 52.8887 104.595 53.248C104.705 53.6073 104.823 53.974 104.947 54.348C105.072 54.7147 105.204 55.0813 105.343 55.448C105.483 55.8147 105.622 56.1557 105.761 56.471C105.996 55.8183 106.216 55.1253 106.421 54.392C106.627 53.6513 106.814 52.9363 106.982 52.247H108.357ZM110.707 54.227C110.685 54.535 110.663 54.8577 110.641 55.195C110.619 55.525 110.6 55.855 110.586 56.185C110.571 56.515 110.556 56.834 110.542 57.142C110.527 57.45 110.516 57.736 110.509 58H109.222C109.236 57.5747 109.258 57.1163 109.288 56.625C109.317 56.1263 109.35 55.624 109.387 55.118C109.431 54.6047 109.475 54.1023 109.519 53.611C109.563 53.1197 109.61 52.665 109.662 52.247H110.817C111.095 52.6943 111.378 53.2223 111.664 53.831C111.95 54.4323 112.269 55.118 112.621 55.888C112.987 55.1033 113.321 54.3957 113.622 53.765C113.922 53.127 114.19 52.621 114.425 52.247H115.591C115.642 52.665 115.69 53.1197 115.734 53.611C115.785 54.1023 115.829 54.6047 115.866 55.118C115.902 55.624 115.935 56.1263 115.965 56.625C115.994 57.1163 116.016 57.5747 116.031 58H114.711C114.696 57.3987 114.67 56.779 114.634 56.141C114.604 55.4957 114.568 54.8577 114.524 54.227C114.414 54.447 114.293 54.6927 114.161 54.964C114.036 55.2353 113.911 55.5103 113.787 55.789C113.662 56.0677 113.541 56.339 113.424 56.603C113.306 56.8597 113.204 57.087 113.116 57.285H112.126C112.038 57.087 111.931 56.856 111.807 56.592C111.689 56.328 111.568 56.0567 111.444 55.778C111.319 55.4993 111.191 55.228 111.059 54.964C110.934 54.6927 110.817 54.447 110.707 54.227ZM117.263 55.151C117.263 54.645 117.337 54.2013 117.483 53.82C117.637 53.4387 117.839 53.1233 118.088 52.874C118.338 52.6173 118.624 52.4267 118.946 52.302C119.269 52.17 119.599 52.104 119.936 52.104C120.728 52.104 121.344 52.3497 121.784 52.841C122.232 53.3323 122.455 54.0657 122.455 55.041C122.455 55.1143 122.452 55.1987 122.444 55.294C122.444 55.382 122.441 55.4627 122.433 55.536H118.638C118.675 55.998 118.836 56.3573 119.122 56.614C119.416 56.8633 119.837 56.988 120.387 56.988C120.71 56.988 121.003 56.9587 121.267 56.9C121.539 56.8413 121.751 56.779 121.905 56.713L122.081 57.802C122.008 57.8387 121.905 57.879 121.773 57.923C121.649 57.9597 121.502 57.9927 121.333 58.022C121.172 58.0587 120.996 58.088 120.805 58.11C120.615 58.132 120.42 58.143 120.222 58.143C119.716 58.143 119.276 58.0697 118.902 57.923C118.528 57.769 118.22 57.56 117.978 57.296C117.736 57.0247 117.557 56.7093 117.439 56.35C117.322 55.9833 117.263 55.5837 117.263 55.151ZM121.124 54.557C121.124 54.3737 121.099 54.2013 121.047 54.04C120.996 53.8713 120.919 53.7283 120.816 53.611C120.721 53.4863 120.6 53.391 120.453 53.325C120.314 53.2517 120.145 53.215 119.947 53.215C119.742 53.215 119.562 53.2553 119.408 53.336C119.254 53.4093 119.122 53.5083 119.012 53.633C118.91 53.7577 118.829 53.9007 118.77 54.062C118.712 54.2233 118.671 54.3883 118.649 54.557H121.124ZM128.696 58H127.365V55.591H125.198V58H123.867V52.247H125.198V54.491H127.365V52.247H128.696V58ZM134.721 53.358H132.862V58H131.531V53.358H129.683V52.247H134.721V53.358ZM140.753 52.247V58H139.433C139.433 57.582 139.433 57.1677 139.433 56.757C139.44 56.3463 139.444 55.965 139.444 55.613C139.451 55.261 139.455 54.9567 139.455 54.7C139.462 54.436 139.466 54.2417 139.466 54.117C139.246 54.403 139.019 54.7183 138.784 55.063C138.549 55.4077 138.315 55.7523 138.08 56.097C137.853 56.4417 137.636 56.779 137.431 57.109C137.226 57.439 137.046 57.736 136.892 58H135.715V52.247H137.024C137.024 52.6723 137.02 53.0793 137.013 53.468C137.013 53.8493 137.013 54.1977 137.013 54.513C137.013 54.8283 137.009 55.1033 137.002 55.338C137.002 55.5727 137.002 55.7523 137.002 55.877C137.207 55.5617 137.42 55.239 137.64 54.909C137.86 54.5717 138.08 54.2453 138.3 53.93C138.527 53.6073 138.751 53.303 138.971 53.017C139.191 52.731 139.404 52.4743 139.609 52.247H140.753Z" fill="#C6D1E7"/>
<mask id="mask1_2224_1111" style="mask-type:alpha" maskUnits="userSpaceOnUse" x="20" y="69" width="328" height="127">
<rect x="20" y="69" width="328" height="127" fill="url(#paint6_linear_2224_1111)"/>
</mask>
<g mask="url(#mask1_2224_1111)">
<rect x="20" y="96" width="317.969" height="30" rx="2" fill="#1F2D47"/>
<rect x="30" y="109" width="45" height="5" rx="1" fill="#111928"/>
<rect x="117" y="109" width="21.3542" height="4.81482" rx="1" fill="#111928"/>
<rect x="238" y="103" width="110" height="17" rx="2" fill="#314872"/>
<path d="M249.337 108.07H250.307V115H249.337V111.8H245.947V115H244.977V108.07H245.947V110.96H249.337V108.07ZM254.028 114.33C254.248 114.33 254.441 114.327 254.608 114.32C254.781 114.307 254.924 114.287 255.038 114.26V112.71C254.971 112.677 254.861 112.65 254.708 112.63C254.561 112.603 254.381 112.59 254.168 112.59C254.028 112.59 253.878 112.6 253.718 112.62C253.564 112.64 253.421 112.683 253.288 112.75C253.161 112.81 253.054 112.897 252.968 113.01C252.881 113.117 252.838 113.26 252.838 113.44C252.838 113.773 252.944 114.007 253.158 114.14C253.371 114.267 253.661 114.33 254.028 114.33ZM253.948 109.67C254.321 109.67 254.634 109.72 254.888 109.82C255.148 109.913 255.354 110.05 255.508 110.23C255.668 110.403 255.781 110.613 255.848 110.86C255.914 111.1 255.948 111.367 255.948 111.66V114.91C255.868 114.923 255.754 114.943 255.608 114.97C255.468 114.99 255.308 115.01 255.128 115.03C254.948 115.05 254.751 115.067 254.538 115.08C254.331 115.1 254.124 115.11 253.918 115.11C253.624 115.11 253.354 115.08 253.108 115.02C252.861 114.96 252.648 114.867 252.468 114.74C252.288 114.607 252.148 114.433 252.048 114.22C251.948 114.007 251.898 113.75 251.898 113.45C251.898 113.163 251.954 112.917 252.068 112.71C252.188 112.503 252.348 112.337 252.548 112.21C252.748 112.083 252.981 111.99 253.248 111.93C253.514 111.87 253.794 111.84 254.088 111.84C254.181 111.84 254.278 111.847 254.378 111.86C254.478 111.867 254.571 111.88 254.658 111.9C254.751 111.913 254.831 111.927 254.898 111.94C254.964 111.953 255.011 111.963 255.038 111.97V111.71C255.038 111.557 255.021 111.407 254.988 111.26C254.954 111.107 254.894 110.973 254.808 110.86C254.721 110.74 254.601 110.647 254.448 110.58C254.301 110.507 254.108 110.47 253.868 110.47C253.561 110.47 253.291 110.493 253.058 110.54C252.831 110.58 252.661 110.623 252.548 110.67L252.438 109.9C252.558 109.847 252.758 109.797 253.038 109.75C253.318 109.697 253.621 109.67 253.948 109.67ZM261.317 114.3C261.357 114.307 261.414 114.313 261.487 114.32C261.56 114.327 261.644 114.333 261.737 114.34C261.83 114.34 261.927 114.343 262.027 114.35C262.134 114.35 262.234 114.35 262.327 114.35C262.52 114.35 262.704 114.337 262.877 114.31C263.057 114.283 263.21 114.237 263.337 114.17C263.47 114.103 263.574 114.017 263.647 113.91C263.727 113.797 263.767 113.653 263.767 113.48C263.767 113.313 263.73 113.177 263.657 113.07C263.59 112.957 263.497 112.867 263.377 112.8C263.257 112.733 263.114 112.687 262.947 112.66C262.787 112.633 262.614 112.62 262.427 112.62H261.317V114.3ZM262.307 111.93C262.487 111.93 262.65 111.92 262.797 111.9C262.95 111.873 263.08 111.83 263.187 111.77C263.3 111.71 263.387 111.63 263.447 111.53C263.514 111.43 263.547 111.303 263.547 111.15C263.547 110.99 263.507 110.863 263.427 110.77C263.347 110.677 263.24 110.607 263.107 110.56C262.98 110.507 262.834 110.473 262.667 110.46C262.507 110.44 262.344 110.43 262.177 110.43C262.024 110.43 261.867 110.433 261.707 110.44C261.554 110.447 261.424 110.453 261.317 110.46V111.93H262.307ZM262.287 115.09C261.894 115.09 261.53 115.07 261.197 115.03C260.864 114.997 260.6 114.957 260.407 114.91V109.85C260.6 109.803 260.864 109.763 261.197 109.73C261.53 109.69 261.894 109.67 262.287 109.67C262.56 109.67 262.827 109.693 263.087 109.74C263.347 109.787 263.577 109.867 263.777 109.98C263.977 110.087 264.137 110.237 264.257 110.43C264.384 110.617 264.447 110.85 264.447 111.13C264.447 111.383 264.384 111.6 264.257 111.78C264.13 111.96 263.96 112.1 263.747 112.2C264.034 112.3 264.26 112.45 264.427 112.65C264.6 112.843 264.687 113.117 264.687 113.47C264.687 113.783 264.624 114.043 264.497 114.25C264.377 114.457 264.207 114.623 263.987 114.75C263.774 114.877 263.52 114.963 263.227 115.01C262.934 115.063 262.62 115.09 262.287 115.09ZM268.445 115.12C268.025 115.12 267.655 115.053 267.335 114.92C267.022 114.787 266.755 114.6 266.535 114.36C266.322 114.12 266.162 113.837 266.055 113.51C265.949 113.177 265.895 112.81 265.895 112.41C265.895 112.01 265.952 111.643 266.065 111.31C266.185 110.977 266.352 110.69 266.565 110.45C266.779 110.203 267.039 110.013 267.345 109.88C267.659 109.74 268.005 109.67 268.385 109.67C268.619 109.67 268.852 109.69 269.085 109.73C269.319 109.77 269.542 109.833 269.755 109.92L269.545 110.71C269.405 110.643 269.242 110.59 269.055 110.55C268.875 110.51 268.682 110.49 268.475 110.49C267.955 110.49 267.555 110.653 267.275 110.98C267.002 111.307 266.865 111.783 266.865 112.41C266.865 112.69 266.895 112.947 266.955 113.18C267.022 113.413 267.122 113.613 267.255 113.78C267.395 113.947 267.572 114.077 267.785 114.17C267.999 114.257 268.259 114.3 268.565 114.3C268.812 114.3 269.035 114.277 269.235 114.23C269.435 114.183 269.592 114.133 269.705 114.08L269.835 114.86C269.782 114.893 269.705 114.927 269.605 114.96C269.505 114.987 269.392 115.01 269.265 115.03C269.139 115.057 269.002 115.077 268.855 115.09C268.715 115.11 268.579 115.12 268.445 115.12ZM273.284 112.98C273.184 112.98 273.087 112.98 272.994 112.98C272.9 112.973 272.81 112.967 272.724 112.96C272.51 113.28 272.304 113.623 272.104 113.99C271.91 114.35 271.737 114.687 271.584 115H270.644C270.724 114.807 270.817 114.61 270.924 114.41C271.03 114.203 271.137 114.003 271.244 113.81C271.357 113.617 271.47 113.433 271.584 113.26C271.697 113.087 271.804 112.93 271.904 112.79C271.717 112.723 271.564 112.643 271.444 112.55C271.324 112.45 271.227 112.34 271.154 112.22C271.08 112.1 271.027 111.973 270.994 111.84C270.967 111.7 270.954 111.56 270.954 111.42C270.954 111.127 271.007 110.87 271.114 110.65C271.227 110.43 271.38 110.25 271.574 110.11C271.767 109.963 271.994 109.853 272.254 109.78C272.52 109.707 272.81 109.67 273.124 109.67C273.564 109.67 273.937 109.69 274.244 109.73C274.55 109.77 274.807 109.817 275.014 109.87V115H274.094V112.98H273.284ZM274.094 110.49C274.02 110.477 273.897 110.463 273.724 110.45C273.557 110.437 273.364 110.43 273.144 110.43C272.764 110.43 272.457 110.51 272.224 110.67C271.99 110.823 271.874 111.07 271.874 111.41C271.874 111.743 271.994 111.973 272.234 112.1C272.474 112.227 272.784 112.29 273.164 112.29H274.094V110.49ZM278.812 112.17C279.019 112.317 279.242 112.503 279.482 112.73C279.722 112.95 279.956 113.19 280.182 113.45C280.416 113.71 280.632 113.977 280.832 114.25C281.032 114.517 281.202 114.767 281.342 115H280.242C280.096 114.773 279.922 114.543 279.722 114.31C279.529 114.07 279.326 113.84 279.112 113.62C278.899 113.4 278.682 113.197 278.462 113.01C278.242 112.823 278.036 112.667 277.842 112.54V115H276.912V109.8H277.842V112.03C278.002 111.877 278.186 111.7 278.392 111.5C278.599 111.293 278.806 111.087 279.012 110.88C279.226 110.667 279.422 110.467 279.602 110.28C279.782 110.087 279.929 109.927 280.042 109.8H281.122C280.976 109.96 280.802 110.143 280.602 110.35C280.409 110.55 280.206 110.757 279.992 110.97C279.786 111.183 279.579 111.397 279.372 111.61C279.166 111.817 278.979 112.003 278.812 112.17ZM286.88 112.4C286.88 112.813 286.82 113.187 286.7 113.52C286.58 113.853 286.41 114.14 286.19 114.38C285.977 114.62 285.72 114.807 285.42 114.94C285.12 115.067 284.794 115.13 284.44 115.13C284.087 115.13 283.76 115.067 283.46 114.94C283.16 114.807 282.9 114.62 282.68 114.38C282.467 114.14 282.3 113.853 282.18 113.52C282.06 113.187 282 112.813 282 112.4C282 111.993 282.06 111.623 282.18 111.29C282.3 110.95 282.467 110.66 282.68 110.42C282.9 110.18 283.16 109.997 283.46 109.87C283.76 109.737 284.087 109.67 284.44 109.67C284.794 109.67 285.12 109.737 285.42 109.87C285.72 109.997 285.977 110.18 286.19 110.42C286.41 110.66 286.58 110.95 286.7 111.29C286.82 111.623 286.88 111.993 286.88 112.4ZM285.91 112.4C285.91 111.813 285.777 111.35 285.51 111.01C285.25 110.663 284.894 110.49 284.44 110.49C283.987 110.49 283.627 110.663 283.36 111.01C283.1 111.35 282.97 111.813 282.97 112.4C282.97 112.987 283.1 113.453 283.36 113.8C283.627 114.14 283.987 114.31 284.44 114.31C284.894 114.31 285.25 114.14 285.51 113.8C285.777 113.453 285.91 112.987 285.91 112.4ZM291.933 115C291.973 114.467 292.067 113.907 292.213 113.32C292.367 112.727 292.553 112.153 292.773 111.6C292.993 111.04 293.233 110.523 293.493 110.05C293.76 109.57 294.02 109.18 294.273 108.88H290.903V108.07H295.313V108.84C295.093 109.093 294.85 109.443 294.583 109.89C294.317 110.33 294.063 110.827 293.823 111.38C293.59 111.927 293.387 112.513 293.213 113.14C293.047 113.76 292.943 114.38 292.903 115H291.933ZM298.038 111.17C297.971 111.83 297.921 112.49 297.888 113.15C297.855 113.803 297.828 114.42 297.808 115H296.918C296.931 114.593 296.951 114.17 296.978 113.73C297.005 113.283 297.035 112.837 297.068 112.39C297.101 111.937 297.138 111.493 297.178 111.06C297.218 110.62 297.261 110.2 297.308 109.8H298.158C298.371 110.147 298.621 110.623 298.908 111.23C299.195 111.83 299.525 112.523 299.898 113.31C300.271 112.523 300.601 111.83 300.888 111.23C301.175 110.623 301.425 110.147 301.638 109.8H302.498C302.545 110.2 302.588 110.62 302.628 111.06C302.668 111.493 302.705 111.937 302.738 112.39C302.771 112.837 302.801 113.283 302.828 113.73C302.855 114.17 302.875 114.593 302.888 115H301.968C301.948 114.42 301.921 113.803 301.888 113.15C301.855 112.49 301.805 111.83 301.738 111.17C301.631 111.377 301.508 111.627 301.368 111.92C301.228 112.207 301.088 112.5 300.948 112.8C300.815 113.1 300.688 113.387 300.568 113.66C300.448 113.933 300.355 114.15 300.288 114.31H299.508C299.435 114.143 299.335 113.923 299.208 113.65C299.088 113.377 298.958 113.09 298.818 112.79C298.685 112.483 298.548 112.187 298.408 111.9C298.268 111.607 298.145 111.363 298.038 111.17ZM309.252 112.4C309.252 112.813 309.192 113.187 309.072 113.52C308.952 113.853 308.782 114.14 308.562 114.38C308.349 114.62 308.092 114.807 307.792 114.94C307.492 115.067 307.166 115.13 306.812 115.13C306.459 115.13 306.132 115.067 305.832 114.94C305.532 114.807 305.272 114.62 305.052 114.38C304.839 114.14 304.672 113.853 304.552 113.52C304.432 113.187 304.372 112.813 304.372 112.4C304.372 111.993 304.432 111.623 304.552 111.29C304.672 110.95 304.839 110.66 305.052 110.42C305.272 110.18 305.532 109.997 305.832 109.87C306.132 109.737 306.459 109.67 306.812 109.67C307.166 109.67 307.492 109.737 307.792 109.87C308.092 109.997 308.349 110.18 308.562 110.42C308.782 110.66 308.952 110.95 309.072 111.29C309.192 111.623 309.252 111.993 309.252 112.4ZM308.282 112.4C308.282 111.813 308.149 111.35 307.882 111.01C307.622 110.663 307.266 110.49 306.812 110.49C306.359 110.49 305.999 110.663 305.732 111.01C305.472 111.35 305.342 111.813 305.342 112.4C305.342 112.987 305.472 113.453 305.732 113.8C305.999 114.14 306.359 114.31 306.812 114.31C307.266 114.31 307.622 114.14 307.882 113.8C308.149 113.453 308.282 112.987 308.282 112.4ZM314.065 109.8V111.33C314.065 111.723 314.165 112 314.365 112.16C314.565 112.313 314.839 112.39 315.185 112.39C315.439 112.39 315.649 112.377 315.815 112.35C315.989 112.323 316.142 112.293 316.275 112.26V109.8H317.205V115H316.275V112.98C316.222 112.993 316.152 113.01 316.065 113.03C315.979 113.05 315.879 113.07 315.765 113.09C315.659 113.103 315.545 113.117 315.425 113.13C315.305 113.143 315.189 113.15 315.075 113.15C314.789 113.15 314.525 113.12 314.285 113.06C314.052 113 313.849 112.9 313.675 112.76C313.509 112.62 313.375 112.437 313.275 112.21C313.182 111.977 313.135 111.687 313.135 111.34V109.8H314.065ZM323.477 109.8V115H322.577V111.04C322.377 111.293 322.157 111.59 321.917 111.93C321.677 112.27 321.437 112.623 321.197 112.99C320.957 113.35 320.727 113.707 320.507 114.06C320.287 114.413 320.097 114.727 319.937 115H319.107V109.8H320.007V113.54C320.181 113.253 320.377 112.94 320.597 112.6C320.817 112.253 321.044 111.913 321.277 111.58C321.517 111.24 321.754 110.917 321.987 110.61C322.227 110.297 322.451 110.027 322.657 109.8H323.477ZM327.634 115.12C327.214 115.12 326.844 115.053 326.524 114.92C326.211 114.787 325.944 114.6 325.724 114.36C325.511 114.12 325.351 113.837 325.244 113.51C325.137 113.177 325.084 112.81 325.084 112.41C325.084 112.01 325.141 111.643 325.254 111.31C325.374 110.977 325.541 110.69 325.754 110.45C325.967 110.203 326.227 110.013 326.534 109.88C326.847 109.74 327.194 109.67 327.574 109.67C327.807 109.67 328.041 109.69 328.274 109.73C328.507 109.77 328.731 109.833 328.944 109.92L328.734 110.71C328.594 110.643 328.431 110.59 328.244 110.55C328.064 110.51 327.871 110.49 327.664 110.49C327.144 110.49 326.744 110.653 326.464 110.98C326.191 111.307 326.054 111.783 326.054 112.41C326.054 112.69 326.084 112.947 326.144 113.18C326.211 113.413 326.311 113.613 326.444 113.78C326.584 113.947 326.761 114.077 326.974 114.17C327.187 114.257 327.447 114.3 327.754 114.3C328.001 114.3 328.224 114.277 328.424 114.23C328.624 114.183 328.781 114.133 328.894 114.08L329.024 114.86C328.971 114.893 328.894 114.927 328.794 114.96C328.694 114.987 328.581 115.01 328.454 115.03C328.327 115.057 328.191 115.077 328.044 115.09C327.904 115.11 327.767 115.12 327.634 115.12ZM332.318 110.58C332.318 110.8 332.311 111.037 332.298 111.29C332.291 111.537 332.275 111.787 332.248 112.04C332.221 112.287 332.185 112.533 332.138 112.78C332.091 113.02 332.031 113.247 331.958 113.46C331.885 113.673 331.791 113.873 331.678 114.06C331.571 114.247 331.438 114.413 331.278 114.56C331.118 114.7 330.931 114.82 330.718 114.92C330.505 115.013 330.255 115.073 329.968 115.1L329.838 114.32C330.165 114.253 330.421 114.13 330.608 113.95C330.801 113.77 330.955 113.55 331.068 113.29C331.168 113.063 331.241 112.807 331.288 112.52C331.335 112.233 331.368 111.937 331.388 111.63C331.408 111.317 331.418 111.003 331.418 110.69C331.425 110.377 331.428 110.08 331.428 109.8H334.888V115H333.958V110.58H332.318ZM341.375 112.4C341.375 112.813 341.315 113.187 341.195 113.52C341.075 113.853 340.905 114.14 340.685 114.38C340.471 114.62 340.215 114.807 339.915 114.94C339.615 115.067 339.288 115.13 338.935 115.13C338.581 115.13 338.255 115.067 337.955 114.94C337.655 114.807 337.395 114.62 337.175 114.38C336.961 114.14 336.795 113.853 336.675 113.52C336.555 113.187 336.495 112.813 336.495 112.4C336.495 111.993 336.555 111.623 336.675 111.29C336.795 110.95 336.961 110.66 337.175 110.42C337.395 110.18 337.655 109.997 337.955 109.87C338.255 109.737 338.581 109.67 338.935 109.67C339.288 109.67 339.615 109.737 339.915 109.87C340.215 109.997 340.471 110.18 340.685 110.42C340.905 110.66 341.075 110.95 341.195 111.29C341.315 111.623 341.375 111.993 341.375 112.4ZM340.405 112.4C340.405 111.813 340.271 111.35 340.005 111.01C339.745 110.663 339.388 110.49 338.935 110.49C338.481 110.49 338.121 110.663 337.855 111.01C337.595 111.35 337.465 111.813 337.465 112.4C337.465 112.987 337.595 113.453 337.855 113.8C338.121 114.14 338.481 114.31 338.935 114.31C339.388 114.31 339.745 114.14 340.005 113.8C340.271 113.453 340.405 112.987 340.405 112.4Z" fill="white"/>
<rect x="175" y="109" width="41" height="5" rx="1" fill="#111928"/>
<rect x="20" y="131" width="317.969" height="30" rx="2" fill="#1F2D47"/>
<rect x="31" y="143.854" width="49" height="5" rx="1" fill="#111928"/>
<rect x="116" y="143.854" width="23.4147" height="4.81482" rx="1" fill="#111928"/>
<rect x="238" y="138" width="108" height="17" rx="2" fill="#314872"/>
<path d="M249.68 143.07H250.65V150H249.68V146.8H246.29V150H245.32V143.07H246.29V145.96H249.68V143.07ZM254.371 149.33C254.591 149.33 254.784 149.327 254.951 149.32C255.124 149.307 255.267 149.287 255.381 149.26V147.71C255.314 147.677 255.204 147.65 255.051 147.63C254.904 147.603 254.724 147.59 254.511 147.59C254.371 147.59 254.221 147.6 254.061 147.62C253.907 147.64 253.764 147.683 253.631 147.75C253.504 147.81 253.397 147.897 253.311 148.01C253.224 148.117 253.181 148.26 253.181 148.44C253.181 148.773 253.287 149.007 253.501 149.14C253.714 149.267 254.004 149.33 254.371 149.33ZM254.291 144.67C254.664 144.67 254.977 144.72 255.231 144.82C255.491 144.913 255.697 145.05 255.851 145.23C256.011 145.403 256.124 145.613 256.191 145.86C256.257 146.1 256.291 146.367 256.291 146.66V149.91C256.211 149.923 256.097 149.943 255.951 149.97C255.811 149.99 255.651 150.01 255.471 150.03C255.291 150.05 255.094 150.067 254.881 150.08C254.674 150.1 254.467 150.11 254.261 150.11C253.967 150.11 253.697 150.08 253.451 150.02C253.204 149.96 252.991 149.867 252.811 149.74C252.631 149.607 252.491 149.433 252.391 149.22C252.291 149.007 252.241 148.75 252.241 148.45C252.241 148.163 252.297 147.917 252.411 147.71C252.531 147.503 252.691 147.337 252.891 147.21C253.091 147.083 253.324 146.99 253.591 146.93C253.857 146.87 254.137 146.84 254.431 146.84C254.524 146.84 254.621 146.847 254.721 146.86C254.821 146.867 254.914 146.88 255.001 146.9C255.094 146.913 255.174 146.927 255.241 146.94C255.307 146.953 255.354 146.963 255.381 146.97V146.71C255.381 146.557 255.364 146.407 255.331 146.26C255.297 146.107 255.237 145.973 255.151 145.86C255.064 145.74 254.944 145.647 254.791 145.58C254.644 145.507 254.451 145.47 254.211 145.47C253.904 145.47 253.634 145.493 253.401 145.54C253.174 145.58 253.004 145.623 252.891 145.67L252.781 144.9C252.901 144.847 253.101 144.797 253.381 144.75C253.661 144.697 253.964 144.67 254.291 144.67ZM261.66 149.3C261.7 149.307 261.756 149.313 261.83 149.32C261.903 149.327 261.986 149.333 262.08 149.34C262.173 149.34 262.27 149.343 262.37 149.35C262.476 149.35 262.576 149.35 262.67 149.35C262.863 149.35 263.046 149.337 263.22 149.31C263.4 149.283 263.553 149.237 263.68 149.17C263.813 149.103 263.916 149.017 263.99 148.91C264.07 148.797 264.11 148.653 264.11 148.48C264.11 148.313 264.073 148.177 264 148.07C263.933 147.957 263.84 147.867 263.72 147.8C263.6 147.733 263.456 147.687 263.29 147.66C263.13 147.633 262.956 147.62 262.77 147.62H261.66V149.3ZM262.65 146.93C262.83 146.93 262.993 146.92 263.14 146.9C263.293 146.873 263.423 146.83 263.53 146.77C263.643 146.71 263.73 146.63 263.79 146.53C263.856 146.43 263.89 146.303 263.89 146.15C263.89 145.99 263.85 145.863 263.77 145.77C263.69 145.677 263.583 145.607 263.45 145.56C263.323 145.507 263.176 145.473 263.01 145.46C262.85 145.44 262.686 145.43 262.52 145.43C262.366 145.43 262.21 145.433 262.05 145.44C261.896 145.447 261.766 145.453 261.66 145.46V146.93H262.65ZM262.63 150.09C262.236 150.09 261.873 150.07 261.54 150.03C261.206 149.997 260.943 149.957 260.75 149.91V144.85C260.943 144.803 261.206 144.763 261.54 144.73C261.873 144.69 262.236 144.67 262.63 144.67C262.903 144.67 263.17 144.693 263.43 144.74C263.69 144.787 263.92 144.867 264.12 144.98C264.32 145.087 264.48 145.237 264.6 145.43C264.726 145.617 264.79 145.85 264.79 146.13C264.79 146.383 264.726 146.6 264.6 146.78C264.473 146.96 264.303 147.1 264.09 147.2C264.376 147.3 264.603 147.45 264.77 147.65C264.943 147.843 265.03 148.117 265.03 148.47C265.03 148.783 264.966 149.043 264.84 149.25C264.72 149.457 264.55 149.623 264.33 149.75C264.116 149.877 263.863 149.963 263.57 150.01C263.276 150.063 262.963 150.09 262.63 150.09ZM268.788 150.12C268.368 150.12 267.998 150.053 267.678 149.92C267.365 149.787 267.098 149.6 266.878 149.36C266.665 149.12 266.505 148.837 266.398 148.51C266.291 148.177 266.238 147.81 266.238 147.41C266.238 147.01 266.295 146.643 266.408 146.31C266.528 145.977 266.695 145.69 266.908 145.45C267.121 145.203 267.381 145.013 267.688 144.88C268.001 144.74 268.348 144.67 268.728 144.67C268.961 144.67 269.195 144.69 269.428 144.73C269.661 144.77 269.885 144.833 270.098 144.92L269.888 145.71C269.748 145.643 269.585 145.59 269.398 145.55C269.218 145.51 269.025 145.49 268.818 145.49C268.298 145.49 267.898 145.653 267.618 145.98C267.345 146.307 267.208 146.783 267.208 147.41C267.208 147.69 267.238 147.947 267.298 148.18C267.365 148.413 267.465 148.613 267.598 148.78C267.738 148.947 267.915 149.077 268.128 149.17C268.341 149.257 268.601 149.3 268.908 149.3C269.155 149.3 269.378 149.277 269.578 149.23C269.778 149.183 269.935 149.133 270.048 149.08L270.178 149.86C270.125 149.893 270.048 149.927 269.948 149.96C269.848 149.987 269.735 150.01 269.608 150.03C269.481 150.057 269.345 150.077 269.198 150.09C269.058 150.11 268.921 150.12 268.788 150.12ZM273.627 147.98C273.527 147.98 273.43 147.98 273.337 147.98C273.243 147.973 273.153 147.967 273.067 147.96C272.853 148.28 272.647 148.623 272.447 148.99C272.253 149.35 272.08 149.687 271.927 150H270.987C271.067 149.807 271.16 149.61 271.267 149.41C271.373 149.203 271.48 149.003 271.587 148.81C271.7 148.617 271.813 148.433 271.927 148.26C272.04 148.087 272.147 147.93 272.247 147.79C272.06 147.723 271.907 147.643 271.787 147.55C271.667 147.45 271.57 147.34 271.497 147.22C271.423 147.1 271.37 146.973 271.337 146.84C271.31 146.7 271.297 146.56 271.297 146.42C271.297 146.127 271.35 145.87 271.457 145.65C271.57 145.43 271.723 145.25 271.917 145.11C272.11 144.963 272.337 144.853 272.597 144.78C272.863 144.707 273.153 144.67 273.467 144.67C273.907 144.67 274.28 144.69 274.587 144.73C274.893 144.77 275.15 144.817 275.357 144.87V150H274.437V147.98H273.627ZM274.437 145.49C274.363 145.477 274.24 145.463 274.067 145.45C273.9 145.437 273.707 145.43 273.487 145.43C273.107 145.43 272.8 145.51 272.567 145.67C272.333 145.823 272.217 146.07 272.217 146.41C272.217 146.743 272.337 146.973 272.577 147.1C272.817 147.227 273.127 147.29 273.507 147.29H274.437V145.49ZM279.155 147.17C279.362 147.317 279.585 147.503 279.825 147.73C280.065 147.95 280.298 148.19 280.525 148.45C280.758 148.71 280.975 148.977 281.175 149.25C281.375 149.517 281.545 149.767 281.685 150H280.585C280.438 149.773 280.265 149.543 280.065 149.31C279.872 149.07 279.668 148.84 279.455 148.62C279.242 148.4 279.025 148.197 278.805 148.01C278.585 147.823 278.378 147.667 278.185 147.54V150H277.255V144.8H278.185V147.03C278.345 146.877 278.528 146.7 278.735 146.5C278.942 146.293 279.148 146.087 279.355 145.88C279.568 145.667 279.765 145.467 279.945 145.28C280.125 145.087 280.272 144.927 280.385 144.8H281.465C281.318 144.96 281.145 145.143 280.945 145.35C280.752 145.55 280.548 145.757 280.335 145.97C280.128 146.183 279.922 146.397 279.715 146.61C279.508 146.817 279.322 147.003 279.155 147.17ZM287.223 147.4C287.223 147.813 287.163 148.187 287.043 148.52C286.923 148.853 286.753 149.14 286.533 149.38C286.32 149.62 286.063 149.807 285.763 149.94C285.463 150.067 285.137 150.13 284.783 150.13C284.43 150.13 284.103 150.067 283.803 149.94C283.503 149.807 283.243 149.62 283.023 149.38C282.81 149.14 282.643 148.853 282.523 148.52C282.403 148.187 282.343 147.813 282.343 147.4C282.343 146.993 282.403 146.623 282.523 146.29C282.643 145.95 282.81 145.66 283.023 145.42C283.243 145.18 283.503 144.997 283.803 144.87C284.103 144.737 284.43 144.67 284.783 144.67C285.137 144.67 285.463 144.737 285.763 144.87C286.063 144.997 286.32 145.18 286.533 145.42C286.753 145.66 286.923 145.95 287.043 146.29C287.163 146.623 287.223 146.993 287.223 147.4ZM286.253 147.4C286.253 146.813 286.12 146.35 285.853 146.01C285.593 145.663 285.237 145.49 284.783 145.49C284.33 145.49 283.97 145.663 283.703 146.01C283.443 146.35 283.313 146.813 283.313 147.4C283.313 147.987 283.443 148.453 283.703 148.8C283.97 149.14 284.33 149.31 284.783 149.31C285.237 149.31 285.593 149.14 285.853 148.8C286.12 148.453 286.253 147.987 286.253 147.4ZM292.906 149.32C293.499 149.32 293.923 149.203 294.176 148.97C294.436 148.737 294.566 148.423 294.566 148.03C294.566 147.777 294.513 147.563 294.406 147.39C294.299 147.217 294.159 147.08 293.986 146.98C293.813 146.873 293.609 146.8 293.376 146.76C293.149 146.713 292.916 146.69 292.676 146.69H292.436V145.93H292.766C292.933 145.93 293.103 145.913 293.276 145.88C293.456 145.847 293.619 145.787 293.766 145.7C293.913 145.613 294.033 145.497 294.126 145.35C294.219 145.197 294.266 145.007 294.266 144.78C294.266 144.593 294.233 144.433 294.166 144.3C294.099 144.167 294.009 144.057 293.896 143.97C293.789 143.883 293.663 143.823 293.516 143.79C293.376 143.75 293.226 143.73 293.066 143.73C292.746 143.73 292.473 143.777 292.246 143.87C292.026 143.963 291.839 144.06 291.686 144.16L291.326 143.45C291.406 143.397 291.506 143.34 291.626 143.28C291.753 143.213 291.893 143.153 292.046 143.1C292.199 143.047 292.363 143.003 292.536 142.97C292.716 142.93 292.903 142.91 293.096 142.91C293.463 142.91 293.779 142.957 294.046 143.05C294.313 143.137 294.533 143.263 294.706 143.43C294.879 143.59 295.009 143.783 295.096 144.01C295.183 144.23 295.226 144.47 295.226 144.73C295.226 145.09 295.123 145.4 294.916 145.66C294.709 145.913 294.459 146.107 294.166 146.24C294.346 146.293 294.519 146.37 294.686 146.47C294.853 146.57 294.996 146.697 295.116 146.85C295.243 147.003 295.343 147.18 295.416 147.38C295.496 147.58 295.536 147.803 295.536 148.05C295.536 148.35 295.483 148.63 295.376 148.89C295.276 149.143 295.116 149.363 294.896 149.55C294.683 149.737 294.413 149.883 294.086 149.99C293.759 150.097 293.373 150.15 292.926 150.15C292.753 150.15 292.573 150.137 292.386 150.11C292.206 150.083 292.036 150.05 291.876 150.01C291.716 149.97 291.576 149.93 291.456 149.89C291.336 149.85 291.249 149.817 291.196 149.79L291.376 148.98C291.489 149.033 291.676 149.103 291.936 149.19C292.203 149.277 292.526 149.32 292.906 149.32ZM301.061 144.8V145.58H299.371V150H298.441V145.58H296.751V144.8H301.061ZM306.91 147.4C306.91 147.813 306.85 148.187 306.73 148.52C306.61 148.853 306.44 149.14 306.22 149.38C306.006 149.62 305.75 149.807 305.45 149.94C305.15 150.067 304.823 150.13 304.47 150.13C304.116 150.13 303.79 150.067 303.49 149.94C303.19 149.807 302.93 149.62 302.71 149.38C302.496 149.14 302.33 148.853 302.21 148.52C302.09 148.187 302.03 147.813 302.03 147.4C302.03 146.993 302.09 146.623 302.21 146.29C302.33 145.95 302.496 145.66 302.71 145.42C302.93 145.18 303.19 144.997 303.49 144.87C303.79 144.737 304.116 144.67 304.47 144.67C304.823 144.67 305.15 144.737 305.45 144.87C305.75 144.997 306.006 145.18 306.22 145.42C306.44 145.66 306.61 145.95 306.73 146.29C306.85 146.623 306.91 146.993 306.91 147.4ZM305.94 147.4C305.94 146.813 305.806 146.35 305.54 146.01C305.28 145.663 304.923 145.49 304.47 145.49C304.016 145.49 303.656 145.663 303.39 146.01C303.13 146.35 303 146.813 303 147.4C303 147.987 303.13 148.453 303.39 148.8C303.656 149.14 304.016 149.31 304.47 149.31C304.923 149.31 305.28 149.14 305.54 148.8C305.806 148.453 305.94 147.987 305.94 147.4ZM311.722 144.8V146.33C311.722 146.723 311.822 147 312.022 147.16C312.222 147.313 312.496 147.39 312.842 147.39C313.096 147.39 313.306 147.377 313.472 147.35C313.646 147.323 313.799 147.293 313.932 147.26V144.8H314.862V150H313.932V147.98C313.879 147.993 313.809 148.01 313.722 148.03C313.636 148.05 313.536 148.07 313.422 148.09C313.316 148.103 313.202 148.117 313.082 148.13C312.962 148.143 312.846 148.15 312.732 148.15C312.446 148.15 312.182 148.12 311.942 148.06C311.709 148 311.506 147.9 311.332 147.76C311.166 147.62 311.032 147.437 310.932 147.21C310.839 146.977 310.792 146.687 310.792 146.34V144.8H311.722ZM321.134 144.8V150H320.234V146.04C320.034 146.293 319.814 146.59 319.574 146.93C319.334 147.27 319.094 147.623 318.854 147.99C318.614 148.35 318.384 148.707 318.164 149.06C317.944 149.413 317.754 149.727 317.594 150H316.764V144.8H317.664V148.54C317.838 148.253 318.034 147.94 318.254 147.6C318.474 147.253 318.701 146.913 318.934 146.58C319.174 146.24 319.411 145.917 319.644 145.61C319.884 145.297 320.108 145.027 320.314 144.8H321.134ZM325.291 150.12C324.871 150.12 324.501 150.053 324.181 149.92C323.868 149.787 323.601 149.6 323.381 149.36C323.168 149.12 323.008 148.837 322.901 148.51C322.795 148.177 322.741 147.81 322.741 147.41C322.741 147.01 322.798 146.643 322.911 146.31C323.031 145.977 323.198 145.69 323.411 145.45C323.625 145.203 323.885 145.013 324.191 144.88C324.505 144.74 324.851 144.67 325.231 144.67C325.465 144.67 325.698 144.69 325.931 144.73C326.165 144.77 326.388 144.833 326.601 144.92L326.391 145.71C326.251 145.643 326.088 145.59 325.901 145.55C325.721 145.51 325.528 145.49 325.321 145.49C324.801 145.49 324.401 145.653 324.121 145.98C323.848 146.307 323.711 146.783 323.711 147.41C323.711 147.69 323.741 147.947 323.801 148.18C323.868 148.413 323.968 148.613 324.101 148.78C324.241 148.947 324.418 149.077 324.631 149.17C324.845 149.257 325.105 149.3 325.411 149.3C325.658 149.3 325.881 149.277 326.081 149.23C326.281 149.183 326.438 149.133 326.551 149.08L326.681 149.86C326.628 149.893 326.551 149.927 326.451 149.96C326.351 149.987 326.238 150.01 326.111 150.03C325.985 150.057 325.848 150.077 325.701 150.09C325.561 150.11 325.425 150.12 325.291 150.12ZM329.975 145.58C329.975 145.8 329.969 146.037 329.955 146.29C329.949 146.537 329.932 146.787 329.905 147.04C329.879 147.287 329.842 147.533 329.795 147.78C329.749 148.02 329.689 148.247 329.615 148.46C329.542 148.673 329.449 148.873 329.335 149.06C329.229 149.247 329.095 149.413 328.935 149.56C328.775 149.7 328.589 149.82 328.375 149.92C328.162 150.013 327.912 150.073 327.625 150.1L327.495 149.32C327.822 149.253 328.079 149.13 328.265 148.95C328.459 148.77 328.612 148.55 328.725 148.29C328.825 148.063 328.899 147.807 328.945 147.52C328.992 147.233 329.025 146.937 329.045 146.63C329.065 146.317 329.075 146.003 329.075 145.69C329.082 145.377 329.085 145.08 329.085 144.8H332.545V150H331.615V145.58H329.975ZM339.032 147.4C339.032 147.813 338.972 148.187 338.852 148.52C338.732 148.853 338.562 149.14 338.342 149.38C338.128 149.62 337.872 149.807 337.572 149.94C337.272 150.067 336.945 150.13 336.592 150.13C336.238 150.13 335.912 150.067 335.612 149.94C335.312 149.807 335.052 149.62 334.832 149.38C334.618 149.14 334.452 148.853 334.332 148.52C334.212 148.187 334.152 147.813 334.152 147.4C334.152 146.993 334.212 146.623 334.332 146.29C334.452 145.95 334.618 145.66 334.832 145.42C335.052 145.18 335.312 144.997 335.612 144.87C335.912 144.737 336.238 144.67 336.592 144.67C336.945 144.67 337.272 144.737 337.572 144.87C337.872 144.997 338.128 145.18 338.342 145.42C338.562 145.66 338.732 145.95 338.852 146.29C338.972 146.623 339.032 146.993 339.032 147.4ZM338.062 147.4C338.062 146.813 337.928 146.35 337.662 146.01C337.402 145.663 337.045 145.49 336.592 145.49C336.138 145.49 335.778 145.663 335.512 146.01C335.252 146.35 335.122 146.813 335.122 147.4C335.122 147.987 335.252 148.453 335.512 148.8C335.778 149.14 336.138 149.31 336.592 149.31C337.045 149.31 337.402 149.14 337.662 148.8C337.928 148.453 338.062 147.987 338.062 147.4Z" fill="white"/>
<rect x="174" y="143.854" width="42.1464" height="4.81482" rx="1" fill="#111928"/>
<rect x="20" y="166" width="317.969" height="30" rx="2" fill="#1F2D47"/>
<rect x="31" y="178.854" width="49" height="5" rx="1" fill="#111928"/>
<rect x="116" y="178.854" width="23.4147" height="4.81482" rx="1" fill="#111928"/>
<rect x="238" y="173" width="108" height="17" rx="2" fill="#314872"/>
<path d="M249.255 178.07H250.225V185H249.255V181.8H245.865V185H244.895V178.07H245.865V180.96H249.255V178.07ZM253.946 184.33C254.166 184.33 254.359 184.327 254.526 184.32C254.699 184.307 254.842 184.287 254.956 184.26V182.71C254.889 182.677 254.779 182.65 254.626 182.63C254.479 182.603 254.299 182.59 254.086 182.59C253.946 182.59 253.796 182.6 253.636 182.62C253.482 182.64 253.339 182.683 253.206 182.75C253.079 182.81 252.972 182.897 252.886 183.01C252.799 183.117 252.756 183.26 252.756 183.44C252.756 183.773 252.862 184.007 253.076 184.14C253.289 184.267 253.579 184.33 253.946 184.33ZM253.866 179.67C254.239 179.67 254.552 179.72 254.806 179.82C255.066 179.913 255.272 180.05 255.426 180.23C255.586 180.403 255.699 180.613 255.766 180.86C255.832 181.1 255.866 181.367 255.866 181.66V184.91C255.786 184.923 255.672 184.943 255.526 184.97C255.386 184.99 255.226 185.01 255.046 185.03C254.866 185.05 254.669 185.067 254.456 185.08C254.249 185.1 254.042 185.11 253.836 185.11C253.542 185.11 253.272 185.08 253.026 185.02C252.779 184.96 252.566 184.867 252.386 184.74C252.206 184.607 252.066 184.433 251.966 184.22C251.866 184.007 251.816 183.75 251.816 183.45C251.816 183.163 251.872 182.917 251.986 182.71C252.106 182.503 252.266 182.337 252.466 182.21C252.666 182.083 252.899 181.99 253.166 181.93C253.432 181.87 253.712 181.84 254.006 181.84C254.099 181.84 254.196 181.847 254.296 181.86C254.396 181.867 254.489 181.88 254.576 181.9C254.669 181.913 254.749 181.927 254.816 181.94C254.882 181.953 254.929 181.963 254.956 181.97V181.71C254.956 181.557 254.939 181.407 254.906 181.26C254.872 181.107 254.812 180.973 254.726 180.86C254.639 180.74 254.519 180.647 254.366 180.58C254.219 180.507 254.026 180.47 253.786 180.47C253.479 180.47 253.209 180.493 252.976 180.54C252.749 180.58 252.579 180.623 252.466 180.67L252.356 179.9C252.476 179.847 252.676 179.797 252.956 179.75C253.236 179.697 253.539 179.67 253.866 179.67ZM261.235 184.3C261.275 184.307 261.331 184.313 261.405 184.32C261.478 184.327 261.561 184.333 261.655 184.34C261.748 184.34 261.845 184.343 261.945 184.35C262.051 184.35 262.151 184.35 262.245 184.35C262.438 184.35 262.621 184.337 262.795 184.31C262.975 184.283 263.128 184.237 263.255 184.17C263.388 184.103 263.491 184.017 263.565 183.91C263.645 183.797 263.685 183.653 263.685 183.48C263.685 183.313 263.648 183.177 263.575 183.07C263.508 182.957 263.415 182.867 263.295 182.8C263.175 182.733 263.031 182.687 262.865 182.66C262.705 182.633 262.531 182.62 262.345 182.62H261.235V184.3ZM262.225 181.93C262.405 181.93 262.568 181.92 262.715 181.9C262.868 181.873 262.998 181.83 263.105 181.77C263.218 181.71 263.305 181.63 263.365 181.53C263.431 181.43 263.465 181.303 263.465 181.15C263.465 180.99 263.425 180.863 263.345 180.77C263.265 180.677 263.158 180.607 263.025 180.56C262.898 180.507 262.751 180.473 262.585 180.46C262.425 180.44 262.261 180.43 262.095 180.43C261.941 180.43 261.785 180.433 261.625 180.44C261.471 180.447 261.341 180.453 261.235 180.46V181.93H262.225ZM262.205 185.09C261.811 185.09 261.448 185.07 261.115 185.03C260.781 184.997 260.518 184.957 260.325 184.91V179.85C260.518 179.803 260.781 179.763 261.115 179.73C261.448 179.69 261.811 179.67 262.205 179.67C262.478 179.67 262.745 179.693 263.005 179.74C263.265 179.787 263.495 179.867 263.695 179.98C263.895 180.087 264.055 180.237 264.175 180.43C264.301 180.617 264.365 180.85 264.365 181.13C264.365 181.383 264.301 181.6 264.175 181.78C264.048 181.96 263.878 182.1 263.665 182.2C263.951 182.3 264.178 182.45 264.345 182.65C264.518 182.843 264.605 183.117 264.605 183.47C264.605 183.783 264.541 184.043 264.415 184.25C264.295 184.457 264.125 184.623 263.905 184.75C263.691 184.877 263.438 184.963 263.145 185.01C262.851 185.063 262.538 185.09 262.205 185.09ZM268.363 185.12C267.943 185.12 267.573 185.053 267.253 184.92C266.94 184.787 266.673 184.6 266.453 184.36C266.24 184.12 266.08 183.837 265.973 183.51C265.867 183.177 265.813 182.81 265.813 182.41C265.813 182.01 265.87 181.643 265.983 181.31C266.103 180.977 266.27 180.69 266.483 180.45C266.697 180.203 266.957 180.013 267.263 179.88C267.577 179.74 267.923 179.67 268.303 179.67C268.537 179.67 268.77 179.69 269.003 179.73C269.237 179.77 269.46 179.833 269.673 179.92L269.463 180.71C269.323 180.643 269.16 180.59 268.973 180.55C268.793 180.51 268.6 180.49 268.393 180.49C267.873 180.49 267.473 180.653 267.193 180.98C266.92 181.307 266.783 181.783 266.783 182.41C266.783 182.69 266.813 182.947 266.873 183.18C266.94 183.413 267.04 183.613 267.173 183.78C267.313 183.947 267.49 184.077 267.703 184.17C267.917 184.257 268.177 184.3 268.483 184.3C268.73 184.3 268.953 184.277 269.153 184.23C269.353 184.183 269.51 184.133 269.623 184.08L269.753 184.86C269.7 184.893 269.623 184.927 269.523 184.96C269.423 184.987 269.31 185.01 269.183 185.03C269.057 185.057 268.92 185.077 268.773 185.09C268.633 185.11 268.497 185.12 268.363 185.12ZM273.202 182.98C273.102 182.98 273.005 182.98 272.912 182.98C272.818 182.973 272.728 182.967 272.642 182.96C272.428 183.28 272.222 183.623 272.022 183.99C271.828 184.35 271.655 184.687 271.502 185H270.562C270.642 184.807 270.735 184.61 270.842 184.41C270.948 184.203 271.055 184.003 271.162 183.81C271.275 183.617 271.388 183.433 271.502 183.26C271.615 183.087 271.722 182.93 271.822 182.79C271.635 182.723 271.482 182.643 271.362 182.55C271.242 182.45 271.145 182.34 271.072 182.22C270.998 182.1 270.945 181.973 270.912 181.84C270.885 181.7 270.872 181.56 270.872 181.42C270.872 181.127 270.925 180.87 271.032 180.65C271.145 180.43 271.298 180.25 271.492 180.11C271.685 179.963 271.912 179.853 272.172 179.78C272.438 179.707 272.728 179.67 273.042 179.67C273.482 179.67 273.855 179.69 274.162 179.73C274.468 179.77 274.725 179.817 274.932 179.87V185H274.012V182.98H273.202ZM274.012 180.49C273.938 180.477 273.815 180.463 273.642 180.45C273.475 180.437 273.282 180.43 273.062 180.43C272.682 180.43 272.375 180.51 272.142 180.67C271.908 180.823 271.792 181.07 271.792 181.41C271.792 181.743 271.912 181.973 272.152 182.1C272.392 182.227 272.702 182.29 273.082 182.29H274.012V180.49ZM278.73 182.17C278.937 182.317 279.16 182.503 279.4 182.73C279.64 182.95 279.874 183.19 280.1 183.45C280.334 183.71 280.55 183.977 280.75 184.25C280.95 184.517 281.12 184.767 281.26 185H280.16C280.014 184.773 279.84 184.543 279.64 184.31C279.447 184.07 279.244 183.84 279.03 183.62C278.817 183.4 278.6 183.197 278.38 183.01C278.16 182.823 277.954 182.667 277.76 182.54V185H276.83V179.8H277.76V182.03C277.92 181.877 278.104 181.7 278.31 181.5C278.517 181.293 278.724 181.087 278.93 180.88C279.144 180.667 279.34 180.467 279.52 180.28C279.7 180.087 279.847 179.927 279.96 179.8H281.04C280.894 179.96 280.72 180.143 280.52 180.35C280.327 180.55 280.124 180.757 279.91 180.97C279.704 181.183 279.497 181.397 279.29 181.61C279.084 181.817 278.897 182.003 278.73 182.17ZM286.798 182.4C286.798 182.813 286.738 183.187 286.618 183.52C286.498 183.853 286.328 184.14 286.108 184.38C285.895 184.62 285.638 184.807 285.338 184.94C285.038 185.067 284.712 185.13 284.358 185.13C284.005 185.13 283.678 185.067 283.378 184.94C283.078 184.807 282.818 184.62 282.598 184.38C282.385 184.14 282.218 183.853 282.098 183.52C281.978 183.187 281.918 182.813 281.918 182.4C281.918 181.993 281.978 181.623 282.098 181.29C282.218 180.95 282.385 180.66 282.598 180.42C282.818 180.18 283.078 179.997 283.378 179.87C283.678 179.737 284.005 179.67 284.358 179.67C284.712 179.67 285.038 179.737 285.338 179.87C285.638 179.997 285.895 180.18 286.108 180.42C286.328 180.66 286.498 180.95 286.618 181.29C286.738 181.623 286.798 181.993 286.798 182.4ZM285.828 182.4C285.828 181.813 285.695 181.35 285.428 181.01C285.168 180.663 284.812 180.49 284.358 180.49C283.905 180.49 283.545 180.663 283.278 181.01C283.018 181.35 282.888 181.813 282.888 182.4C282.888 182.987 283.018 183.453 283.278 183.8C283.545 184.14 283.905 184.31 284.358 184.31C284.812 184.31 285.168 184.14 285.428 183.8C285.695 183.453 285.828 182.987 285.828 182.4ZM291.151 179.5C291.531 179.353 291.901 179.167 292.261 178.94C292.621 178.707 292.951 178.417 293.251 178.07H293.911V185H292.981V179.36C292.901 179.433 292.801 179.51 292.681 179.59C292.568 179.67 292.441 179.747 292.301 179.82C292.168 179.893 292.025 179.963 291.871 180.03C291.725 180.097 291.581 180.153 291.441 180.2L291.151 179.5ZM297.876 184.3C297.916 184.307 297.972 184.313 298.046 184.32C298.119 184.327 298.202 184.333 298.296 184.34C298.389 184.34 298.486 184.343 298.586 184.35C298.692 184.35 298.792 184.35 298.886 184.35C299.079 184.35 299.262 184.337 299.436 184.31C299.616 184.283 299.769 184.237 299.896 184.17C300.029 184.103 300.132 184.017 300.206 183.91C300.286 183.797 300.326 183.653 300.326 183.48C300.326 183.313 300.289 183.177 300.216 183.07C300.149 182.957 300.056 182.867 299.936 182.8C299.816 182.733 299.672 182.687 299.506 182.66C299.346 182.633 299.172 182.62 298.986 182.62H297.876V184.3ZM298.866 181.93C299.046 181.93 299.209 181.92 299.356 181.9C299.509 181.873 299.639 181.83 299.746 181.77C299.859 181.71 299.946 181.63 300.006 181.53C300.072 181.43 300.106 181.303 300.106 181.15C300.106 180.99 300.066 180.863 299.986 180.77C299.906 180.677 299.799 180.607 299.666 180.56C299.539 180.507 299.392 180.473 299.226 180.46C299.066 180.44 298.902 180.43 298.736 180.43C298.582 180.43 298.426 180.433 298.266 180.44C298.112 180.447 297.982 180.453 297.876 180.46V181.93H298.866ZM298.846 185.09C298.452 185.09 298.089 185.07 297.756 185.03C297.422 184.997 297.159 184.957 296.966 184.91V179.85C297.159 179.803 297.422 179.763 297.756 179.73C298.089 179.69 298.452 179.67 298.846 179.67C299.119 179.67 299.386 179.693 299.646 179.74C299.906 179.787 300.136 179.867 300.336 179.98C300.536 180.087 300.696 180.237 300.816 180.43C300.942 180.617 301.006 180.85 301.006 181.13C301.006 181.383 300.942 181.6 300.816 181.78C300.689 181.96 300.519 182.1 300.306 182.2C300.592 182.3 300.819 182.45 300.986 182.65C301.159 182.843 301.246 183.117 301.246 183.47C301.246 183.783 301.182 184.043 301.056 184.25C300.936 184.457 300.766 184.623 300.546 184.75C300.332 184.877 300.079 184.963 299.786 185.01C299.492 185.063 299.179 185.09 298.846 185.09ZM307.334 182.4C307.334 182.813 307.274 183.187 307.154 183.52C307.034 183.853 306.864 184.14 306.644 184.38C306.431 184.62 306.174 184.807 305.874 184.94C305.574 185.067 305.248 185.13 304.894 185.13C304.541 185.13 304.214 185.067 303.914 184.94C303.614 184.807 303.354 184.62 303.134 184.38C302.921 184.14 302.754 183.853 302.634 183.52C302.514 183.187 302.454 182.813 302.454 182.4C302.454 181.993 302.514 181.623 302.634 181.29C302.754 180.95 302.921 180.66 303.134 180.42C303.354 180.18 303.614 179.997 303.914 179.87C304.214 179.737 304.541 179.67 304.894 179.67C305.248 179.67 305.574 179.737 305.874 179.87C306.174 179.997 306.431 180.18 306.644 180.42C306.864 180.66 307.034 180.95 307.154 181.29C307.274 181.623 307.334 181.993 307.334 182.4ZM306.364 182.4C306.364 181.813 306.231 181.35 305.964 181.01C305.704 180.663 305.348 180.49 304.894 180.49C304.441 180.49 304.081 180.663 303.814 181.01C303.554 181.35 303.424 181.813 303.424 182.4C303.424 182.987 303.554 183.453 303.814 183.8C304.081 184.14 304.441 184.31 304.894 184.31C305.348 184.31 305.704 184.14 305.964 183.8C306.231 183.453 306.364 182.987 306.364 182.4ZM312.147 179.8V181.33C312.147 181.723 312.247 182 312.447 182.16C312.647 182.313 312.921 182.39 313.267 182.39C313.521 182.39 313.731 182.377 313.897 182.35C314.071 182.323 314.224 182.293 314.357 182.26V179.8H315.287V185H314.357V182.98C314.304 182.993 314.234 183.01 314.147 183.03C314.061 183.05 313.961 183.07 313.847 183.09C313.741 183.103 313.627 183.117 313.507 183.13C313.387 183.143 313.271 183.15 313.157 183.15C312.871 183.15 312.607 183.12 312.367 183.06C312.134 183 311.931 182.9 311.757 182.76C311.591 182.62 311.457 182.437 311.357 182.21C311.264 181.977 311.217 181.687 311.217 181.34V179.8H312.147ZM321.559 179.8V185H320.659V181.04C320.459 181.293 320.239 181.59 319.999 181.93C319.759 182.27 319.519 182.623 319.279 182.99C319.039 183.35 318.809 183.707 318.589 184.06C318.369 184.413 318.179 184.727 318.019 185H317.189V179.8H318.089V183.54C318.263 183.253 318.459 182.94 318.679 182.6C318.899 182.253 319.126 181.913 319.359 181.58C319.599 181.24 319.836 180.917 320.069 180.61C320.309 180.297 320.533 180.027 320.739 179.8H321.559ZM325.716 185.12C325.296 185.12 324.926 185.053 324.606 184.92C324.293 184.787 324.026 184.6 323.806 184.36C323.593 184.12 323.433 183.837 323.326 183.51C323.219 183.177 323.166 182.81 323.166 182.41C323.166 182.01 323.223 181.643 323.336 181.31C323.456 180.977 323.623 180.69 323.836 180.45C324.049 180.203 324.309 180.013 324.616 179.88C324.929 179.74 325.276 179.67 325.656 179.67C325.889 179.67 326.123 179.69 326.356 179.73C326.589 179.77 326.813 179.833 327.026 179.92L326.816 180.71C326.676 180.643 326.513 180.59 326.326 180.55C326.146 180.51 325.953 180.49 325.746 180.49C325.226 180.49 324.826 180.653 324.546 180.98C324.273 181.307 324.136 181.783 324.136 182.41C324.136 182.69 324.166 182.947 324.226 183.18C324.293 183.413 324.393 183.613 324.526 183.78C324.666 183.947 324.843 184.077 325.056 184.17C325.269 184.257 325.529 184.3 325.836 184.3C326.083 184.3 326.306 184.277 326.506 184.23C326.706 184.183 326.863 184.133 326.976 184.08L327.106 184.86C327.053 184.893 326.976 184.927 326.876 184.96C326.776 184.987 326.663 185.01 326.536 185.03C326.409 185.057 326.273 185.077 326.126 185.09C325.986 185.11 325.849 185.12 325.716 185.12ZM330.4 180.58C330.4 180.8 330.393 181.037 330.38 181.29C330.373 181.537 330.357 181.787 330.33 182.04C330.303 182.287 330.267 182.533 330.22 182.78C330.173 183.02 330.113 183.247 330.04 183.46C329.967 183.673 329.873 183.873 329.76 184.06C329.653 184.247 329.52 184.413 329.36 184.56C329.2 184.7 329.013 184.82 328.8 184.92C328.587 185.013 328.337 185.073 328.05 185.1L327.92 184.32C328.247 184.253 328.503 184.13 328.69 183.95C328.883 183.77 329.037 183.55 329.15 183.29C329.25 183.063 329.323 182.807 329.37 182.52C329.417 182.233 329.45 181.937 329.47 181.63C329.49 181.317 329.5 181.003 329.5 180.69C329.507 180.377 329.51 180.08 329.51 179.8H332.97V185H332.04V180.58H330.4ZM339.457 182.4C339.457 182.813 339.397 183.187 339.277 183.52C339.157 183.853 338.987 184.14 338.767 184.38C338.553 184.62 338.297 184.807 337.997 184.94C337.697 185.067 337.37 185.13 337.017 185.13C336.663 185.13 336.337 185.067 336.037 184.94C335.737 184.807 335.477 184.62 335.257 184.38C335.043 184.14 334.877 183.853 334.757 183.52C334.637 183.187 334.577 182.813 334.577 182.4C334.577 181.993 334.637 181.623 334.757 181.29C334.877 180.95 335.043 180.66 335.257 180.42C335.477 180.18 335.737 179.997 336.037 179.87C336.337 179.737 336.663 179.67 337.017 179.67C337.37 179.67 337.697 179.737 337.997 179.87C338.297 179.997 338.553 180.18 338.767 180.42C338.987 180.66 339.157 180.95 339.277 181.29C339.397 181.623 339.457 181.993 339.457 182.4ZM338.487 182.4C338.487 181.813 338.353 181.35 338.087 181.01C337.827 180.663 337.47 180.49 337.017 180.49C336.563 180.49 336.203 180.663 335.937 181.01C335.677 181.35 335.547 181.813 335.547 182.4C335.547 182.987 335.677 183.453 335.937 183.8C336.203 184.14 336.563 184.31 337.017 184.31C337.47 184.31 337.827 184.14 338.087 183.8C338.353 183.453 338.487 182.987 338.487 182.4Z" fill="white"/>
<rect x="174" y="178.854" width="42.1464" height="4.81482" rx="1" fill="#111928"/>
<path d="M184.473 80.07C184.267 80.2967 184.033 80.55 183.773 80.83C183.513 81.1033 183.24 81.3867 182.953 81.68C182.673 81.9667 182.393 82.25 182.113 82.53C181.833 82.81 181.57 83.07 181.323 83.31C181.61 83.51 181.913 83.7567 182.233 84.05C182.553 84.3433 182.867 84.6567 183.173 84.99C183.48 85.3233 183.767 85.6633 184.033 86.01C184.307 86.3567 184.533 86.6867 184.713 87H183.573C183.373 86.6867 183.143 86.3733 182.883 86.06C182.623 85.74 182.347 85.4367 182.053 85.15C181.767 84.8567 181.473 84.5867 181.173 84.34C180.88 84.0933 180.593 83.8833 180.313 83.71V87H179.343V80.07H180.313V83.13C180.547 82.91 180.803 82.6633 181.083 82.39C181.363 82.11 181.64 81.83 181.913 81.55C182.187 81.27 182.443 81.0033 182.683 80.75C182.93 80.49 183.137 80.2633 183.303 80.07H184.473ZM187.636 82.58C187.636 82.8 187.63 83.0367 187.616 83.29C187.61 83.5367 187.593 83.7867 187.566 84.04C187.54 84.2867 187.503 84.5333 187.456 84.78C187.41 85.02 187.35 85.2467 187.276 85.46C187.203 85.6733 187.11 85.8733 186.996 86.06C186.89 86.2467 186.756 86.4133 186.596 86.56C186.436 86.7 186.25 86.82 186.036 86.92C185.823 87.0133 185.573 87.0733 185.286 87.1L185.156 86.32C185.483 86.2533 185.74 86.13 185.926 85.95C186.12 85.77 186.273 85.55 186.386 85.29C186.486 85.0633 186.56 84.8067 186.606 84.52C186.653 84.2333 186.686 83.9367 186.706 83.63C186.726 83.3167 186.736 83.0033 186.736 82.69C186.743 82.3767 186.746 82.08 186.746 81.8H190.206V87H189.276V82.58H187.636ZM196.173 81.8V87H195.273V83.04C195.073 83.2933 194.853 83.59 194.613 83.93C194.373 84.27 194.133 84.6233 193.893 84.99C193.653 85.35 193.423 85.7067 193.203 86.06C192.983 86.4133 192.793 86.7267 192.633 87H191.803V81.8H192.703V85.54C192.876 85.2533 193.073 84.94 193.293 84.6C193.513 84.2533 193.74 83.9133 193.973 83.58C194.213 83.24 194.45 82.9167 194.683 82.61C194.923 82.2967 195.146 82.0267 195.353 81.8H196.173ZM197.48 84.41C197.48 83.95 197.546 83.55 197.68 83.21C197.813 82.8633 197.99 82.5767 198.21 82.35C198.43 82.1233 198.683 81.9533 198.97 81.84C199.256 81.7267 199.55 81.67 199.85 81.67C200.55 81.67 201.086 81.89 201.46 82.33C201.833 82.7633 202.02 83.4267 202.02 84.32C202.02 84.36 202.02 84.4133 202.02 84.48C202.02 84.54 202.016 84.5967 202.01 84.65H198.45C198.49 85.19 198.646 85.6 198.92 85.88C199.193 86.16 199.62 86.3 200.2 86.3C200.526 86.3 200.8 86.2733 201.02 86.22C201.246 86.16 201.416 86.1033 201.53 86.05L201.66 86.83C201.546 86.89 201.346 86.9533 201.06 87.02C200.78 87.0867 200.46 87.12 200.1 87.12C199.646 87.12 199.253 87.0533 198.92 86.92C198.593 86.78 198.323 86.59 198.11 86.35C197.896 86.11 197.736 85.8267 197.63 85.5C197.53 85.1667 197.48 84.8033 197.48 84.41ZM201.05 83.9C201.056 83.48 200.95 83.1367 200.73 82.87C200.516 82.5967 200.22 82.46 199.84 82.46C199.626 82.46 199.436 82.5033 199.27 82.59C199.11 82.67 198.973 82.7767 198.86 82.91C198.746 83.0433 198.656 83.1967 198.59 83.37C198.53 83.5433 198.49 83.72 198.47 83.9H201.05ZM207.616 87H206.686V84.7H204.286V87H203.356V81.8H204.286V83.92H206.686V81.8H207.616V87ZM212.885 81.8V82.58H211.195V87H210.265V82.58H208.575V81.8H212.885Z" fill="#A9BADA"/>
<path d="M109.244 80.07C109.037 80.2967 108.804 80.55 108.544 80.83C108.284 81.1033 108.011 81.3867 107.724 81.68C107.444 81.9667 107.164 82.25 106.884 82.53C106.604 82.81 106.341 83.07 106.094 83.31C106.381 83.51 106.684 83.7567 107.004 84.05C107.324 84.3433 107.637 84.6567 107.944 84.99C108.251 85.3233 108.537 85.6633 108.804 86.01C109.077 86.3567 109.304 86.6867 109.484 87H108.344C108.144 86.6867 107.914 86.3733 107.654 86.06C107.394 85.74 107.117 85.4367 106.824 85.15C106.537 84.8567 106.244 84.5867 105.944 84.34C105.651 84.0933 105.364 83.8833 105.084 83.71V87H104.114V80.07H105.084V83.13C105.317 82.91 105.574 82.6633 105.854 82.39C106.134 82.11 106.411 81.83 106.684 81.55C106.957 81.27 107.214 81.0033 107.454 80.75C107.701 80.49 107.907 80.2633 108.074 80.07H109.244ZM112.103 86.33C112.323 86.33 112.516 86.3267 112.683 86.32C112.856 86.3067 113 86.2867 113.113 86.26V84.71C113.046 84.6767 112.936 84.65 112.783 84.63C112.636 84.6033 112.456 84.59 112.243 84.59C112.103 84.59 111.953 84.6 111.793 84.62C111.64 84.64 111.496 84.6833 111.363 84.75C111.236 84.81 111.13 84.8967 111.043 85.01C110.956 85.1167 110.913 85.26 110.913 85.44C110.913 85.7733 111.02 86.0067 111.233 86.14C111.446 86.2667 111.736 86.33 112.103 86.33ZM112.023 81.67C112.396 81.67 112.71 81.72 112.963 81.82C113.223 81.9133 113.43 82.05 113.583 82.23C113.743 82.4033 113.856 82.6133 113.923 82.86C113.99 83.1 114.023 83.3667 114.023 83.66V86.91C113.943 86.9233 113.83 86.9433 113.683 86.97C113.543 86.99 113.383 87.01 113.203 87.03C113.023 87.05 112.826 87.0667 112.613 87.08C112.406 87.1 112.2 87.11 111.993 87.11C111.7 87.11 111.43 87.08 111.183 87.02C110.936 86.96 110.723 86.8667 110.543 86.74C110.363 86.6067 110.223 86.4333 110.123 86.22C110.023 86.0067 109.973 85.75 109.973 85.45C109.973 85.1633 110.03 84.9167 110.143 84.71C110.263 84.5033 110.423 84.3367 110.623 84.21C110.823 84.0833 111.056 83.99 111.323 83.93C111.59 83.87 111.87 83.84 112.163 83.84C112.256 83.84 112.353 83.8467 112.453 83.86C112.553 83.8667 112.646 83.88 112.733 83.9C112.826 83.9133 112.906 83.9267 112.973 83.94C113.04 83.9533 113.086 83.9633 113.113 83.97V83.71C113.113 83.5567 113.096 83.4067 113.063 83.26C113.03 83.1067 112.97 82.9733 112.883 82.86C112.796 82.74 112.676 82.6467 112.523 82.58C112.376 82.5067 112.183 82.47 111.943 82.47C111.636 82.47 111.366 82.4933 111.133 82.54C110.906 82.58 110.736 82.6233 110.623 82.67L110.513 81.9C110.633 81.8467 110.833 81.7967 111.113 81.75C111.393 81.6967 111.696 81.67 112.023 81.67ZM119.238 81.8V82.58H117.548V87H116.618V82.58H114.928V81.8H119.238ZM119.906 84.41C119.906 83.95 119.973 83.55 120.106 83.21C120.24 82.8633 120.416 82.5767 120.636 82.35C120.856 82.1233 121.11 81.9533 121.396 81.84C121.683 81.7267 121.976 81.67 122.276 81.67C122.976 81.67 123.513 81.89 123.886 82.33C124.26 82.7633 124.446 83.4267 124.446 84.32C124.446 84.36 124.446 84.4133 124.446 84.48C124.446 84.54 124.443 84.5967 124.436 84.65H120.876C120.916 85.19 121.073 85.6 121.346 85.88C121.62 86.16 122.046 86.3 122.626 86.3C122.953 86.3 123.226 86.2733 123.446 86.22C123.673 86.16 123.843 86.1033 123.956 86.05L124.086 86.83C123.973 86.89 123.773 86.9533 123.486 87.02C123.206 87.0867 122.886 87.12 122.526 87.12C122.073 87.12 121.68 87.0533 121.346 86.92C121.02 86.78 120.75 86.59 120.536 86.35C120.323 86.11 120.163 85.8267 120.056 85.5C119.956 85.1667 119.906 84.8033 119.906 84.41ZM123.476 83.9C123.483 83.48 123.376 83.1367 123.156 82.87C122.943 82.5967 122.646 82.46 122.266 82.46C122.053 82.46 121.863 82.5033 121.696 82.59C121.536 82.67 121.4 82.7767 121.286 82.91C121.173 83.0433 121.083 83.1967 121.016 83.37C120.956 83.5433 120.916 83.72 120.896 83.9H123.476ZM129.002 82.58H126.712V87H125.782V81.8H129.002V82.58ZM134.552 84.4C134.552 84.8133 134.492 85.1867 134.372 85.52C134.252 85.8533 134.082 86.14 133.862 86.38C133.649 86.62 133.392 86.8067 133.092 86.94C132.792 87.0667 132.465 87.13 132.112 87.13C131.759 87.13 131.432 87.0667 131.132 86.94C130.832 86.8067 130.572 86.62 130.352 86.38C130.139 86.14 129.972 85.8533 129.852 85.52C129.732 85.1867 129.672 84.8133 129.672 84.4C129.672 83.9933 129.732 83.6233 129.852 83.29C129.972 82.95 130.139 82.66 130.352 82.42C130.572 82.18 130.832 81.9967 131.132 81.87C131.432 81.7367 131.759 81.67 132.112 81.67C132.465 81.67 132.792 81.7367 133.092 81.87C133.392 81.9967 133.649 82.18 133.862 82.42C134.082 82.66 134.252 82.95 134.372 83.29C134.492 83.6233 134.552 83.9933 134.552 84.4ZM133.582 84.4C133.582 83.8133 133.449 83.35 133.182 83.01C132.922 82.6633 132.565 82.49 132.112 82.49C131.659 82.49 131.299 82.6633 131.032 83.01C130.772 83.35 130.642 83.8133 130.642 84.4C130.642 84.9867 130.772 85.4533 131.032 85.8C131.299 86.14 131.659 86.31 132.112 86.31C132.565 86.31 132.922 86.14 133.182 85.8C133.449 85.4533 133.582 84.9867 133.582 84.4ZM139.471 84.41C139.471 83.8033 139.321 83.3367 139.021 83.01C138.721 82.6833 138.321 82.52 137.821 82.52C137.541 82.52 137.321 82.53 137.161 82.55C137.007 82.57 136.884 82.5933 136.791 82.62V85.9C136.904 85.9933 137.067 86.0833 137.281 86.17C137.494 86.2567 137.727 86.3 137.981 86.3C138.247 86.3 138.474 86.2533 138.661 86.16C138.854 86.06 139.011 85.9267 139.131 85.76C139.251 85.5867 139.337 85.3867 139.391 85.16C139.444 84.9267 139.471 84.6767 139.471 84.41ZM140.441 84.41C140.441 84.8033 140.387 85.1667 140.281 85.5C140.181 85.8333 140.031 86.12 139.831 86.36C139.631 86.6 139.384 86.7867 139.091 86.92C138.804 87.0533 138.474 87.12 138.101 87.12C137.801 87.12 137.534 87.08 137.301 87C137.074 86.92 136.904 86.8433 136.791 86.77V88.85H135.861V81.96C136.081 81.9067 136.354 81.85 136.681 81.79C137.014 81.7233 137.397 81.69 137.831 81.69C138.231 81.69 138.591 81.7533 138.911 81.88C139.231 82.0067 139.504 82.1867 139.731 82.42C139.957 82.6533 140.131 82.94 140.251 83.28C140.377 83.6133 140.441 83.99 140.441 84.41ZM146.119 81.8V87H145.219V83.04C145.019 83.2933 144.799 83.59 144.559 83.93C144.319 84.27 144.079 84.6233 143.839 84.99C143.599 85.35 143.369 85.7067 143.149 86.06C142.929 86.4133 142.739 86.7267 142.579 87H141.749V81.8H142.649V85.54C142.823 85.2533 143.019 84.94 143.239 84.6C143.459 84.2533 143.686 83.9133 143.919 83.58C144.159 83.24 144.396 82.9167 144.629 82.61C144.869 82.2967 145.093 82.0267 145.299 81.8H146.119ZM149.866 84.98C149.766 84.98 149.669 84.98 149.576 84.98C149.483 84.9733 149.393 84.9667 149.306 84.96C149.093 85.28 148.886 85.6233 148.686 85.99C148.493 86.35 148.319 86.6867 148.166 87H147.226C147.306 86.8067 147.399 86.61 147.506 86.41C147.613 86.2033 147.719 86.0033 147.826 85.81C147.939 85.6167 148.053 85.4333 148.166 85.26C148.279 85.0867 148.386 84.93 148.486 84.79C148.299 84.7233 148.146 84.6433 148.026 84.55C147.906 84.45 147.809 84.34 147.736 84.22C147.663 84.1 147.609 83.9733 147.576 83.84C147.549 83.7 147.536 83.56 147.536 83.42C147.536 83.1267 147.589 82.87 147.696 82.65C147.809 82.43 147.963 82.25 148.156 82.11C148.349 81.9633 148.576 81.8533 148.836 81.78C149.103 81.7067 149.393 81.67 149.706 81.67C150.146 81.67 150.519 81.69 150.826 81.73C151.133 81.77 151.389 81.8167 151.596 81.87V87H150.676V84.98H149.866ZM150.676 82.49C150.603 82.4767 150.479 82.4633 150.306 82.45C150.139 82.4367 149.946 82.43 149.726 82.43C149.346 82.43 149.039 82.51 148.806 82.67C148.573 82.8233 148.456 83.07 148.456 83.41C148.456 83.7433 148.576 83.9733 148.816 84.1C149.056 84.2267 149.366 84.29 149.746 84.29H150.676V82.49Z" fill="#A9BADA"/>
<path d="M32.1137 87V88.85H31.1937V86.17H31.9237C32.2637 85.7833 32.5237 85.3567 32.7037 84.89C32.8904 84.4167 33.0237 83.92 33.1037 83.4C33.1904 82.8733 33.2404 82.33 33.2537 81.77C33.2737 81.21 33.287 80.6433 33.2937 80.07H37.2137V86.17H38.0837V88.85H37.1637V87H32.1137ZM34.2437 80.9C34.2237 81.34 34.2004 81.79 34.1737 82.25C34.1537 82.7033 34.1037 83.1567 34.0237 83.61C33.9504 84.0567 33.8404 84.4967 33.6937 84.93C33.547 85.3633 33.3404 85.7767 33.0737 86.17H36.2437V80.9H34.2437ZM43.6503 84.4C43.6503 84.8133 43.5903 85.1867 43.4703 85.52C43.3503 85.8533 43.1803 86.14 42.9603 86.38C42.7469 86.62 42.4903 86.8067 42.1903 86.94C41.8903 87.0667 41.5636 87.13 41.2103 87.13C40.8569 87.13 40.5303 87.0667 40.2303 86.94C39.9303 86.8067 39.6703 86.62 39.4503 86.38C39.2369 86.14 39.0703 85.8533 38.9503 85.52C38.8303 85.1867 38.7703 84.8133 38.7703 84.4C38.7703 83.9933 38.8303 83.6233 38.9503 83.29C39.0703 82.95 39.2369 82.66 39.4503 82.42C39.6703 82.18 39.9303 81.9967 40.2303 81.87C40.5303 81.7367 40.8569 81.67 41.2103 81.67C41.5636 81.67 41.8903 81.7367 42.1903 81.87C42.4903 81.9967 42.7469 82.18 42.9603 82.42C43.1803 82.66 43.3503 82.95 43.4703 83.29C43.5903 83.6233 43.6503 83.9933 43.6503 84.4ZM42.6803 84.4C42.6803 83.8133 42.5469 83.35 42.2803 83.01C42.0203 82.6633 41.6636 82.49 41.2103 82.49C40.7569 82.49 40.3969 82.6633 40.1303 83.01C39.8703 83.35 39.7403 83.8133 39.7403 84.4C39.7403 84.9867 39.8703 85.4533 40.1303 85.8C40.3969 86.14 40.7569 86.31 41.2103 86.31C41.6636 86.31 42.0203 86.14 42.2803 85.8C42.5469 85.4533 42.6803 84.9867 42.6803 84.4ZM46.8587 84.17C47.0654 84.3167 47.2887 84.5033 47.5287 84.73C47.7687 84.95 48.002 85.19 48.2287 85.45C48.462 85.71 48.6787 85.9767 48.8787 86.25C49.0787 86.5167 49.2487 86.7667 49.3887 87H48.2887C48.142 86.7733 47.9687 86.5433 47.7687 86.31C47.5754 86.07 47.372 85.84 47.1587 85.62C46.9454 85.4 46.7287 85.1967 46.5087 85.01C46.2887 84.8233 46.082 84.6667 45.8887 84.54V87H44.9587V81.8H45.8887V84.03C46.0487 83.8767 46.232 83.7 46.4387 83.5C46.6454 83.2933 46.852 83.0867 47.0587 82.88C47.272 82.6667 47.4687 82.4667 47.6487 82.28C47.8287 82.0867 47.9754 81.9267 48.0887 81.8H49.1687C49.022 81.96 48.8487 82.1433 48.6487 82.35C48.4554 82.55 48.252 82.7567 48.0387 82.97C47.832 83.1833 47.6254 83.3967 47.4187 83.61C47.212 83.8167 47.0254 84.0033 46.8587 84.17ZM49.7198 87.97C49.7931 88.0033 49.8865 88.0333 49.9998 88.06C50.1198 88.0933 50.2365 88.11 50.3498 88.11C50.7165 88.11 51.0031 88.0267 51.2098 87.86C51.4165 87.7 51.6031 87.4367 51.7698 87.07C51.3498 86.27 50.9565 85.4233 50.5898 84.53C50.2298 83.63 49.9298 82.72 49.6898 81.8H50.6898C50.7631 82.1 50.8498 82.4233 50.9498 82.77C51.0565 83.1167 51.1731 83.4733 51.2998 83.84C51.4265 84.2067 51.5631 84.5733 51.7098 84.94C51.8565 85.3067 52.0098 85.66 52.1698 86C52.4231 85.3 52.6431 84.6067 52.8298 83.92C53.0165 83.2333 53.1931 82.5267 53.3598 81.8H54.3198C54.0798 82.78 53.8131 83.7233 53.5198 84.63C53.2265 85.53 52.9098 86.3733 52.5698 87.16C52.4365 87.46 52.2965 87.7167 52.1498 87.93C52.0098 88.15 51.8531 88.33 51.6798 88.47C51.5065 88.61 51.3098 88.7133 51.0898 88.78C50.8765 88.8467 50.6331 88.88 50.3598 88.88C50.2865 88.88 50.2098 88.8733 50.1298 88.86C50.0498 88.8533 49.9698 88.84 49.8898 88.82C49.8165 88.8067 49.7465 88.79 49.6798 88.77C49.6198 88.75 49.5765 88.7333 49.5498 88.72L49.7198 87.97ZM56.2905 83.17C56.2238 83.83 56.1738 84.49 56.1405 85.15C56.1072 85.8033 56.0805 86.42 56.0605 87H55.1705C55.1838 86.5933 55.2038 86.17 55.2305 85.73C55.2572 85.2833 55.2872 84.8367 55.3205 84.39C55.3538 83.9367 55.3905 83.4933 55.4305 83.06C55.4705 82.62 55.5138 82.2 55.5605 81.8H56.4105C56.6238 82.1467 56.8738 82.6233 57.1605 83.23C57.4472 83.83 57.7772 84.5233 58.1505 85.31C58.5238 84.5233 58.8538 83.83 59.1405 83.23C59.4272 82.6233 59.6772 82.1467 59.8905 81.8H60.7505C60.7972 82.2 60.8405 82.62 60.8805 83.06C60.9205 83.4933 60.9572 83.9367 60.9905 84.39C61.0238 84.8367 61.0538 85.2833 61.0805 85.73C61.1072 86.17 61.1272 86.5933 61.1405 87H60.2205C60.2005 86.42 60.1738 85.8033 60.1405 85.15C60.1072 84.49 60.0572 83.83 59.9905 83.17C59.8838 83.3767 59.7605 83.6267 59.6205 83.92C59.4805 84.2067 59.3405 84.5 59.2005 84.8C59.0672 85.1 58.9405 85.3867 58.8205 85.66C58.7005 85.9333 58.6072 86.15 58.5405 86.31H57.7605C57.6872 86.1433 57.5872 85.9233 57.4605 85.65C57.3405 85.3767 57.2105 85.09 57.0705 84.79C56.9372 84.4833 56.8005 84.1867 56.6605 83.9C56.5205 83.6067 56.3972 83.3633 56.2905 83.17ZM62.3249 84.41C62.3249 83.95 62.3916 83.55 62.5249 83.21C62.6583 82.8633 62.8349 82.5767 63.0549 82.35C63.2749 82.1233 63.5283 81.9533 63.8149 81.84C64.1016 81.7267 64.3949 81.67 64.6949 81.67C65.3949 81.67 65.9316 81.89 66.3049 82.33C66.6783 82.7633 66.8649 83.4267 66.8649 84.32C66.8649 84.36 66.8649 84.4133 66.8649 84.48C66.8649 84.54 66.8616 84.5967 66.8549 84.65H63.2949C63.3349 85.19 63.4916 85.6 63.7649 85.88C64.0383 86.16 64.4649 86.3 65.0449 86.3C65.3716 86.3 65.6449 86.2733 65.8649 86.22C66.0916 86.16 66.2616 86.1033 66.3749 86.05L66.5049 86.83C66.3916 86.89 66.1916 86.9533 65.9049 87.02C65.6249 87.0867 65.3049 87.12 64.9449 87.12C64.4916 87.12 64.0983 87.0533 63.7649 86.92C63.4383 86.78 63.1683 86.59 62.9549 86.35C62.7416 86.11 62.5816 85.8267 62.4749 85.5C62.3749 85.1667 62.3249 84.8033 62.3249 84.41ZM65.8949 83.9C65.9016 83.48 65.7949 83.1367 65.5749 82.87C65.3616 82.5967 65.0649 82.46 64.6849 82.46C64.4716 82.46 64.2816 82.5033 64.1149 82.59C63.9549 82.67 63.8183 82.7767 63.7049 82.91C63.5916 83.0433 63.5016 83.1967 63.4349 83.37C63.3749 83.5433 63.3349 83.72 63.3149 83.9H65.8949ZM72.4609 87H71.5309V84.7H69.1309V87H68.2009V81.8H69.1309V83.92H71.5309V81.8H72.4609V87ZM77.7303 81.8V82.58H76.0403V87H75.1103V82.58H73.4203V81.8H77.7303Z" fill="#A9BADA"/>
<path d="M274.311 82.07C274.311 82.35 274.334 82.5967 274.381 82.81C274.434 83.0167 274.521 83.19 274.641 83.33C274.767 83.4633 274.934 83.5633 275.141 83.63C275.354 83.6967 275.621 83.73 275.941 83.73C276.067 83.73 276.194 83.7267 276.321 83.72C276.454 83.7067 276.581 83.6933 276.701 83.68C276.821 83.6667 276.927 83.65 277.021 83.63C277.114 83.61 277.191 83.5933 277.251 83.58V80.07H278.221V87H277.251V84.42C277.124 84.4533 276.927 84.4867 276.661 84.52C276.401 84.5533 276.121 84.57 275.821 84.57C275.314 84.57 274.901 84.5133 274.581 84.4C274.261 84.28 274.007 84.1133 273.821 83.9C273.641 83.68 273.517 83.4167 273.451 83.11C273.384 82.7967 273.351 82.45 273.351 82.07V80.07H274.311V82.07ZM279.589 84.41C279.589 83.95 279.656 83.55 279.789 83.21C279.922 82.8633 280.099 82.5767 280.319 82.35C280.539 82.1233 280.792 81.9533 281.079 81.84C281.366 81.7267 281.659 81.67 281.959 81.67C282.659 81.67 283.196 81.89 283.569 82.33C283.942 82.7633 284.129 83.4267 284.129 84.32C284.129 84.36 284.129 84.4133 284.129 84.48C284.129 84.54 284.126 84.5967 284.119 84.65H280.559C280.599 85.19 280.756 85.6 281.029 85.88C281.302 86.16 281.729 86.3 282.309 86.3C282.636 86.3 282.909 86.2733 283.129 86.22C283.356 86.16 283.526 86.1033 283.639 86.05L283.769 86.83C283.656 86.89 283.456 86.9533 283.169 87.02C282.889 87.0867 282.569 87.12 282.209 87.12C281.756 87.12 281.362 87.0533 281.029 86.92C280.702 86.78 280.432 86.59 280.219 86.35C280.006 86.11 279.846 85.8267 279.739 85.5C279.639 85.1667 279.589 84.8033 279.589 84.41ZM283.159 83.9C283.166 83.48 283.059 83.1367 282.839 82.87C282.626 82.5967 282.329 82.46 281.949 82.46C281.736 82.46 281.546 82.5033 281.379 82.59C281.219 82.67 281.082 82.7767 280.969 82.91C280.856 83.0433 280.766 83.1967 280.699 83.37C280.639 83.5433 280.599 83.72 280.579 83.9H283.159ZM287.725 87.12C287.305 87.12 286.935 87.0533 286.615 86.92C286.302 86.7867 286.035 86.6 285.815 86.36C285.602 86.12 285.442 85.8367 285.335 85.51C285.228 85.1767 285.175 84.81 285.175 84.41C285.175 84.01 285.232 83.6433 285.345 83.31C285.465 82.9767 285.632 82.69 285.845 82.45C286.058 82.2033 286.318 82.0133 286.625 81.88C286.938 81.74 287.285 81.67 287.665 81.67C287.898 81.67 288.132 81.69 288.365 81.73C288.598 81.77 288.822 81.8333 289.035 81.92L288.825 82.71C288.685 82.6433 288.522 82.59 288.335 82.55C288.155 82.51 287.962 82.49 287.755 82.49C287.235 82.49 286.835 82.6533 286.555 82.98C286.282 83.3067 286.145 83.7833 286.145 84.41C286.145 84.69 286.175 84.9467 286.235 85.18C286.302 85.4133 286.402 85.6133 286.535 85.78C286.675 85.9467 286.852 86.0767 287.065 86.17C287.278 86.2567 287.538 86.3 287.845 86.3C288.092 86.3 288.315 86.2767 288.515 86.23C288.715 86.1833 288.872 86.1333 288.985 86.08L289.115 86.86C289.062 86.8933 288.985 86.9267 288.885 86.96C288.785 86.9867 288.672 87.01 288.545 87.03C288.418 87.0567 288.282 87.0767 288.135 87.09C287.995 87.11 287.858 87.12 287.725 87.12ZM293.93 81.8V82.58H292.24V87H291.31V82.58H289.62V81.8H293.93ZM299.479 84.4C299.479 84.8133 299.419 85.1867 299.299 85.52C299.179 85.8533 299.009 86.14 298.789 86.38C298.576 86.62 298.319 86.8067 298.019 86.94C297.719 87.0667 297.392 87.13 297.039 87.13C296.686 87.13 296.359 87.0667 296.059 86.94C295.759 86.8067 295.499 86.62 295.279 86.38C295.066 86.14 294.899 85.8533 294.779 85.52C294.659 85.1867 294.599 84.8133 294.599 84.4C294.599 83.9933 294.659 83.6233 294.779 83.29C294.899 82.95 295.066 82.66 295.279 82.42C295.499 82.18 295.759 81.9967 296.059 81.87C296.359 81.7367 296.686 81.67 297.039 81.67C297.392 81.67 297.719 81.7367 298.019 81.87C298.319 81.9967 298.576 82.18 298.789 82.42C299.009 82.66 299.179 82.95 299.299 83.29C299.419 83.6233 299.479 83.9933 299.479 84.4ZM298.509 84.4C298.509 83.8133 298.376 83.35 298.109 83.01C297.849 82.6633 297.492 82.49 297.039 82.49C296.586 82.49 296.226 82.6633 295.959 83.01C295.699 83.35 295.569 83.8133 295.569 84.4C295.569 84.9867 295.699 85.4533 295.959 85.8C296.226 86.14 296.586 86.31 297.039 86.31C297.492 86.31 297.849 86.14 298.109 85.8C298.376 85.4533 298.509 84.9867 298.509 84.4ZM304.457 81.8V82.58H302.767V87H301.837V82.58H300.147V81.8H304.457ZM307.176 86.33C307.396 86.33 307.59 86.3267 307.756 86.32C307.93 86.3067 308.073 86.2867 308.186 86.26V84.71C308.12 84.6767 308.01 84.65 307.856 84.63C307.71 84.6033 307.53 84.59 307.316 84.59C307.176 84.59 307.026 84.6 306.866 84.62C306.713 84.64 306.57 84.6833 306.436 84.75C306.31 84.81 306.203 84.8967 306.116 85.01C306.03 85.1167 305.986 85.26 305.986 85.44C305.986 85.7733 306.093 86.0067 306.306 86.14C306.52 86.2667 306.81 86.33 307.176 86.33ZM307.096 81.67C307.47 81.67 307.783 81.72 308.036 81.82C308.296 81.9133 308.503 82.05 308.656 82.23C308.816 82.4033 308.93 82.6133 308.996 82.86C309.063 83.1 309.096 83.3667 309.096 83.66V86.91C309.016 86.9233 308.903 86.9433 308.756 86.97C308.616 86.99 308.456 87.01 308.276 87.03C308.096 87.05 307.9 87.0667 307.686 87.08C307.48 87.1 307.273 87.11 307.066 87.11C306.773 87.11 306.503 87.08 306.256 87.02C306.01 86.96 305.796 86.8667 305.616 86.74C305.436 86.6067 305.296 86.4333 305.196 86.22C305.096 86.0067 305.046 85.75 305.046 85.45C305.046 85.1633 305.103 84.9167 305.216 84.71C305.336 84.5033 305.496 84.3367 305.696 84.21C305.896 84.0833 306.13 83.99 306.396 83.93C306.663 83.87 306.943 83.84 307.236 83.84C307.33 83.84 307.426 83.8467 307.526 83.86C307.626 83.8667 307.72 83.88 307.806 83.9C307.9 83.9133 307.98 83.9267 308.046 83.94C308.113 83.9533 308.16 83.9633 308.186 83.97V83.71C308.186 83.5567 308.17 83.4067 308.136 83.26C308.103 83.1067 308.043 82.9733 307.956 82.86C307.87 82.74 307.75 82.6467 307.596 82.58C307.45 82.5067 307.256 82.47 307.016 82.47C306.71 82.47 306.44 82.4933 306.206 82.54C305.98 82.58 305.81 82.6233 305.696 82.67L305.586 81.9C305.706 81.8467 305.906 81.7967 306.186 81.75C306.466 81.6967 306.77 81.67 307.096 81.67Z" fill="#A9BADA"/>
</g>
<defs>
<linearGradient id="paint0_linear_2224_1111" x1="42.7232" y1="-10.3318" x2="94.1982" y2="127.778" gradientUnits="userSpaceOnUse">
<stop stop-color="white"/>
<stop offset="1" stop-color="white" stop-opacity="0"/>
</linearGradient>
<linearGradient id="paint1_linear_2224_1111" x1="15.0005" y1="17.5" x2="25.4161" y2="17.5" gradientUnits="userSpaceOnUse">
<stop stop-color="#6094FF"/>
<stop offset="0.25" stop-color="#4C85FD"/>
<stop offset="0.77" stop-color="#185FF9"/>
<stop offset="1" stop-color="#004DF7"/>
</linearGradient>
<linearGradient id="paint2_linear_2224_1111" x1="15.2745" y1="22.758" x2="18.4773" y2="20.5213" gradientUnits="userSpaceOnUse">
<stop offset="0.07" stop-color="#5E93FF" stop-opacity="0.5"/>
<stop offset="0.3" stop-color="#517BE8" stop-opacity="0.59"/>
<stop offset="0.69" stop-color="#2E3CAD" stop-opacity="0.85"/>
<stop offset="0.89" stop-color="#191589"/>
</linearGradient>
<linearGradient id="paint3_linear_2224_1111" x1="16.719" y1="23.1326" x2="25.7302" y2="12.4007" gradientUnits="userSpaceOnUse">
<stop offset="0.07" stop-color="#5E93FF" stop-opacity="0.5"/>
<stop offset="0.27" stop-color="#3B54C4" stop-opacity="0.7"/>
<stop offset="0.48" stop-color="#222598" stop-opacity="0.85"/>
<stop offset="0.61" stop-color="#191589" stop-opacity="0.9"/>
<stop offset="0.67" stop-color="#18188D" stop-opacity="0.86"/>
<stop offset="0.75" stop-color="#15219A" stop-opacity="0.76"/>
<stop offset="0.82" stop-color="#1030AF" stop-opacity="0.59"/>
<stop offset="0.9" stop-color="#0945CD" stop-opacity="0.36"/>
<stop offset="0.99" stop-color="#0161F3" stop-opacity="0.05"/>
<stop offset="1" stop-color="#0066FA" stop-opacity="0"/>
</linearGradient>
<radialGradient id="paint4_radial_2224_1111" cx="0" cy="0" r="1" gradientUnits="userSpaceOnUse" gradientTransform="translate(17.4206 14.3299) scale(2.73289)">
<stop stop-color="#191589" stop-opacity="0.9"/>
<stop offset="0.17" stop-color="#161E95" stop-opacity="0.8"/>
<stop offset="0.48" stop-color="#0E36B7" stop-opacity="0.53"/>
<stop offset="0.91" stop-color="#025DEE" stop-opacity="0.09"/>
<stop offset="1" stop-color="#0066FA" stop-opacity="0"/>
</radialGradient>
<radialGradient id="paint5_radial_2224_1111" cx="0" cy="0" r="1" gradientUnits="userSpaceOnUse" gradientTransform="translate(22.9508 14.6044) scale(3.61361)">
<stop offset="0.18" stop-color="#191589"/>
<stop offset="0.19" stop-color="#18168A" stop-opacity="0.99"/>
<stop offset="0.47" stop-color="#0E38BA" stop-opacity="0.57"/>
<stop offset="0.7" stop-color="#0651DC" stop-opacity="0.26"/>
<stop offset="0.89" stop-color="#0160F2" stop-opacity="0.07"/>
<stop offset="1" stop-color="#0066FA" stop-opacity="0"/>
</radialGradient>
<linearGradient id="paint6_linear_2224_1111" x1="145.884" y1="115.5" x2="117.463" y2="244.537" gradientUnits="userSpaceOnUse">
<stop stop-color="white"/>
<stop offset="1" stop-color="white" stop-opacity="0.2"/>
</linearGradient>
<clipPath id="clip0_2224_1111">
<path d="M0 3.64522C0 1.63201 1.63202 0 3.64522 0H315.355C317.368 0 319 1.63202 319 3.64522V236H0V3.64522Z" fill="white"/>
</clipPath>
</defs>
</svg>
