<svg width="406" height="450" viewBox="0 0 406 450" fill="none" xmlns="http://www.w3.org/2000/svg">
<g clip-path="url(#clip0_2121_940)">
<g clip-path="url(#clip1_2121_940)">
<rect x="88.0095" y="44" width="231.526" height="463.052" rx="31.182" fill="#1F2D47"/>
<path d="M86.1891 107.085C86.1891 106.687 86.5122 106.364 86.9108 106.364H88.1428V125.366H86.9108C86.5122 125.366 86.1891 125.043 86.1891 124.644V107.085Z" fill="#314872"/>
<path d="M85.6704 139.008C85.6704 138.609 85.9935 138.286 86.392 138.286H88.103V173.645H86.392C85.9935 173.645 85.6704 173.322 85.6704 172.924V139.008Z" fill="#314872"/>
<path d="M85.6706 187.288C85.6706 186.889 85.9937 186.566 86.3922 186.566H88.1032V221.925H86.3922C85.9937 221.925 85.6706 221.602 85.6706 221.204V187.288Z" fill="#314872"/>
<path d="M321.97 106.536C321.97 106.137 321.647 105.814 321.248 105.814H319.537V162.34H321.248C321.647 162.34 321.97 162.017 321.97 161.619V106.536Z" fill="#314872"/>
<rect x="97.6304" y="54.4653" width="210.854" height="442.38" rx="22.7392" fill="#111928"/>
<line x1="98.1429" y1="109.505" x2="308.621" y2="109.505" stroke="#1F2D47" stroke-width="0.779549"/>
<path d="M121.606 93.1992H110.939M110.939 93.1992L114.939 97.1992M110.939 93.1992L114.939 89.1992" stroke="#7E98C8" stroke-width="0.8" stroke-linecap="round" stroke-linejoin="round"/>
<path d="M240.939 87.333H244.939M236.939 89.333H248.939M247.606 89.333L247.138 96.3459C247.068 97.398 247.033 97.9241 246.806 98.323C246.606 98.6742 246.304 98.9565 245.94 99.1328C245.527 99.333 245 99.333 243.945 99.333H241.933C240.878 99.333 240.351 99.333 239.938 99.1328C239.574 98.9565 239.272 98.6742 239.072 98.323C238.845 97.9241 238.81 97.398 238.74 96.3459L238.272 89.333M241.606 92.333V95.6663M244.272 92.333V95.6663" stroke="#7E98C8" stroke-width="0.8" stroke-linecap="round" stroke-linejoin="round"/>
<path d="M290.844 93.9043C291.159 93.9043 291.415 93.6485 291.415 93.3329C291.415 93.0173 291.159 92.7615 290.844 92.7615C290.528 92.7615 290.272 93.0173 290.272 93.3329C290.272 93.6485 290.528 93.9043 290.844 93.9043Z" stroke="#7E98C8" stroke-width="0.8" stroke-linecap="round" stroke-linejoin="round"/>
<path d="M290.844 89.9043C291.159 89.9043 291.415 89.6485 291.415 89.3329C291.415 89.0173 291.159 88.7615 290.844 88.7615C290.528 88.7615 290.272 89.0173 290.272 89.3329C290.272 89.6485 290.528 89.9043 290.844 89.9043Z" stroke="#7E98C8" stroke-width="0.8" stroke-linecap="round" stroke-linejoin="round"/>
<path d="M290.844 97.9043C291.159 97.9043 291.415 97.6485 291.415 97.3329C291.415 97.0173 291.159 96.7615 290.844 96.7615C290.528 96.7615 290.272 97.0173 290.272 97.3329C290.272 97.6485 290.528 97.9043 290.844 97.9043Z" stroke="#7E98C8" stroke-width="0.8" stroke-linecap="round" stroke-linejoin="round"/>
<g clip-path="url(#clip2_2121_940)">
<path d="M260.272 89.9995L265.716 93.8098C266.156 94.1184 266.377 94.2726 266.617 94.3324C266.828 94.3852 267.05 94.3852 267.261 94.3324C267.501 94.2726 267.722 94.1184 268.162 93.8098L273.606 89.9995M263.472 98.6662H270.406C271.526 98.6662 272.086 98.6662 272.514 98.4482C272.89 98.2564 273.196 97.9505 273.388 97.5742C273.606 97.1463 273.606 96.5863 273.606 95.4662V91.1995C273.606 90.0794 273.606 89.5194 273.388 89.0915C273.196 88.7152 272.89 88.4092 272.514 88.2175C272.086 87.9995 271.526 87.9995 270.406 87.9995H263.472C262.352 87.9995 261.792 87.9995 261.364 88.2175C260.988 88.4092 260.682 88.7152 260.49 89.0915C260.272 89.5194 260.272 90.0794 260.272 91.1995V95.4662C260.272 96.5863 260.272 97.1463 260.49 97.5742C260.682 97.9505 260.988 98.2564 261.364 98.4482C261.792 98.6662 262.352 98.6662 263.472 98.6662Z" stroke="#7E98C8" stroke-width="0.8" stroke-linecap="round" stroke-linejoin="round"/>
</g>
<path d="M110.211 136.14V125.22H118.357V136.14H116.971V126.433H111.597V136.14H110.211ZM123.989 135.013C125.185 135.013 126.329 133.904 126.329 132.24C126.329 130.576 125.185 129.467 123.989 129.467C122.775 129.467 121.649 130.576 121.649 132.24C121.649 133.904 122.775 135.013 123.989 135.013ZM123.989 136.227C121.978 136.227 120.349 134.58 120.349 132.24C120.349 129.9 121.978 128.253 123.989 128.253C125.999 128.253 127.629 129.9 127.629 132.24C127.629 134.58 125.999 136.227 123.989 136.227ZM127.983 136.14V135.013H128.157C129.006 135.013 129.457 134.545 129.543 133.627L129.977 128.34H135.263V136.14H133.963V129.467H131.103L130.843 133.627C130.722 135.291 129.821 136.227 128.503 136.227C128.365 136.227 128.261 136.209 128.139 136.192L127.983 136.14ZM137.872 138.913V137.873C138.652 137.873 138.981 137.527 139.258 136.833L139.605 135.967L136.572 128.34H137.958L140.298 134.32L142.638 128.34H144.025L140.645 136.833C140.021 138.411 139.414 139 138.392 139C138.253 139 138.149 138.983 138.028 138.965L137.872 138.913ZM150.095 136.14V133.28C149.904 133.384 149.714 133.471 149.488 133.54C149.09 133.679 148.535 133.8 147.842 133.8C146.264 133.8 145.155 132.673 145.155 130.94V128.34H146.455V130.94C146.455 131.911 147.148 132.587 148.188 132.587C148.726 132.587 149.176 132.448 149.523 132.292C149.731 132.205 149.922 132.101 150.095 131.98V128.34H151.395V136.14H150.095ZM158.77 134.06H160.156C159.636 135.187 158.596 136.227 156.863 136.227C154.783 136.227 153.136 134.58 153.136 132.24C153.136 129.9 154.887 128.253 156.776 128.253C158.683 128.253 160.33 129.796 160.33 132.153C160.33 132.379 160.295 132.535 160.278 132.656L160.243 132.847H154.523C154.61 133.973 155.632 135.013 156.863 135.013C157.886 135.013 158.51 134.424 158.77 134.06ZM154.523 131.72H159.03C158.839 130.42 157.903 129.467 156.776 129.467C155.65 129.467 154.714 130.42 154.523 131.72ZM162.069 136.14V128.34H163.369V131.547H167.356V128.34H168.656V136.14H167.356V132.76H163.369V136.14H162.069ZM180.262 130.16V134.32C180.384 134.476 180.522 134.597 180.678 134.719C180.956 134.909 181.337 135.1 181.822 135.1C182.949 135.1 183.816 134.233 183.816 132.24C183.816 130.247 182.949 129.38 181.822 129.38C181.337 129.38 180.956 129.588 180.678 129.779C180.522 129.9 180.384 130.021 180.262 130.16ZM178.962 138.913V135.62C178.824 135.741 178.668 135.845 178.494 135.932C178.2 136.088 177.784 136.227 177.316 136.227C175.582 136.227 174.109 134.753 174.109 132.24C174.109 129.727 175.582 128.253 177.316 128.253C177.784 128.253 178.2 128.409 178.494 128.565C178.668 128.652 178.824 128.756 178.962 128.86V125.22H180.262V128.86C180.401 128.756 180.557 128.652 180.73 128.565C181.025 128.409 181.424 128.253 181.909 128.253C183.642 128.253 185.116 129.727 185.116 132.24C185.116 134.753 183.642 136.227 181.909 136.227C181.424 136.227 181.025 136.088 180.73 135.932C180.557 135.845 180.401 135.741 180.262 135.62V138.913H178.962ZM178.962 134.32V130.16C178.841 130.021 178.702 129.9 178.546 129.779C178.269 129.588 177.87 129.38 177.402 129.38C176.276 129.38 175.409 130.247 175.409 132.24C175.409 134.233 176.276 135.1 177.402 135.1C177.87 135.1 178.269 134.909 178.546 134.719C178.702 134.597 178.841 134.476 178.962 134.32ZM191.79 136.14L191.444 135.273C191.27 135.464 191.08 135.62 190.854 135.759C190.456 136.019 189.884 136.227 189.104 136.227C187.544 136.227 186.504 135.187 186.504 133.887C186.504 132.413 187.544 131.373 191.444 131.373V130.94C191.444 130.16 190.768 129.467 189.797 129.467C188.826 129.467 188.428 129.9 188.237 130.593H186.85C187.041 129.293 188.064 128.253 189.797 128.253C191.53 128.253 192.744 129.484 192.744 130.94V136.14H191.79ZM191.444 133.193V132.587C188.324 132.587 187.804 133.107 187.804 133.973C187.804 134.511 188.324 135.013 189.104 135.013C190.49 135.013 191.444 134.06 191.444 133.193ZM194.908 136.14V128.34H196.208V134.147L200.194 128.34H201.494V136.14H200.194V130.333L196.208 136.14H194.908ZM196.121 125.22H197.161C197.248 125.827 197.664 126.26 198.201 126.26C198.738 126.26 199.154 125.827 199.241 125.22H200.281C200.09 126.26 199.328 127.127 198.201 127.127C197.074 127.127 196.312 126.26 196.121 125.22ZM202.53 136.14V135.013H202.704C203.553 135.013 204.004 134.545 204.09 133.627L204.524 128.34H209.81V136.14H208.51V129.467H205.65L205.39 133.627C205.269 135.291 204.368 136.227 203.05 136.227C202.912 136.227 202.808 136.209 202.686 136.192L202.53 136.14ZM215.102 133.8H216.402C216.489 134.493 216.992 135.013 217.962 135.013C218.846 135.013 219.349 134.493 219.349 133.887C219.349 133.28 218.812 132.76 217.962 132.76H217.269V131.547H217.962C218.656 131.547 219.176 131.113 219.176 130.507C219.176 129.9 218.656 129.467 217.962 129.467C216.992 129.467 216.576 129.987 216.489 130.593H215.189C215.276 129.207 216.229 128.253 217.962 128.253C219.436 128.253 220.476 129.311 220.476 130.507C220.476 131.079 220.25 131.477 219.99 131.755C219.852 131.911 219.696 132.049 219.522 132.153C219.73 132.275 219.921 132.413 220.077 132.569C220.354 132.847 220.649 133.28 220.649 133.887C220.649 135.187 219.609 136.227 217.962 136.227C216.229 136.227 215.189 135.187 215.102 133.8ZM227.405 136.14L227.058 135.273C226.885 135.464 226.694 135.62 226.469 135.759C226.07 136.019 225.498 136.227 224.718 136.227C223.158 136.227 222.118 135.187 222.118 133.887C222.118 132.413 223.158 131.373 227.058 131.373V130.94C227.058 130.16 226.382 129.467 225.412 129.467C224.441 129.467 224.042 129.9 223.852 130.593H222.465C222.656 129.293 223.678 128.253 225.412 128.253C227.145 128.253 228.358 129.484 228.358 130.94V136.14H227.405ZM227.058 133.193V132.587C223.938 132.587 223.418 133.107 223.418 133.973C223.418 134.511 223.938 135.013 224.718 135.013C226.105 135.013 227.058 134.06 227.058 133.193ZM234.506 136.14V125.22H238.233C240.122 125.22 241.7 126.78 241.7 128.6C241.7 130.42 240.122 131.98 238.233 131.98H235.893V136.14H234.506ZM235.893 130.767H238.233C239.36 130.767 240.313 129.813 240.313 128.6C240.313 127.387 239.36 126.433 238.233 126.433H235.893V130.767ZM243.782 136.14V125.22H247.856C249.676 125.22 251.149 126.693 251.149 128.427C251.149 129.692 250.542 130.455 249.936 130.923C249.572 131.2 249.173 131.408 248.74 131.547L251.409 136.14H249.849L247.249 131.633H245.169V136.14H243.782ZM245.169 130.42H247.856C248.878 130.42 249.762 129.536 249.762 128.427C249.762 127.317 248.878 126.433 247.856 126.433H245.169V130.42ZM257.73 126.347C255.824 126.347 254.004 128.167 254.004 130.68C254.004 133.193 255.824 135.013 257.73 135.013C259.637 135.013 261.457 133.193 261.457 130.68C261.457 128.167 259.637 126.347 257.73 126.347ZM257.73 125.133C260.417 125.133 262.844 127.56 262.844 130.68C262.844 133.8 260.417 136.227 257.73 136.227C255.044 136.227 252.617 133.8 252.617 130.68C252.617 127.56 255.044 125.133 257.73 125.133ZM266.226 134.927H267.873C269.884 134.927 271.686 133.107 271.686 130.68C271.686 128.253 269.884 126.433 267.873 126.433H266.226V134.927ZM264.84 136.14V125.22H267.873C270.733 125.22 273.073 127.56 273.073 130.68C273.073 133.8 270.733 136.14 267.873 136.14H264.84ZM108.824 154.14L112.984 143.22H114.197L118.357 154.14H116.884L115.844 151.453H111.337L110.297 154.14H108.824ZM111.771 150.24H115.411L113.591 145.473L111.771 150.24ZM124.681 151.367H125.981C125.617 152.944 124.334 154.227 122.601 154.227C120.59 154.227 118.961 152.58 118.961 150.24C118.961 147.9 120.59 146.253 122.601 146.253C124.334 146.253 125.617 147.536 125.981 149.113H124.681C124.403 148.247 123.623 147.467 122.601 147.467C121.387 147.467 120.261 148.576 120.261 150.24C120.261 151.904 121.387 153.013 122.601 153.013C123.623 153.013 124.403 152.233 124.681 151.367ZM132.823 151.367H134.123C133.759 152.944 132.476 154.227 130.743 154.227C128.732 154.227 127.103 152.58 127.103 150.24C127.103 147.9 128.732 146.253 130.743 146.253C132.476 146.253 133.759 147.536 134.123 149.113H132.823C132.545 148.247 131.765 147.467 130.743 147.467C129.529 147.467 128.403 148.576 128.403 150.24C128.403 151.904 129.529 153.013 130.743 153.013C131.765 153.013 132.545 152.233 132.823 151.367ZM138.884 153.013C140.08 153.013 141.224 151.904 141.224 150.24C141.224 148.576 140.08 147.467 138.884 147.467C137.671 147.467 136.544 148.576 136.544 150.24C136.544 151.904 137.671 153.013 138.884 153.013ZM138.884 154.227C136.874 154.227 135.244 152.58 135.244 150.24C135.244 147.9 136.874 146.253 138.884 146.253C140.895 146.253 142.524 147.9 142.524 150.24C142.524 152.58 140.895 154.227 138.884 154.227ZM144.262 150.847V146.34H145.562V150.847C145.562 152.147 146.411 153.013 147.469 153.013C148.699 153.013 149.549 152.164 149.549 150.847V146.34H150.849V154.14H149.895L149.549 153.273C149.393 153.464 149.202 153.62 148.977 153.759C148.578 154.019 148.041 154.227 147.295 154.227C145.649 154.227 144.262 152.84 144.262 150.847ZM153.098 154.14V146.34H154.051L154.398 147.207C154.554 147.033 154.744 146.877 154.97 146.739C155.368 146.479 155.906 146.253 156.651 146.253C158.298 146.253 159.684 147.64 159.684 149.633V154.14H158.384V149.633C158.384 148.333 157.5 147.467 156.478 147.467C155.247 147.467 154.398 148.316 154.398 149.633V154.14H153.098ZM162.456 151.627V147.553H161.069V146.34H161.676C162.317 146.34 162.629 146.028 162.629 145.387V144.26H163.756V146.34H165.489V147.553H163.756V151.627C163.756 152.511 164.276 153.013 165.056 153.013C165.177 153.013 165.281 152.996 165.368 152.979L165.489 152.927V154.053C165.437 154.088 165.368 154.123 165.298 154.14C165.142 154.192 164.952 154.227 164.709 154.227C163.513 154.227 162.456 153.187 162.456 151.627ZM167.401 154.14V146.34H168.701V154.14H167.401ZM167.228 144.139C167.228 143.653 167.574 143.307 168.042 143.307C168.528 143.307 168.874 143.653 168.874 144.139C168.874 144.607 168.528 144.953 168.042 144.953C167.574 144.953 167.228 144.607 167.228 144.139ZM170.956 154.14V146.34H171.909L172.256 147.207C172.412 147.033 172.603 146.877 172.828 146.739C173.227 146.479 173.764 146.253 174.509 146.253C176.156 146.253 177.543 147.64 177.543 149.633V154.14H176.243V149.633C176.243 148.333 175.359 147.467 174.336 147.467C173.105 147.467 172.256 148.316 172.256 149.633V154.14H170.956ZM179.62 154.747H180.92C181.18 155.353 181.7 155.873 182.827 155.873C184.144 155.873 184.994 155.007 184.994 153.88V152.84C184.838 153.031 184.664 153.204 184.456 153.36C184.092 153.62 183.52 153.88 182.74 153.88C180.747 153.88 179.187 152.337 179.187 150.067C179.187 147.796 180.747 146.253 182.74 146.253C183.52 146.253 184.092 146.479 184.456 146.739C184.664 146.877 184.838 147.033 184.994 147.207L185.34 146.34H186.294V153.88C186.294 155.7 184.907 157.087 182.827 157.087C181.042 157.087 179.95 156.047 179.62 154.747ZM182.827 152.667C184.127 152.667 185.167 151.627 185.167 150.067C185.167 148.507 184.127 147.467 182.827 147.467C181.527 147.467 180.487 148.507 180.487 150.067C180.487 151.627 181.527 152.667 182.827 152.667Z" fill="white"/>
<rect x="109.258" y="168.879" width="41.6022" height="18.2533" rx="1.01293" stroke="#6281BC" stroke-width="0.868223"/>
<path d="M116.906 181.339V175.479H117.882V181.339H116.906ZM116.775 173.825C116.775 173.46 117.036 173.2 117.388 173.2C117.752 173.2 118.013 173.46 118.013 173.825C118.013 174.176 117.752 174.437 117.388 174.437C117.036 174.437 116.775 174.176 116.775 173.825ZM119.576 181.339V175.479H120.293L120.553 176.13C120.67 176 120.814 175.882 120.983 175.778C121.283 175.583 121.686 175.413 122.246 175.413C123.483 175.413 124.525 176.455 124.525 177.953V181.339H123.549V177.953C123.549 176.976 122.884 176.325 122.116 176.325C121.191 176.325 120.553 176.963 120.553 177.953V181.339H119.576ZM128.887 180.493C129.863 180.493 130.71 179.659 130.71 178.409C130.71 177.159 129.863 176.325 128.887 176.325C127.91 176.325 127.063 177.159 127.063 178.409C127.063 179.659 127.91 180.493 128.887 180.493ZM126.217 181.339V173.134H127.194V176.195C127.311 176.052 127.467 175.921 127.636 175.804C127.936 175.609 128.366 175.413 128.952 175.413C130.462 175.413 131.687 176.651 131.687 178.409C131.687 180.167 130.462 181.404 128.952 181.404C128.366 181.404 127.936 181.248 127.636 181.053C127.467 180.948 127.311 180.831 127.194 180.688L126.933 181.339H126.217ZM135.338 180.493C136.237 180.493 137.096 179.659 137.096 178.409C137.096 177.159 136.237 176.325 135.338 176.325C134.427 176.325 133.58 177.159 133.58 178.409C133.58 179.659 134.427 180.493 135.338 180.493ZM135.338 181.404C133.828 181.404 132.603 180.167 132.603 178.409C132.603 176.651 133.828 175.413 135.338 175.413C136.849 175.413 138.073 176.651 138.073 178.409C138.073 180.167 136.849 181.404 135.338 181.404ZM138.405 181.339L140.489 178.344L138.535 175.479H139.642L141.075 177.627L142.507 175.479H143.614L141.661 178.344L143.744 181.339H142.637L141.075 179.06L139.512 181.339H138.405Z" fill="#6281BC"/>
<path d="M145.953 226.303V217.063H149.4C151.16 217.063 152.553 218.442 152.553 220.143C152.553 221.845 151.16 223.223 149.4 223.223H147.713V226.303H145.953ZM147.713 221.537H149.4C150.133 221.537 150.793 220.877 150.793 220.143C150.793 219.41 150.133 218.75 149.4 218.75H147.713V221.537ZM153.945 226.303V219.557H155.192L155.485 220.29C155.603 220.143 155.749 220.011 155.911 219.894C156.189 219.674 156.585 219.483 157.099 219.483C157.26 219.483 157.363 219.513 157.465 219.527L157.612 219.557V221.317L157.451 221.287C157.348 221.273 157.201 221.243 157.025 221.243C156.204 221.243 155.632 221.83 155.632 222.71V226.303H153.945ZM163.042 226.303L162.748 225.643C162.587 225.775 162.426 225.907 162.235 226.01C161.898 226.201 161.428 226.377 160.842 226.377C159.375 226.377 158.568 225.585 158.568 224.47C158.568 223.135 159.522 222.197 162.602 222.197C162.602 221.449 162.162 221.023 161.502 221.023C161.047 221.023 160.812 221.214 160.651 221.39C160.563 221.493 160.504 221.625 160.475 221.757H158.788C158.95 220.525 159.962 219.483 161.648 219.483C163.174 219.483 164.288 220.598 164.288 222.123V226.303H163.042ZM162.602 223.663V223.37C160.622 223.37 160.255 223.737 160.255 224.323C160.255 224.69 160.622 225.057 161.135 225.057C162.015 225.057 162.602 224.485 162.602 223.663ZM166.339 223.957V221.097H165.313V219.703H165.753C166.295 219.703 166.559 219.439 166.559 218.897V217.943H168.026V219.557H169.493V221.097H168.026V223.883C168.026 224.47 168.393 224.837 168.979 224.837C169.141 224.837 169.229 224.822 169.302 224.807L169.419 224.763V226.23C169.346 226.259 169.273 226.289 169.185 226.303C169.023 226.347 168.833 226.377 168.613 226.377C167.278 226.377 166.339 225.423 166.339 223.957ZM171.029 226.303V219.557H172.715V226.303H171.029ZM171.909 218.75C171.395 218.75 170.955 218.31 170.955 217.797C170.955 217.283 171.395 216.843 171.909 216.843C172.422 216.843 172.862 217.283 172.862 217.797C172.862 218.31 172.422 218.75 171.909 218.75ZM174.47 226.303V219.557H175.716L176.01 220.217C176.142 220.085 176.303 219.953 176.464 219.85C176.743 219.674 177.139 219.483 177.623 219.483C178.312 219.483 178.796 219.703 179.104 219.923C179.28 220.055 179.427 220.202 179.53 220.363C179.691 220.202 179.867 220.055 180.072 219.923C180.424 219.703 180.923 219.483 181.51 219.483C182.976 219.483 183.93 220.437 183.93 222.27V226.303H182.243V222.417C182.243 221.595 181.73 221.097 181.143 221.097C180.556 221.097 180.043 221.595 180.043 222.417V226.303H178.356V222.417C178.356 221.595 177.843 221.097 177.256 221.097C176.67 221.097 176.156 221.595 176.156 222.417V226.303H174.47ZM185.616 226.303V219.557H187.303V226.303H185.616ZM186.496 218.75C185.983 218.75 185.543 218.31 185.543 217.797C185.543 217.283 185.983 216.843 186.496 216.843C187.01 216.843 187.45 217.283 187.45 217.797C187.45 218.31 187.01 218.75 186.496 218.75Z" fill="white"/>
<path d="M143.552 54.1348H263.052V59.9077C263.052 66.5499 257.667 71.9345 251.025 71.9345H155.578C148.936 71.9345 143.552 66.5499 143.552 59.9077V54.1348Z" fill="#1F2D47"/>
<g filter="url(#filter0_d_2121_940)">
<ellipse cx="123.759" cy="221.003" rx="14.9354" ry="14.9354" fill="white"/>
<ellipse cx="123.759" cy="221.003" rx="14.9354" ry="14.9354" stroke="#1F242B" stroke-width="0.486892"/>
</g>
<g clip-path="url(#clip3_2121_940)">
<path d="M122.49 219.344L126.006 217.341C126.136 217.263 126.042 217.065 125.9 217.115L121.967 218.817L120.394 217.248C120.257 217.111 120.34 216.876 120.532 216.855L127.279 216.114C127.598 216.079 127.823 216.419 127.666 216.699L125.06 221.342C124.957 221.525 124.706 221.56 124.557 221.411L123.192 220.046C123.192 220.046 121.469 221.006 120.851 221.396C120.368 221.7 119.76 222.115 119.363 222.388C117.657 223.561 116.79 224.298 116.79 226.212V229C116.79 229.584 117.507 229.863 117.901 229.432L121.16 225.869C121.594 225.394 122.207 225.124 122.849 225.124H124.639C126.056 225.124 127.296 224.861 128.359 224.334C129.422 223.807 130.249 223.056 130.839 222.081C131.43 221.106 131.725 219.952 131.725 218.62C131.725 217.287 131.437 216.146 130.862 215.158C130.287 214.171 129.481 213.405 128.446 212.86C127.41 212.314 126.201 212.042 124.82 212.042H122.052C119.146 212.042 116.79 214.398 116.79 217.305V219.757C116.79 220.539 117.219 221.205 117.95 221.247C118.326 221.269 118.682 221.211 119.09 221.049C119.975 220.7 122.636 219.264 122.636 219.264" fill="url(#paint0_linear_2121_940)"/>
<path opacity="0.5" d="M116.79 227.118V229C116.79 229.583 117.508 229.862 117.901 229.432L121.161 225.868C121.489 225.508 121.922 225.266 122.392 225.17C122.331 225.169 122.27 225.168 122.209 225.168C120.15 225.168 118.261 225.9 116.79 227.119L116.79 227.118Z" fill="url(#paint1_linear_2121_940)"/>
<path opacity="0.5" d="M130.862 215.158C130.287 214.171 129.481 213.404 128.446 212.859C128.433 212.853 128.419 212.846 128.406 212.84C128.411 212.952 128.414 213.066 128.414 213.179C128.414 214.382 128.164 215.526 127.714 216.562C127.707 216.608 127.691 216.654 127.666 216.699L127.588 216.839L127.041 217.813L125.06 221.341C124.957 221.525 124.706 221.56 124.557 221.411L123.859 220.712L123.193 220.046C123.193 220.046 121.469 221.007 120.851 221.396C120.719 221.48 120.577 221.572 120.432 221.667C120.05 221.918 119.651 222.19 119.363 222.388C117.657 223.561 116.79 224.298 116.79 226.211V227.118C118.261 225.9 120.149 225.168 122.209 225.168C122.27 225.168 122.33 225.169 122.391 225.17C122.541 225.14 122.694 225.124 122.849 225.124H124.639C126.056 225.124 127.296 224.86 128.359 224.333C129.422 223.806 130.249 223.055 130.839 222.08C131.43 221.105 131.725 219.951 131.725 218.619C131.725 217.286 131.437 216.145 130.862 215.157L130.862 215.158Z" fill="url(#paint2_linear_2121_940)"/>
<path d="M119.09 221.048C119.868 220.741 122.019 219.594 122.527 219.321L125.39 217.691L126.006 217.34C126.135 217.262 126.042 217.064 125.899 217.114L124.997 217.505L121.967 218.816L120.394 217.247C120.296 217.149 120.31 217.003 120.395 216.919C118.976 217.908 117.873 219.318 117.267 220.968C117.449 221.129 117.678 221.231 117.949 221.247C118.325 221.268 118.681 221.21 119.09 221.048V221.048Z" fill="url(#paint3_radial_2121_940)"/>
<path opacity="0.5" d="M128.406 212.84C127.379 212.308 126.184 212.042 124.82 212.042H122.052C119.146 212.042 116.79 214.398 116.79 217.305V219.757C116.79 220.249 116.96 220.695 117.268 220.969C117.874 219.319 118.977 217.908 120.396 216.92C120.414 216.901 120.436 216.886 120.461 216.875C120.482 216.865 120.506 216.858 120.532 216.855L121.103 216.792L127.28 216.114C127.548 216.084 127.75 216.32 127.714 216.563C127.815 216.329 127.906 216.09 127.987 215.846C128.264 215.008 128.414 214.112 128.414 213.18C128.414 213.066 128.411 212.953 128.407 212.84H128.406Z" fill="url(#paint4_radial_2121_940)"/>
</g>
<rect x="108.824" y="246.585" width="189.562" height="112.729" rx="5.43104" fill="#1F2D47"/>
<path d="M126.555 274.456H127.728C127.89 275.336 128.535 275.996 129.708 275.996C130.882 275.996 131.615 275.263 131.615 274.383C131.615 273.503 130.882 272.769 129.708 272.769H129.034V271.743H129.635C130.676 271.743 131.322 271.083 131.322 270.203C131.322 269.323 130.676 268.663 129.635 268.663C128.594 268.663 127.948 269.323 127.875 270.203H126.702C126.863 268.736 127.934 267.636 129.635 267.636C131.322 267.636 132.495 268.809 132.495 270.203C132.495 270.863 132.172 271.347 131.864 271.655C131.688 271.831 131.483 271.977 131.248 272.109C131.527 272.241 131.791 272.403 132.011 272.608C132.407 272.96 132.788 273.547 132.788 274.383C132.788 275.776 131.542 277.023 129.708 277.023C127.86 277.023 126.79 275.923 126.555 274.456ZM138.512 276.949L138.219 276.216C138.072 276.377 137.911 276.509 137.72 276.627C137.383 276.847 136.899 277.023 136.239 277.023C134.919 277.023 134.039 276.143 134.039 275.043C134.039 273.796 134.919 272.916 138.219 272.916V272.549C138.219 271.889 137.647 271.303 136.825 271.303C136.004 271.303 135.667 271.669 135.505 272.256H134.332C134.493 271.156 135.359 270.276 136.825 270.276C138.292 270.276 139.319 271.317 139.319 272.549V276.949H138.512ZM138.219 274.456V273.943C135.579 273.943 135.139 274.383 135.139 275.116C135.139 275.571 135.579 275.996 136.239 275.996C137.412 275.996 138.219 275.189 138.219 274.456ZM144.301 276.949V267.709H147.747C149.507 267.709 150.901 269.088 150.901 270.789C150.901 272.491 149.507 273.869 147.747 273.869H146.061V276.949H144.301ZM146.061 272.183H147.747C148.481 272.183 149.141 271.523 149.141 270.789C149.141 270.056 148.481 269.396 147.747 269.396H146.061V272.183ZM152.293 276.949V267.709H155.959C157.719 267.709 159.039 269.029 159.039 270.569C159.039 271.611 158.555 272.271 158.042 272.696C157.749 272.945 157.426 273.151 157.059 273.283L159.259 276.949H157.279L155.373 273.576H154.053V276.949H152.293ZM154.053 271.889H155.959C156.707 271.889 157.279 271.303 157.279 270.643C157.279 269.983 156.707 269.396 155.959 269.396H154.053V271.889ZM164.46 269.323C162.993 269.323 161.746 270.569 161.746 272.329C161.746 274.089 162.993 275.336 164.46 275.336C165.926 275.336 167.173 274.089 167.173 272.329C167.173 270.569 165.926 269.323 164.46 269.323ZM164.46 267.636C166.88 267.636 168.933 269.689 168.933 272.329C168.933 274.969 166.88 277.023 164.46 277.023C162.04 277.023 159.986 274.969 159.986 272.329C159.986 269.689 162.04 267.636 164.46 267.636ZM172.085 275.263H173.259C174.725 275.263 176.045 273.928 176.045 272.329C176.045 270.731 174.725 269.396 173.259 269.396H172.085V275.263ZM170.325 276.949V267.709H173.259C175.679 267.709 177.805 269.836 177.805 272.329C177.805 274.823 175.679 276.949 173.259 276.949H170.325ZM181.473 276.949L184.92 267.709H186.533L189.98 276.949H188.146L187.486 275.043H183.966L183.306 276.949H181.473ZM184.553 273.429H186.9L185.726 270.056L184.553 273.429ZM195.191 274.456H196.878C196.57 275.791 195.338 277.023 193.724 277.023C191.906 277.023 190.351 275.483 190.351 273.576C190.351 271.669 191.906 270.129 193.724 270.129C195.338 270.129 196.57 271.361 196.878 272.696H195.191C195.118 272.52 195 272.359 194.868 272.227C194.634 271.992 194.267 271.743 193.724 271.743C192.771 271.743 192.038 272.461 192.038 273.576C192.038 274.691 192.771 275.409 193.724 275.409C194.267 275.409 194.634 275.175 194.868 274.94C195 274.808 195.118 274.647 195.191 274.456ZM202.524 274.456H204.211C203.903 275.791 202.671 277.023 201.058 277.023C199.239 277.023 197.684 275.483 197.684 273.576C197.684 271.669 199.239 270.129 201.058 270.129C202.671 270.129 203.903 271.361 204.211 272.696H202.524C202.451 272.52 202.334 272.359 202.202 272.227C201.967 271.992 201.6 271.743 201.058 271.743C200.104 271.743 199.371 272.461 199.371 273.576C199.371 274.691 200.104 275.409 201.058 275.409C201.6 275.409 201.967 275.175 202.202 274.94C202.334 274.808 202.451 274.647 202.524 274.456ZM208.391 271.743C207.438 271.743 206.704 272.461 206.704 273.576C206.704 274.691 207.438 275.409 208.391 275.409C209.344 275.409 210.078 274.691 210.078 273.576C210.078 272.461 209.344 271.743 208.391 271.743ZM208.391 270.129C210.21 270.129 211.764 271.669 211.764 273.576C211.764 275.483 210.21 277.023 208.391 277.023C206.572 277.023 205.018 275.483 205.018 273.576C205.018 271.669 206.572 270.129 208.391 270.129ZM213.004 274.163V270.203H214.691V273.943C214.691 274.823 215.263 275.409 216.084 275.409C216.906 275.409 217.478 274.823 217.478 273.943V270.203H219.164V276.949H217.918L217.624 276.289C217.463 276.421 217.272 276.553 217.082 276.656C216.744 276.847 216.26 277.023 215.718 277.023C214.119 277.023 213.004 275.923 213.004 274.163ZM220.782 276.949V270.203H222.028L222.322 270.863C222.483 270.731 222.674 270.599 222.864 270.496C223.202 270.32 223.656 270.129 224.228 270.129C225.827 270.129 226.942 271.229 226.942 272.989V276.949H225.255V273.209C225.255 272.329 224.683 271.743 223.862 271.743C223.04 271.743 222.468 272.329 222.468 273.209V276.949H220.782ZM229.001 274.603V271.743H227.974V270.349H228.414C228.957 270.349 229.221 270.085 229.221 269.543V268.589H230.687V270.203H232.154V271.743H230.687V274.529C230.687 275.116 231.054 275.483 231.641 275.483C231.802 275.483 231.89 275.468 231.963 275.453L232.081 275.409V276.876C232.007 276.905 231.934 276.935 231.846 276.949C231.685 276.993 231.494 277.023 231.274 277.023C229.939 277.023 229.001 276.069 229.001 274.603ZM233.543 276.949V270.203H235.23V276.949H233.543ZM234.423 269.396C233.91 269.396 233.47 268.956 233.47 268.443C233.47 267.929 233.91 267.489 234.423 267.489C234.937 267.489 235.377 267.929 235.377 268.443C235.377 268.956 234.937 269.396 234.423 269.396ZM236.838 276.949V270.203H238.084L238.378 270.863C238.539 270.731 238.73 270.599 238.92 270.496C239.258 270.32 239.712 270.129 240.284 270.129C241.883 270.129 242.998 271.229 242.998 272.989V276.949H241.311V273.209C241.311 272.329 240.739 271.743 239.918 271.743C239.096 271.743 238.524 272.329 238.524 273.209V276.949H236.838ZM244.47 277.243H246.157C246.23 277.375 246.318 277.477 246.435 277.58C246.655 277.741 246.963 277.903 247.477 277.903C248.43 277.903 249.017 277.331 249.017 276.509V275.996C248.885 276.128 248.723 276.26 248.547 276.363C248.239 276.553 247.799 276.729 247.257 276.729C245.555 276.729 244.177 275.336 244.177 273.429C244.177 271.523 245.555 270.129 247.257 270.129C247.843 270.129 248.313 270.32 248.65 270.496C248.841 270.599 249.002 270.731 249.163 270.863L249.457 270.203H250.703V276.509C250.703 278.269 249.53 279.443 247.477 279.443C246.23 279.443 245.497 278.915 245.042 278.343C244.793 278.02 244.602 277.653 244.47 277.243ZM247.477 275.116C248.342 275.116 249.09 274.368 249.09 273.429C249.09 272.491 248.342 271.743 247.477 271.743C246.582 271.743 245.863 272.491 245.863 273.429C245.863 274.368 246.582 275.116 247.477 275.116ZM127.142 293.949V287.349H132.715V293.949H131.615V288.376H128.242V293.949H127.142ZM137.258 292.996C138.27 292.996 139.238 292.057 139.238 290.649C139.238 289.241 138.27 288.303 137.258 288.303C136.232 288.303 135.278 289.241 135.278 290.649C135.278 292.057 136.232 292.996 137.258 292.996ZM137.258 294.023C135.557 294.023 134.178 292.629 134.178 290.649C134.178 288.669 135.557 287.276 137.258 287.276C138.96 287.276 140.338 288.669 140.338 290.649C140.338 292.629 138.96 294.023 137.258 294.023ZM140.639 293.949V292.996H140.785C141.504 292.996 141.885 292.6 141.959 291.823L142.325 287.349H146.799V293.949H145.699V288.303H143.279L143.059 291.823C142.956 293.231 142.193 294.023 141.079 294.023C140.961 294.023 140.873 294.008 140.771 293.993L140.639 293.949ZM149.005 296.296V295.416C149.665 295.416 149.944 295.123 150.179 294.536L150.472 293.803L147.905 287.349H149.079L151.059 292.409L153.039 287.349H154.212L151.352 294.536C150.824 295.871 150.311 296.369 149.445 296.369C149.328 296.369 149.24 296.355 149.137 296.34L149.005 296.296ZM159.348 293.949V291.529C159.187 291.617 159.026 291.691 158.835 291.749C158.498 291.867 158.028 291.969 157.442 291.969C156.107 291.969 155.168 291.016 155.168 289.549V287.349H156.268V289.549C156.268 290.371 156.855 290.943 157.735 290.943C158.19 290.943 158.571 290.825 158.864 290.693C159.04 290.62 159.202 290.532 159.348 290.429V287.349H160.448V293.949H159.348ZM162.362 293.949V287.349H163.462V292.263L166.835 287.349H167.935V293.949H166.835V289.036L163.462 293.949H162.362ZM168.885 293.949L171.232 290.576L169.032 287.349H170.278L171.892 289.769L173.505 287.349H174.752L172.552 290.576L174.898 293.949H173.652L171.892 291.383L170.132 293.949H168.885ZM177.174 293.949V288.376H175.121V287.349H180.327V288.376H178.274V293.949H177.174ZM185.681 292.189H186.854C186.414 293.143 185.534 294.023 184.067 294.023C182.307 294.023 180.914 292.629 180.914 290.649C180.914 288.669 182.395 287.276 183.994 287.276C185.607 287.276 187.001 288.581 187.001 290.576C187.001 290.767 186.971 290.899 186.957 291.001L186.927 291.163H182.087C182.161 292.116 183.026 292.996 184.067 292.996C184.933 292.996 185.461 292.497 185.681 292.189ZM182.087 290.209H185.901C185.739 289.109 184.947 288.303 183.994 288.303C183.041 288.303 182.249 289.109 182.087 290.209ZM196.39 288.889V292.409C196.493 292.541 196.61 292.644 196.742 292.747C196.977 292.908 197.3 293.069 197.71 293.069C198.664 293.069 199.397 292.336 199.397 290.649C199.397 288.963 198.664 288.229 197.71 288.229C197.3 288.229 196.977 288.405 196.742 288.567C196.61 288.669 196.493 288.772 196.39 288.889ZM195.29 296.296V293.509C195.173 293.612 195.041 293.7 194.894 293.773C194.645 293.905 194.293 294.023 193.897 294.023C192.43 294.023 191.184 292.776 191.184 290.649C191.184 288.523 192.43 287.276 193.897 287.276C194.293 287.276 194.645 287.408 194.894 287.54C195.041 287.613 195.173 287.701 195.29 287.789V284.709H196.39V287.789C196.508 287.701 196.64 287.613 196.786 287.54C197.036 287.408 197.373 287.276 197.784 287.276C199.25 287.276 200.497 288.523 200.497 290.649C200.497 292.776 199.25 294.023 197.784 294.023C197.373 294.023 197.036 293.905 196.786 293.773C196.64 293.7 196.508 293.612 196.39 293.509V296.296H195.29ZM195.29 292.409V288.889C195.188 288.772 195.07 288.669 194.938 288.567C194.704 288.405 194.366 288.229 193.97 288.229C193.017 288.229 192.284 288.963 192.284 290.649C192.284 292.336 193.017 293.069 193.97 293.069C194.366 293.069 194.704 292.908 194.938 292.747C195.07 292.644 195.188 292.541 195.29 292.409ZM206.145 293.949L205.851 293.216C205.705 293.377 205.543 293.509 205.353 293.627C205.015 293.847 204.531 294.023 203.871 294.023C202.551 294.023 201.671 293.143 201.671 292.043C201.671 290.796 202.551 289.916 205.851 289.916V289.549C205.851 288.889 205.279 288.303 204.458 288.303C203.637 288.303 203.299 288.669 203.138 289.256H201.965C202.126 288.156 202.991 287.276 204.458 287.276C205.925 287.276 206.951 288.317 206.951 289.549V293.949H206.145ZM205.851 291.456V290.943C203.211 290.943 202.771 291.383 202.771 292.116C202.771 292.571 203.211 292.996 203.871 292.996C205.045 292.996 205.851 292.189 205.851 291.456ZM208.782 293.949V287.349H209.882V292.263L213.256 287.349H214.356V293.949H213.256V289.036L209.882 293.949H208.782ZM209.809 284.709H210.689C210.762 285.223 211.114 285.589 211.569 285.589C212.024 285.589 212.376 285.223 212.449 284.709H213.329C213.168 285.589 212.522 286.323 211.569 286.323C210.616 286.323 209.97 285.589 209.809 284.709ZM215.232 293.949V292.996H215.379C216.098 292.996 216.479 292.6 216.552 291.823L216.919 287.349H221.392V293.949H220.292V288.303H217.872L217.652 291.823C217.55 293.231 216.787 294.023 215.672 294.023C215.555 294.023 215.467 294.008 215.364 293.993L215.232 293.949ZM231.297 293.949L231.004 293.289C230.842 293.421 230.681 293.553 230.49 293.656C230.153 293.847 229.684 294.023 229.097 294.023C227.41 294.023 225.944 292.571 225.944 290.576C225.944 288.581 227.41 287.129 229.097 287.129C229.64 287.129 230.08 287.305 230.388 287.467C230.564 287.569 230.725 287.672 230.857 287.789V284.709H232.544V293.949H231.297ZM229.317 292.409C230.27 292.409 231.004 291.691 231.004 290.576C231.004 289.461 230.27 288.743 229.317 288.743C228.364 288.743 227.63 289.461 227.63 290.576C227.63 291.691 228.364 292.409 229.317 292.409ZM237.166 288.743C236.212 288.743 235.479 289.461 235.479 290.576C235.479 291.691 236.212 292.409 237.166 292.409C238.119 292.409 238.852 291.691 238.852 290.576C238.852 289.461 238.119 288.743 237.166 288.743ZM237.166 287.129C238.984 287.129 240.539 288.669 240.539 290.576C240.539 292.483 238.984 294.023 237.166 294.023C235.347 294.023 233.792 292.483 233.792 290.576C233.792 288.669 235.347 287.129 237.166 287.129ZM246.252 291.456H247.939C247.631 292.791 246.399 294.023 244.786 294.023C242.967 294.023 241.412 292.483 241.412 290.576C241.412 288.669 242.967 287.129 244.786 287.129C246.399 287.129 247.631 288.361 247.939 289.696H246.252C246.179 289.52 246.062 289.359 245.93 289.227C245.695 288.992 245.328 288.743 244.786 288.743C243.832 288.743 243.099 289.461 243.099 290.576C243.099 291.691 243.832 292.409 244.786 292.409C245.328 292.409 245.695 292.175 245.93 291.94C246.062 291.808 246.179 291.647 246.252 291.456ZM248.819 293.069C248.819 292.556 249.259 292.116 249.772 292.116C250.286 292.116 250.726 292.556 250.726 293.069C250.726 293.583 250.286 294.023 249.772 294.023C249.259 294.023 248.819 293.583 248.819 293.069ZM250.655 296.223V294.756L250.758 294.8C250.86 294.815 250.963 294.829 251.095 294.829C251.682 294.829 252.048 294.463 252.048 293.876V287.203H253.735V293.949C253.735 295.416 252.796 296.369 251.462 296.369C251.242 296.369 251.051 296.34 250.89 296.296C250.802 296.281 250.728 296.252 250.655 296.223ZM252.928 286.396C252.415 286.396 251.975 285.956 251.975 285.443C251.975 284.929 252.415 284.489 252.928 284.489C253.442 284.489 253.882 284.929 253.882 285.443C253.882 285.956 253.442 286.396 252.928 286.396ZM255.343 296.296V287.203H256.589L256.883 287.863C257.029 287.731 257.205 287.599 257.396 287.496C257.733 287.32 258.203 287.129 258.789 287.129C260.476 287.129 261.943 288.581 261.943 290.576C261.943 292.571 260.476 294.023 258.789 294.023C258.217 294.023 257.807 293.861 257.499 293.7C257.323 293.597 257.161 293.495 257.029 293.363V296.296H255.343ZM258.569 292.409C259.523 292.409 260.256 291.691 260.256 290.576C260.256 289.461 259.523 288.743 258.569 288.743C257.616 288.743 256.883 289.461 256.883 290.576C256.883 291.691 257.616 292.409 258.569 292.409ZM263.118 294.243H264.805C264.878 294.375 264.966 294.477 265.084 294.58C265.304 294.741 265.612 294.903 266.125 294.903C267.078 294.903 267.665 294.331 267.665 293.509V292.996C267.533 293.128 267.372 293.26 267.196 293.363C266.888 293.553 266.448 293.729 265.905 293.729C264.204 293.729 262.825 292.336 262.825 290.429C262.825 288.523 264.204 287.129 265.905 287.129C266.492 287.129 266.961 287.32 267.298 287.496C267.489 287.599 267.65 287.731 267.812 287.863L268.105 287.203H269.352V293.509C269.352 295.269 268.178 296.443 266.125 296.443C264.878 296.443 264.145 295.915 263.69 295.343C263.441 295.02 263.25 294.653 263.118 294.243ZM266.125 292.116C266.99 292.116 267.738 291.368 267.738 290.429C267.738 289.491 266.99 288.743 266.125 288.743C265.23 288.743 264.512 289.491 264.512 290.429C264.512 291.368 265.23 292.116 266.125 292.116ZM270.969 295.343L270.822 295.123C270.925 295.02 271.013 294.917 271.086 294.815C271.218 294.624 271.365 294.36 271.409 294.023C270.954 294.023 270.676 293.744 270.676 293.289C270.676 292.835 270.954 292.556 271.409 292.556C271.864 292.556 272.142 292.835 272.142 293.289C272.142 293.993 271.849 294.507 271.556 294.844C271.38 295.035 271.189 295.211 270.969 295.343ZM127.142 311.949V305.349H128.242V310.263L131.615 305.349H132.715V311.949H131.615V307.036L128.242 311.949H127.142ZM134.032 309.969H135.132C135.205 310.556 135.63 310.996 136.452 310.996C137.2 310.996 137.625 310.556 137.625 310.043C137.625 309.529 137.17 309.089 136.452 309.089H135.865V308.063H136.452C137.038 308.063 137.478 307.696 137.478 307.183C137.478 306.669 137.038 306.303 136.452 306.303C135.63 306.303 135.278 306.743 135.205 307.256H134.105C134.178 306.083 134.985 305.276 136.452 305.276C137.698 305.276 138.578 306.171 138.578 307.183C138.578 307.667 138.388 308.004 138.168 308.239C138.05 308.371 137.918 308.488 137.772 308.576C137.948 308.679 138.109 308.796 138.241 308.928C138.476 309.163 138.725 309.529 138.725 310.043C138.725 311.143 137.845 312.023 136.452 312.023C134.985 312.023 134.105 311.143 134.032 309.969ZM140.262 311.949V305.349H145.835V311.949H144.735V306.376H141.362V311.949H140.262ZM150.745 310.996C151.845 310.996 152.798 310.057 152.798 308.649C152.798 307.241 151.845 306.303 150.745 306.303C149.645 306.303 148.691 307.241 148.691 308.649C148.691 310.057 149.645 310.996 150.745 310.996ZM147.738 314.296V305.349H148.545L148.838 306.083C148.97 305.936 149.146 305.804 149.337 305.687C149.674 305.467 150.158 305.276 150.818 305.276C152.519 305.276 153.898 306.669 153.898 308.649C153.898 310.629 152.519 312.023 150.818 312.023C150.158 312.023 149.674 311.803 149.337 311.583C149.146 311.451 148.97 311.304 148.838 311.143V314.296H147.738ZM159.538 311.949L159.245 311.216C159.098 311.377 158.937 311.509 158.746 311.627C158.409 311.847 157.925 312.023 157.265 312.023C155.945 312.023 155.065 311.143 155.065 310.043C155.065 308.796 155.945 307.916 159.245 307.916V307.549C159.245 306.889 158.673 306.303 157.851 306.303C157.03 306.303 156.693 306.669 156.531 307.256H155.358C155.519 306.156 156.385 305.276 157.851 305.276C159.318 305.276 160.345 306.317 160.345 307.549V311.949H159.538ZM159.245 309.456V308.943C156.605 308.943 156.165 309.383 156.165 310.116C156.165 310.571 156.605 310.996 157.265 310.996C158.438 310.996 159.245 310.189 159.245 309.456ZM163.352 311.949V306.376H161.299V305.349H166.506V306.376H164.452V311.949H163.352ZM171.859 310.189H173.032C172.592 311.143 171.712 312.023 170.246 312.023C168.486 312.023 167.092 310.629 167.092 308.649C167.092 306.669 168.574 305.276 170.172 305.276C171.786 305.276 173.179 306.581 173.179 308.576C173.179 308.767 173.15 308.899 173.135 309.001L173.106 309.163H168.266C168.339 310.116 169.204 310.996 170.246 310.996C171.111 310.996 171.639 310.497 171.859 310.189ZM168.266 308.209H172.079C171.918 307.109 171.126 306.303 170.172 306.303C169.219 306.303 168.427 307.109 168.266 308.209ZM174.651 311.949V305.349H175.751V308.063H179.124V305.349H180.224V311.949H179.124V309.089H175.751V311.949H174.651ZM187.918 310.996C188.93 310.996 189.898 310.057 189.898 308.649C189.898 307.241 188.93 306.303 187.918 306.303C186.892 306.303 185.938 307.241 185.938 308.649C185.938 310.057 186.892 310.996 187.918 310.996ZM187.918 312.023C186.217 312.023 184.838 310.629 184.838 308.649C184.838 306.669 186.217 305.276 187.918 305.276C189.62 305.276 190.998 306.669 190.998 308.649C190.998 310.629 189.62 312.023 187.918 312.023ZM193.645 311.949V306.376H191.592V305.349H196.799V306.376H194.745V311.949H193.645ZM200.166 313.709V310.263H200.68C200.841 310.189 201.002 310.072 201.134 309.94C201.369 309.705 201.633 309.309 201.706 308.723L202.44 302.709H208.233V310.263H209.26V313.709H207.5V311.949H201.926V313.709H200.166ZM202.66 310.263H206.473V304.396H203.906L203.393 308.723C203.32 309.309 203.129 309.705 202.968 309.94C202.865 310.072 202.762 310.189 202.66 310.263ZM213.29 306.743C212.336 306.743 211.603 307.461 211.603 308.576C211.603 309.691 212.336 310.409 213.29 310.409C214.243 310.409 214.976 309.691 214.976 308.576C214.976 307.461 214.243 306.743 213.29 306.743ZM213.29 305.129C215.108 305.129 216.663 306.669 216.663 308.576C216.663 310.483 215.108 312.023 213.29 312.023C211.471 312.023 209.916 310.483 209.916 308.576C209.916 306.669 211.471 305.129 213.29 305.129ZM223.403 302.416V304.029C220.293 304.103 219.531 304.909 219.296 306.449C219.428 306.288 219.604 306.141 219.795 306.009C220.132 305.789 220.616 305.569 221.276 305.569C222.963 305.569 224.283 306.816 224.283 308.796C224.283 310.615 222.889 312.023 220.983 312.023C219.061 312.023 217.609 310.556 217.609 307.916C217.609 304.103 219.149 302.577 223.403 302.416ZM220.983 310.409C221.848 310.409 222.596 309.691 222.596 308.796C222.596 307.931 221.848 307.183 220.983 307.183C220.088 307.183 219.369 307.931 219.369 308.796C219.369 309.691 220.088 310.409 220.983 310.409ZM225.522 314.296V305.203H226.769L227.062 305.863C227.209 305.731 227.385 305.599 227.576 305.496C227.913 305.32 228.382 305.129 228.969 305.129C230.656 305.129 232.122 306.581 232.122 308.576C232.122 310.571 230.656 312.023 228.969 312.023C228.397 312.023 227.986 311.861 227.678 311.7C227.502 311.597 227.341 311.495 227.209 311.363V314.296H225.522ZM228.749 310.409C229.702 310.409 230.436 309.691 230.436 308.576C230.436 307.461 229.702 306.743 228.749 306.743C227.796 306.743 227.062 307.461 227.062 308.576C227.062 309.691 227.796 310.409 228.749 310.409ZM236.378 306.743C235.425 306.743 234.691 307.461 234.691 308.576C234.691 309.691 235.425 310.409 236.378 310.409C237.331 310.409 238.065 309.691 238.065 308.576C238.065 307.461 237.331 306.743 236.378 306.743ZM236.378 305.129C238.197 305.129 239.751 306.669 239.751 308.576C239.751 310.483 238.197 312.023 236.378 312.023C234.559 312.023 233.005 310.483 233.005 308.576C233.005 306.669 234.559 305.129 236.378 305.129ZM240.991 311.949V305.203H242.605L244.731 309.749L246.858 305.203H248.471V311.949H246.785V308.503L245.171 311.949H244.291L242.678 308.503V311.949H240.991ZM250.086 311.949V305.203H251.773V309.456L254.633 305.203H256.246V311.949H254.56V307.696L251.7 311.949H250.086ZM257.864 314.296V305.203H259.11L259.404 305.863C259.55 305.731 259.726 305.599 259.917 305.496C260.254 305.32 260.724 305.129 261.31 305.129C262.997 305.129 264.464 306.581 264.464 308.576C264.464 310.571 262.997 312.023 261.31 312.023C260.738 312.023 260.328 311.861 260.02 311.7C259.844 311.597 259.682 311.495 259.55 311.363V314.296H257.864ZM261.09 310.409C262.044 310.409 262.777 309.691 262.777 308.576C262.777 307.461 262.044 306.743 261.09 306.743C260.137 306.743 259.404 307.461 259.404 308.576C259.404 309.691 260.137 310.409 261.09 310.409ZM131.175 328.949V326.529C131.014 326.617 130.852 326.691 130.662 326.749C130.324 326.867 129.855 326.969 129.268 326.969C127.934 326.969 126.995 326.016 126.995 324.549V322.349H128.095V324.549C128.095 325.371 128.682 325.943 129.562 325.943C130.016 325.943 130.398 325.825 130.691 325.693C130.867 325.62 131.028 325.532 131.175 325.429V322.349H132.275V328.949H131.175ZM137.195 327.996C138.295 327.996 139.249 327.057 139.249 325.649C139.249 324.241 138.295 323.303 137.195 323.303C136.095 323.303 135.142 324.241 135.142 325.649C135.142 327.057 136.095 327.996 137.195 327.996ZM134.189 331.296V322.349H134.995L135.289 323.083C135.421 322.936 135.597 322.804 135.787 322.687C136.125 322.467 136.609 322.276 137.269 322.276C138.97 322.276 140.349 323.669 140.349 325.649C140.349 327.629 138.97 329.023 137.269 329.023C136.609 329.023 136.125 328.803 135.787 328.583C135.597 328.451 135.421 328.304 135.289 328.143V331.296H134.189ZM146.135 327.189H147.308C146.868 328.143 145.988 329.023 144.522 329.023C142.762 329.023 141.368 327.629 141.368 325.649C141.368 323.669 142.85 322.276 144.448 322.276C146.062 322.276 147.455 323.581 147.455 325.576C147.455 325.767 147.426 325.899 147.411 326.001L147.382 326.163H142.542C142.615 327.116 143.48 327.996 144.522 327.996C145.387 327.996 145.915 327.497 146.135 327.189ZM142.542 325.209H146.355C146.194 324.109 145.402 323.303 144.448 323.303C143.495 323.303 142.703 324.109 142.542 325.209ZM148.34 326.969H149.44C149.514 327.556 149.939 327.996 150.76 327.996C151.508 327.996 151.934 327.556 151.934 327.043C151.934 326.529 151.479 326.089 150.76 326.089H150.174V325.063H150.76C151.347 325.063 151.787 324.696 151.787 324.183C151.787 323.669 151.347 323.303 150.76 323.303C149.939 323.303 149.587 323.743 149.514 324.256H148.414C148.487 323.083 149.294 322.276 150.76 322.276C152.007 322.276 152.887 323.171 152.887 324.183C152.887 324.667 152.696 325.004 152.476 325.239C152.359 325.371 152.227 325.488 152.08 325.576C152.256 325.679 152.418 325.796 152.55 325.928C152.784 326.163 153.034 326.529 153.034 327.043C153.034 328.143 152.154 329.023 150.76 329.023C149.294 329.023 148.414 328.143 148.34 326.969ZM160.288 328.949L156.915 319.709H158.161L160.875 327.263L163.588 319.709H164.835L161.461 328.949H160.288ZM165.928 328.949V322.349H167.028V328.949H165.928ZM165.782 320.487C165.782 320.076 166.075 319.783 166.471 319.783C166.882 319.783 167.175 320.076 167.175 320.487C167.175 320.883 166.882 321.176 166.471 321.176C166.075 321.176 165.782 320.883 165.782 320.487ZM172.016 327.996C173.116 327.996 174.069 327.057 174.069 325.649C174.069 324.241 173.116 323.303 172.016 323.303C170.916 323.303 169.963 324.241 169.963 325.649C169.963 327.057 170.916 327.996 172.016 327.996ZM169.009 328.949V319.709H170.109V323.156C170.241 322.995 170.417 322.848 170.608 322.716C170.945 322.496 171.429 322.276 172.089 322.276C173.791 322.276 175.169 323.669 175.169 325.649C175.169 327.629 173.791 329.023 172.089 329.023C171.429 329.023 170.945 328.847 170.608 328.627C170.417 328.509 170.241 328.377 170.109 328.216L169.816 328.949H169.009ZM180.968 327.189H182.142C181.702 328.143 180.822 329.023 179.355 329.023C177.595 329.023 176.202 327.629 176.202 325.649C176.202 323.669 177.683 322.276 179.282 322.276C180.895 322.276 182.288 323.581 182.288 325.576C182.288 325.767 182.259 325.899 182.244 326.001L182.215 326.163H177.375C177.448 327.116 178.314 327.996 179.355 327.996C180.22 327.996 180.748 327.497 180.968 327.189ZM177.375 325.209H181.188C181.027 324.109 180.235 323.303 179.282 323.303C178.328 323.303 177.536 324.109 177.375 325.209ZM183.76 328.949V322.349H184.567L184.86 323.083C184.992 322.936 185.154 322.804 185.344 322.687C185.682 322.467 186.136 322.276 186.767 322.276H186.914V323.376H186.62C185.579 323.376 184.86 324.095 184.86 325.209V328.949H183.76ZM190.722 326.969H191.822C191.895 327.556 192.32 327.996 193.142 327.996C193.89 327.996 194.315 327.556 194.315 327.043C194.315 326.529 193.86 326.089 193.142 326.089H192.555V325.063H193.142C193.728 325.063 194.168 324.696 194.168 324.183C194.168 323.669 193.728 323.303 193.142 323.303C192.32 323.303 191.968 323.743 191.895 324.256H190.795C190.868 323.083 191.675 322.276 193.142 322.276C194.388 322.276 195.268 323.171 195.268 324.183C195.268 324.667 195.078 325.004 194.858 325.239C194.74 325.371 194.608 325.488 194.462 325.576C194.638 325.679 194.799 325.796 194.931 325.928C195.166 326.163 195.415 326.529 195.415 327.043C195.415 328.143 194.535 329.023 193.142 329.023C191.675 329.023 190.795 328.143 190.722 326.969ZM201.132 328.949L200.838 328.216C200.692 328.377 200.53 328.509 200.34 328.627C200.002 328.847 199.518 329.023 198.858 329.023C197.538 329.023 196.658 328.143 196.658 327.043C196.658 325.796 197.538 324.916 200.838 324.916V324.549C200.838 323.889 200.266 323.303 199.445 323.303C198.624 323.303 198.286 323.669 198.125 324.256H196.952C197.113 323.156 197.978 322.276 199.445 322.276C200.912 322.276 201.938 323.317 201.938 324.549V328.949H201.132ZM200.838 326.456V325.943C198.198 325.943 197.758 326.383 197.758 327.116C197.758 327.571 198.198 327.996 198.858 327.996C200.032 327.996 200.838 327.189 200.838 326.456ZM206.92 328.949V322.349H208.02V325.503L210.514 322.349H211.76L209.267 325.429L212.127 328.949H210.807L208.02 325.503V328.949H206.92ZM211.981 328.949V327.996H212.128C212.846 327.996 213.228 327.6 213.301 326.823L213.668 322.349H218.141V328.949H217.041V323.303H214.621L214.401 326.823C214.298 328.231 213.536 329.023 212.421 329.023C212.304 329.023 212.216 329.008 212.113 328.993L211.981 328.949ZM220.055 328.949V322.349H221.155V327.263L224.528 322.349H225.628V328.949H224.528V324.036L221.155 328.949H220.055ZM231.858 327.189H233.031C232.591 328.143 231.711 329.023 230.244 329.023C228.484 329.023 227.091 327.629 227.091 325.649C227.091 323.669 228.572 322.276 230.171 322.276C231.784 322.276 233.178 323.581 233.178 325.576C233.178 325.767 233.148 325.899 233.134 326.001L233.104 326.163H228.264C228.338 327.116 229.203 327.996 230.244 327.996C231.11 327.996 231.638 327.497 231.858 327.189ZM228.264 325.209H232.078C231.916 324.109 231.124 323.303 230.171 323.303C229.218 323.303 228.426 324.109 228.264 325.209ZM234.65 328.949V322.349H235.75V325.063H239.123V322.349H240.223V328.949H239.123V326.089H235.75V328.949H234.65ZM243.446 328.949V323.376H241.393V322.349H246.599V323.376H244.546V328.949H243.446ZM127.142 345.949V336.709H130.588C132.348 336.709 133.742 338.088 133.742 339.789C133.742 341.491 132.348 342.869 130.588 342.869H128.902V345.949H127.142ZM128.902 341.183H130.588C131.322 341.183 131.982 340.523 131.982 339.789C131.982 339.056 131.322 338.396 130.588 338.396H128.902V341.183ZM135.134 345.949V336.709H138.801C140.561 336.709 141.881 338.029 141.881 339.569C141.881 340.611 141.397 341.271 140.883 341.696C140.59 341.945 140.267 342.151 139.901 342.283L142.101 345.949H140.121L138.214 342.576H136.894V345.949H135.134ZM136.894 340.889H138.801C139.549 340.889 140.121 340.303 140.121 339.643C140.121 338.983 139.549 338.396 138.801 338.396H136.894V340.889ZM147.301 338.323C145.834 338.323 144.588 339.569 144.588 341.329C144.588 343.089 145.834 344.336 147.301 344.336C148.768 344.336 150.014 343.089 150.014 341.329C150.014 339.569 148.768 338.323 147.301 338.323ZM147.301 336.636C149.721 336.636 151.774 338.689 151.774 341.329C151.774 343.969 149.721 346.023 147.301 346.023C144.881 346.023 142.828 343.969 142.828 341.329C142.828 338.689 144.881 336.636 147.301 336.636ZM154.926 344.263H156.1C157.566 344.263 158.886 342.928 158.886 341.329C158.886 339.731 157.566 338.396 156.1 338.396H154.926V344.263ZM153.166 345.949V336.709H156.1C158.52 336.709 160.646 338.836 160.646 341.329C160.646 343.823 158.52 345.949 156.1 345.949H153.166ZM165.341 345.949V336.709H167.101V340.816L170.181 336.709H172.234L168.788 341.256L172.454 345.949H170.401L167.101 341.769V345.949H165.341ZM173.115 345.949V336.709H174.802V345.949H173.115ZM176.409 345.949V339.203H178.096V345.949H176.409ZM177.289 338.396C176.776 338.396 176.336 337.956 176.336 337.443C176.336 336.929 176.776 336.489 177.289 336.489C177.802 336.489 178.242 336.929 178.242 337.443C178.242 337.956 177.802 338.396 177.289 338.396ZM183.957 343.896H185.717C185.365 344.908 184.235 346.023 182.71 346.023C180.891 346.023 179.337 344.483 179.337 342.576C179.337 340.669 180.891 339.129 182.71 339.129C184.47 339.129 185.937 340.523 185.937 342.576C185.937 342.737 185.907 342.884 185.893 343.016L185.863 343.236H181.17C181.331 343.896 181.83 344.409 182.71 344.409C183.165 344.409 183.443 344.292 183.663 344.16C183.781 344.087 183.883 343.999 183.957 343.896ZM181.097 342.063H184.323C184.162 341.315 183.59 340.743 182.71 340.743C181.83 340.743 181.258 341.315 181.097 342.063ZM187.18 345.949V339.203H188.427L188.72 339.863C188.881 339.731 189.072 339.599 189.263 339.496C189.6 339.32 190.055 339.129 190.627 339.129C192.225 339.129 193.34 340.229 193.34 341.989V345.949H191.653V342.209C191.653 341.329 191.081 340.743 190.26 340.743C189.439 340.743 188.867 341.329 188.867 342.209V345.949H187.18ZM195.399 343.603V340.743H194.372V339.349H194.812C195.355 339.349 195.619 339.085 195.619 338.543V337.589H197.086V339.203H198.552V340.743H197.086V343.529C197.086 344.116 197.452 344.483 198.039 344.483C198.2 344.483 198.288 344.468 198.362 344.453L198.479 344.409V345.876C198.406 345.905 198.332 345.935 198.244 345.949C198.083 345.993 197.892 346.023 197.672 346.023C196.338 346.023 195.399 345.069 195.399 343.603ZM203.239 345.949V339.349H206.173C207.273 339.349 208.079 340.156 208.079 341.183C208.079 341.667 207.889 341.975 207.669 342.195C207.551 342.312 207.419 342.415 207.273 342.503C207.463 342.591 207.625 342.708 207.786 342.84C208.035 343.075 208.299 343.456 208.299 344.043C208.299 345.157 207.507 345.949 206.393 345.949H203.239ZM204.339 342.063H206.026C206.613 342.063 206.979 341.711 206.979 341.256C206.979 340.743 206.613 340.376 206.026 340.376H204.339V342.063ZM204.339 344.923H206.246C206.759 344.923 207.199 344.483 207.199 343.969C207.199 343.529 206.774 343.089 206.246 343.089H204.339V344.923ZM212.922 345.949V339.349H214.022V342.503L216.515 339.349H217.762L215.268 342.429L218.128 345.949H216.808L214.022 342.503V345.949H212.922ZM223.189 345.949L222.896 345.216C222.749 345.377 222.588 345.509 222.397 345.627C222.06 345.847 221.576 346.023 220.916 346.023C219.596 346.023 218.716 345.143 218.716 344.043C218.716 342.796 219.596 341.916 222.896 341.916V341.549C222.896 340.889 222.324 340.303 221.502 340.303C220.681 340.303 220.344 340.669 220.182 341.256H219.009C219.17 340.156 220.036 339.276 221.502 339.276C222.969 339.276 223.996 340.317 223.996 341.549V345.949H223.189ZM222.896 343.456V342.943C220.256 342.943 219.816 343.383 219.816 344.116C219.816 344.571 220.256 344.996 220.916 344.996C222.089 344.996 222.896 344.189 222.896 343.456ZM227.003 345.949V340.376H224.95V339.349H230.157V340.376H228.103V345.949H227.003ZM235.51 344.189H236.683C236.243 345.143 235.363 346.023 233.897 346.023C232.137 346.023 230.743 344.629 230.743 342.649C230.743 340.669 232.225 339.276 233.823 339.276C235.437 339.276 236.83 340.581 236.83 342.576C236.83 342.767 236.801 342.899 236.786 343.001L236.757 343.163H231.917C231.99 344.116 232.855 344.996 233.897 344.996C234.762 344.996 235.29 344.497 235.51 344.189ZM231.917 342.209H235.73C235.569 341.109 234.777 340.303 233.823 340.303C232.87 340.303 232.078 341.109 231.917 342.209ZM238.302 345.949V339.349H242.629V340.376H239.402V345.949H238.302ZM246.227 344.996C247.239 344.996 248.207 344.057 248.207 342.649C248.207 341.241 247.239 340.303 246.227 340.303C245.2 340.303 244.247 341.241 244.247 342.649C244.247 344.057 245.2 344.996 246.227 344.996ZM246.227 346.023C244.526 346.023 243.147 344.629 243.147 342.649C243.147 340.669 244.526 339.276 246.227 339.276C247.928 339.276 249.307 340.669 249.307 342.649C249.307 344.629 247.928 346.023 246.227 346.023ZM253.784 344.996C254.884 344.996 255.837 344.057 255.837 342.649C255.837 341.241 254.884 340.303 253.784 340.303C252.684 340.303 251.731 341.241 251.731 342.649C251.731 344.057 252.684 344.996 253.784 344.996ZM250.777 348.296V339.349H251.584L251.877 340.083C252.009 339.936 252.185 339.804 252.376 339.687C252.713 339.467 253.197 339.276 253.857 339.276C255.559 339.276 256.937 340.669 256.937 342.649C256.937 344.629 255.559 346.023 253.857 346.023C253.197 346.023 252.713 345.803 252.376 345.583C252.185 345.451 252.009 345.304 251.877 345.143V348.296H250.777ZM258.397 345.949V339.349H259.497V344.263L262.87 339.349H263.97V345.949H262.87V341.036L259.497 345.949H258.397ZM265.434 345.949L266.974 343.456C266.724 343.383 266.504 343.251 266.314 343.075C265.976 342.781 265.654 342.297 265.654 341.476C265.654 340.229 266.519 339.349 267.927 339.349H270.714V345.949H269.614V343.603H268.147L266.68 345.949H265.434ZM267.927 342.576H269.614V340.376H267.927C267.267 340.376 266.754 340.889 266.754 341.476C266.754 342.063 267.267 342.576 267.927 342.576ZM127.142 363.949V357.349H132.715V363.949H131.615V358.376H128.242V363.949H127.142ZM137.625 362.996C138.725 362.996 139.678 362.057 139.678 360.649C139.678 359.241 138.725 358.303 137.625 358.303C136.525 358.303 135.572 359.241 135.572 360.649C135.572 362.057 136.525 362.996 137.625 362.996ZM134.618 366.296V357.349H135.425L135.718 358.083C135.85 357.936 136.026 357.804 136.217 357.687C136.554 357.467 137.038 357.276 137.698 357.276C139.4 357.276 140.778 358.669 140.778 360.649C140.778 362.629 139.4 364.023 137.698 364.023C137.038 364.023 136.554 363.803 136.217 363.583C136.026 363.451 135.85 363.304 135.718 363.143V366.296H134.618ZM142.238 363.949V357.349H143.338V362.263L146.711 357.349H147.811V363.949H146.711V359.036L143.338 363.949H142.238ZM148.761 363.949L151.108 360.576L148.908 357.349H150.155L151.768 359.769L153.381 357.349H154.628L152.428 360.576L154.775 363.949H153.528L151.768 361.383L150.008 363.949H148.761ZM158.227 362.996C159.239 362.996 160.207 362.057 160.207 360.649C160.207 359.241 159.239 358.303 158.227 358.303C157.2 358.303 156.247 359.241 156.247 360.649C156.247 362.057 157.2 362.996 158.227 362.996ZM158.227 364.023C156.526 364.023 155.147 362.629 155.147 360.649C155.147 358.669 156.526 357.276 158.227 357.276C159.928 357.276 161.307 358.669 161.307 360.649C161.307 362.629 159.928 364.023 158.227 364.023ZM161.824 365.563V362.923H162.191C162.337 362.82 162.469 362.688 162.587 362.541C162.807 362.292 163.012 361.94 163.071 361.456L163.511 357.349H167.837V362.923H168.717V365.563H167.691V363.949H162.851V365.563H161.824ZM163.511 362.923H166.737V358.376H164.493L164.171 361.456C164.127 361.94 163.965 362.292 163.804 362.541C163.701 362.688 163.613 362.82 163.511 362.923ZM169.967 363.949V357.349H171.067V362.263L174.441 357.349H175.541V363.949H174.441V359.036L171.067 363.949H169.967ZM177.004 363.289C177.004 362.835 177.283 362.556 177.737 362.556C178.192 362.556 178.471 362.835 178.471 363.289C178.471 363.744 178.192 364.023 177.737 364.023C177.283 364.023 177.004 363.744 177.004 363.289Z" fill="white"/>
<rect x="80.6667" y="312" width="260" height="160" fill="url(#paint5_linear_2121_940)"/>
</g>
<g filter="url(#filter1_d_2121_940)">
<path d="M311.187 177.333C312.967 177.953 313.808 180.023 312.965 181.709L293.923 219.787C292.741 222.151 289.346 221.981 288.341 219.507L267.177 167.428C266.171 164.954 268.484 162.464 270.98 163.333L311.187 177.333Z" fill="url(#paint6_linear_2121_940)"/>
</g>
<g filter="url(#filter2_d_2121_940)">
<path d="M325.886 171.371C325.046 173.051 325.883 175.109 327.656 175.727L367.868 189.736C370.362 190.605 372.681 188.118 371.678 185.65L350.506 133.553C349.503 131.085 346.107 130.921 344.926 133.283L325.886 171.371Z" fill="url(#paint7_linear_2121_940)"/>
</g>
<g filter="url(#filter3_d_2121_940)">
<path d="M316.017 173.181C316.754 172.007 318.182 171.427 319.528 171.754L369.582 183.902C372.515 184.613 372.736 188.584 369.907 189.733L292.462 221.206C289.633 222.356 287.022 219.356 288.626 216.801L316.017 173.181Z" fill="url(#paint8_linear_2121_940)"/>
</g>
<g filter="url(#filter4_d_2121_940)">
<path d="M319.356 181.312C320.683 181.633 322.081 181.064 322.807 179.909L350.228 136.275C351.827 133.73 349.227 130.71 346.419 131.851L268.914 163.348C266.107 164.489 266.351 168.466 269.271 169.174L319.356 181.312Z" fill="url(#paint9_linear_2121_940)"/>
</g>
<g filter="url(#filter5_d_2121_940)">
<path d="M80.881 296.912C80.1761 294.198 77.4313 292.562 74.7502 293.258C72.0691 293.954 70.467 296.719 71.1718 299.433L71.9138 302.291C62.9413 306.14 57.8982 316.162 60.4572 326.017L64.7071 342.384C65.532 345.561 64.6379 348.932 62.3556 351.249C56.9921 356.695 62.2104 365.858 69.5847 363.943L113.655 352.5C121.03 350.585 121.131 340.041 113.796 337.893C110.674 336.978 108.253 334.468 107.428 331.291L103.178 314.924C100.619 305.068 91.3357 298.766 81.6229 299.77L80.881 296.912ZM52.0952 306.907C53.1044 305.576 52.8506 303.665 51.5283 302.636C50.2061 301.608 48.3161 301.853 47.307 303.184C41.2036 311.23 38.6726 321.834 41.3933 332.312C41.8162 333.941 43.4631 334.922 45.0717 334.505C46.6804 334.087 47.6417 332.428 47.2188 330.799C45.0013 322.259 47.0424 313.568 52.0952 306.907ZM103.596 288.568C102.067 287.897 100.296 288.602 99.6412 290.143C98.9862 291.685 99.6946 293.479 101.224 294.15C101.734 294.374 102.237 294.613 102.732 294.866C109.664 298.401 115.038 304.68 117.108 312.652C117.531 314.281 119.178 315.262 120.787 314.845C122.395 314.427 123.357 312.768 122.934 311.139C120.395 301.362 113.805 293.71 105.42 289.433C104.821 289.127 104.212 288.839 103.596 288.568Z" fill="url(#paint10_linear_2121_940)"/>
<path d="M100.081 368.152C101.155 366.299 101.454 364.086 100.912 362L85.3773 366.034C85.9189 368.12 87.2566 369.907 89.0962 371.004C90.9358 372.1 93.1266 372.416 95.1866 371.881C97.2466 371.346 99.0072 370.005 100.081 368.152Z" fill="url(#paint11_linear_2121_940)"/>
</g>
</g>
<defs>
<filter id="filter0_d_2121_940" x="105.172" y="203.633" width="37.1741" height="37.1741" filterUnits="userSpaceOnUse" color-interpolation-filters="sRGB">
<feFlood flood-opacity="0" result="BackgroundImageFix"/>
<feColorMatrix in="SourceAlpha" type="matrix" values="0 0 0 0 0 0 0 0 0 0 0 0 0 0 0 0 0 0 127 0" result="hardAlpha"/>
<feOffset dy="1.21723"/>
<feGaussianBlur stdDeviation="1.70412"/>
<feComposite in2="hardAlpha" operator="out"/>
<feColorMatrix type="matrix" values="0 0 0 0 0.161625 0 0 0 0 0.18275 0 0 0 0 0.225 0 0 0 0.14 0"/>
<feBlend mode="normal" in2="BackgroundImageFix" result="effect1_dropShadow_2121_940"/>
<feBlend mode="normal" in="SourceGraphic" in2="effect1_dropShadow_2121_940" result="shape"/>
</filter>
<filter id="filter1_d_2121_940" x="243.499" y="131.907" width="124.482" height="136.433" filterUnits="userSpaceOnUse" color-interpolation-filters="sRGB">
<feFlood flood-opacity="0" result="BackgroundImageFix"/>
<feColorMatrix in="SourceAlpha" type="matrix" values="0 0 0 0 0 0 0 0 0 0 0 0 0 0 0 0 0 0 127 0" result="hardAlpha"/>
<feOffset dx="15.6248" dy="7.8124"/>
<feGaussianBlur stdDeviation="19.531"/>
<feComposite in2="hardAlpha" operator="out"/>
<feColorMatrix type="matrix" values="0 0 0 0 0.0666667 0 0 0 0 0.0980392 0 0 0 0 0.156863 0 0 0 0.32 0"/>
<feBlend mode="normal" in2="BackgroundImageFix" result="effect1_dropShadow_2121_940"/>
<feBlend mode="normal" in="SourceGraphic" in2="effect1_dropShadow_2121_940" result="shape"/>
</filter>
<filter id="filter2_d_2121_940" x="302.121" y="100.353" width="124.483" height="136.434" filterUnits="userSpaceOnUse" color-interpolation-filters="sRGB">
<feFlood flood-opacity="0" result="BackgroundImageFix"/>
<feColorMatrix in="SourceAlpha" type="matrix" values="0 0 0 0 0 0 0 0 0 0 0 0 0 0 0 0 0 0 127 0" result="hardAlpha"/>
<feOffset dx="15.6248" dy="7.8124"/>
<feGaussianBlur stdDeviation="19.531"/>
<feComposite in2="hardAlpha" operator="out"/>
<feColorMatrix type="matrix" values="0 0 0 0 0.0666667 0 0 0 0 0.0980392 0 0 0 0 0.156863 0 0 0 0.32 0"/>
<feBlend mode="normal" in2="BackgroundImageFix" result="effect1_dropShadow_2121_940"/>
<feBlend mode="normal" in="SourceGraphic" in2="effect1_dropShadow_2121_940" result="shape"/>
</filter>
<filter id="filter3_d_2121_940" x="264.699" y="140.414" width="161.898" height="127.919" filterUnits="userSpaceOnUse" color-interpolation-filters="sRGB">
<feFlood flood-opacity="0" result="BackgroundImageFix"/>
<feColorMatrix in="SourceAlpha" type="matrix" values="0 0 0 0 0 0 0 0 0 0 0 0 0 0 0 0 0 0 127 0" result="hardAlpha"/>
<feOffset dx="15.6248" dy="7.8124"/>
<feGaussianBlur stdDeviation="19.531"/>
<feComposite in2="hardAlpha" operator="out"/>
<feColorMatrix type="matrix" values="0 0 0 0 0.0666667 0 0 0 0 0.0980392 0 0 0 0 0.156863 0 0 0 0.32 0"/>
<feBlend mode="normal" in2="BackgroundImageFix" result="effect1_dropShadow_2121_940"/>
<feBlend mode="normal" in="SourceGraphic" in2="effect1_dropShadow_2121_940" result="shape"/>
</filter>
<filter id="filter4_d_2121_940" x="243.502" y="100.353" width="161.902" height="127.922" filterUnits="userSpaceOnUse" color-interpolation-filters="sRGB">
<feFlood flood-opacity="0" result="BackgroundImageFix"/>
<feColorMatrix in="SourceAlpha" type="matrix" values="0 0 0 0 0 0 0 0 0 0 0 0 0 0 0 0 0 0 127 0" result="hardAlpha"/>
<feOffset dx="15.6248" dy="7.8124"/>
<feGaussianBlur stdDeviation="19.531"/>
<feComposite in2="hardAlpha" operator="out"/>
<feColorMatrix type="matrix" values="0 0 0 0 0.0666667 0 0 0 0 0.0980392 0 0 0 0 0.156863 0 0 0 0.32 0"/>
<feBlend mode="normal" in2="BackgroundImageFix" result="effect1_dropShadow_2121_940"/>
<feBlend mode="normal" in="SourceGraphic" in2="effect1_dropShadow_2121_940" result="shape"/>
</filter>
<filter id="filter5_d_2121_940" x="16.8678" y="257.064" width="160.852" height="161.945" filterUnits="userSpaceOnUse" color-interpolation-filters="sRGB">
<feFlood flood-opacity="0" result="BackgroundImageFix"/>
<feColorMatrix in="SourceAlpha" type="matrix" values="0 0 0 0 0 0 0 0 0 0 0 0 0 0 0 0 0 0 127 0" result="hardAlpha"/>
<feOffset dx="15.6248" dy="7.8124"/>
<feGaussianBlur stdDeviation="19.531"/>
<feComposite in2="hardAlpha" operator="out"/>
<feColorMatrix type="matrix" values="0 0 0 0 0.0666667 0 0 0 0 0.0980392 0 0 0 0 0.156863 0 0 0 0.32 0"/>
<feBlend mode="normal" in2="BackgroundImageFix" result="effect1_dropShadow_2121_940"/>
<feBlend mode="normal" in="SourceGraphic" in2="effect1_dropShadow_2121_940" result="shape"/>
</filter>
<linearGradient id="paint0_linear_2121_940" x1="116.79" y1="220.842" x2="131.725" y2="220.842" gradientUnits="userSpaceOnUse">
<stop stop-color="#6094FF"/>
<stop offset="0.25" stop-color="#4C85FD"/>
<stop offset="0.77" stop-color="#185FF9"/>
<stop offset="1" stop-color="#004DF7"/>
</linearGradient>
<linearGradient id="paint1_linear_2121_940" x1="117.183" y1="228.381" x2="121.776" y2="225.174" gradientUnits="userSpaceOnUse">
<stop offset="0.07" stop-color="#5E93FF" stop-opacity="0.5"/>
<stop offset="0.3" stop-color="#517BE8" stop-opacity="0.59"/>
<stop offset="0.69" stop-color="#2E3CAD" stop-opacity="0.85"/>
<stop offset="0.89" stop-color="#191589"/>
</linearGradient>
<linearGradient id="paint2_linear_2121_940" x1="119.255" y1="228.918" x2="132.176" y2="213.529" gradientUnits="userSpaceOnUse">
<stop offset="0.07" stop-color="#5E93FF" stop-opacity="0.5"/>
<stop offset="0.27" stop-color="#3B54C4" stop-opacity="0.7"/>
<stop offset="0.48" stop-color="#222598" stop-opacity="0.85"/>
<stop offset="0.61" stop-color="#191589" stop-opacity="0.9"/>
<stop offset="0.67" stop-color="#18188D" stop-opacity="0.86"/>
<stop offset="0.75" stop-color="#15219A" stop-opacity="0.76"/>
<stop offset="0.82" stop-color="#1030AF" stop-opacity="0.59"/>
<stop offset="0.9" stop-color="#0945CD" stop-opacity="0.36"/>
<stop offset="0.99" stop-color="#0161F3" stop-opacity="0.05"/>
<stop offset="1" stop-color="#0066FA" stop-opacity="0"/>
</linearGradient>
<radialGradient id="paint3_radial_2121_940" cx="0" cy="0" r="1" gradientUnits="userSpaceOnUse" gradientTransform="translate(120.259 216.295) scale(3.91881)">
<stop stop-color="#191589" stop-opacity="0.9"/>
<stop offset="0.17" stop-color="#161E95" stop-opacity="0.8"/>
<stop offset="0.48" stop-color="#0E36B7" stop-opacity="0.53"/>
<stop offset="0.91" stop-color="#025DEE" stop-opacity="0.09"/>
<stop offset="1" stop-color="#0066FA" stop-opacity="0"/>
</radialGradient>
<radialGradient id="paint4_radial_2121_940" cx="0" cy="0" r="1" gradientUnits="userSpaceOnUse" gradientTransform="translate(128.19 216.69) scale(5.18172 5.18172)">
<stop offset="0.18" stop-color="#191589"/>
<stop offset="0.19" stop-color="#18168A" stop-opacity="0.99"/>
<stop offset="0.47" stop-color="#0E38BA" stop-opacity="0.57"/>
<stop offset="0.7" stop-color="#0651DC" stop-opacity="0.26"/>
<stop offset="0.89" stop-color="#0160F2" stop-opacity="0.07"/>
<stop offset="1" stop-color="#0066FA" stop-opacity="0"/>
</radialGradient>
<linearGradient id="paint5_linear_2121_940" x1="210.667" y1="312" x2="210.667" y2="423.074" gradientUnits="userSpaceOnUse">
<stop stop-color="#111928" stop-opacity="0"/>
<stop offset="1" stop-color="#111928"/>
</linearGradient>
<linearGradient id="paint6_linear_2121_940" x1="314.565" y1="178.51" x2="265.49" y2="198.453" gradientUnits="userSpaceOnUse">
<stop stop-color="#314872"/>
<stop offset="1" stop-color="#1F2D47"/>
</linearGradient>
<linearGradient id="paint7_linear_2121_940" x1="324.294" y1="174.556" x2="373.358" y2="154.617" gradientUnits="userSpaceOnUse">
<stop stop-color="#314872"/>
<stop offset="1" stop-color="#1F2D47"/>
</linearGradient>
<linearGradient id="paint8_linear_2121_940" x1="317.259" y1="171.203" x2="335.826" y2="216.892" gradientUnits="userSpaceOnUse">
<stop stop-color="#314872"/>
<stop offset="1" stop-color="#1F2D47"/>
</linearGradient>
<linearGradient id="paint9_linear_2121_940" x1="321.587" y1="181.852" x2="303.027" y2="136.182" gradientUnits="userSpaceOnUse">
<stop stop-color="#344F81"/>
<stop offset="1" stop-color="#1F2D47"/>
</linearGradient>
<linearGradient id="paint10_linear_2121_940" x1="74.3517" y1="291.641" x2="102.132" y2="398.628" gradientUnits="userSpaceOnUse">
<stop stop-color="#344F81"/>
<stop offset="1" stop-color="#1F2D47"/>
</linearGradient>
<linearGradient id="paint11_linear_2121_940" x1="74.3517" y1="291.641" x2="102.132" y2="398.628" gradientUnits="userSpaceOnUse">
<stop stop-color="#344F81"/>
<stop offset="1" stop-color="#1F2D47"/>
</linearGradient>
<clipPath id="clip0_2121_940">
<rect width="405.333" height="449.333" fill="white" transform="translate(0.666687 -0.000244141)"/>
</clipPath>
<clipPath id="clip1_2121_940">
<rect width="235.211" height="400" fill="white" transform="translate(86 43.9998)"/>
</clipPath>
<clipPath id="clip2_2121_940">
<rect width="16" height="16" fill="white" transform="translate(258.939 85.333)"/>
</clipPath>
<clipPath id="clip3_2121_940">
<rect width="14.9354" height="17.5993" fill="white" transform="translate(116.788 212.042)"/>
</clipPath>
</defs>
</svg>
