<svg width="406" height="324" viewBox="0 0 406 324" fill="none" xmlns="http://www.w3.org/2000/svg">
<rect x="0.5" y="0.5" width="405" height="323" rx="7.5" fill="#111928"/>
<rect x="0.5" y="0.5" width="405" height="323" rx="7.5" stroke="#1F2D47"/>
<path fill-rule="evenodd" clip-rule="evenodd" d="M92.584 29L92.5884 29.0046V217.38C92.5884 217.415 92.588 217.45 92.5873 217.484L92.584 217.488L89.8552 214.644V214.643L87.1263 211.799L84.396 214.643V214.644L81.6672 217.488L78.9384 214.644H78.9369L76.208 211.799L73.4792 214.644L70.7489 217.488L68.0201 214.644L65.2898 211.799L62.5609 214.644L59.8321 217.488L57.1018 214.644L54.3729 211.799L51.6426 214.644L48.9138 217.488L46.185 214.644L43.4547 211.799L40.7258 214.644L38.0011 217.484C38.0004 217.449 38 217.414 38 217.38V29.0031L40.7258 31.8436L43.4547 34.6888L46.185 31.8436L48.9138 29L51.6426 31.8436L54.3729 34.6888L57.1018 31.8436L59.8321 29L62.5609 31.8436L65.2897 34.6888L68.0201 31.8436L70.7489 29L73.4792 31.8436L76.208 34.6888L78.9369 31.8436H78.9384L81.6672 29L84.396 31.8436V31.8452L87.1263 34.6888L89.8552 31.8452V31.8436L92.584 29Z" fill="url(#paint0_linear_2121_1437)"/>
<line x1="48.7341" y1="55.9926" x2="80.7133" y2="55.9926" stroke="#7E98C8" stroke-width="2.389" stroke-linecap="round"/>
<line x1="48.7341" y1="86.6809" x2="80.7133" y2="86.6809" stroke="#7E98C8" stroke-width="2.389" stroke-linecap="round"/>
<line x1="48.7341" y1="99.1635" x2="80.7133" y2="99.1635" stroke="#7E98C8" stroke-width="2.389" stroke-linecap="round"/>
<line x1="48.7341" y1="111.646" x2="80.7133" y2="111.646" stroke="#7E98C8" stroke-width="2.389" stroke-linecap="round"/>
<line x1="48.7341" y1="124.128" x2="80.7133" y2="124.128" stroke="#7E98C8" stroke-width="2.389" stroke-linecap="round"/>
<line x1="48.7341" y1="136.616" x2="69.014" y2="136.616" stroke="#7E98C8" stroke-width="2.389" stroke-linecap="round"/>
<line x1="48.7341" y1="64.5557" x2="69.0135" y2="64.5557" stroke="#7E98C8" stroke-width="2.389" stroke-linecap="round"/>
<g filter="url(#filter0_d_2121_1437)">
<path d="M64.9145 98.4679C64.9145 95.8291 67.0537 93.6899 69.6925 93.6899H198.213C200.852 93.6899 202.991 95.8291 202.991 98.4679V266.734L172.883 293.847H69.6925C67.0537 293.847 64.9145 291.708 64.9145 289.069V98.4679Z" fill="url(#paint1_linear_2121_1437)"/>
</g>
<line x1="83.2342" y1="119.254" x2="131.152" y2="119.254" stroke="#7E98C8" stroke-width="2.389" stroke-linecap="round"/>
<line x1="83.2342" y1="127.817" x2="114.026" y2="127.817" stroke="#7E98C8" stroke-width="2.389" stroke-linecap="round"/>
<line x1="83.2342" y1="156.717" x2="152.559" y2="156.717" stroke="#7E98C8" stroke-width="2.389" stroke-linecap="round"/>
<line x1="83.2342" y1="171.702" x2="152.559" y2="171.702" stroke="#7E98C8" stroke-width="2.389" stroke-linecap="round"/>
<line x1="83.2342" y1="186.687" x2="152.559" y2="186.687" stroke="#7E98C8" stroke-width="2.389" stroke-linecap="round"/>
<line x1="83.2342" y1="201.672" x2="152.559" y2="201.672" stroke="#7E98C8" stroke-width="2.389" stroke-linecap="round"/>
<line x1="83.2342" y1="216.657" x2="152.559" y2="216.657" stroke="#7E98C8" stroke-width="2.389" stroke-linecap="round"/>
<line x1="167.793" y1="156.717" x2="184.671" y2="156.717" stroke="#7E98C8" stroke-width="2.389" stroke-linecap="round"/>
<line x1="167.793" y1="171.702" x2="184.671" y2="171.702" stroke="#7E98C8" stroke-width="2.389" stroke-linecap="round"/>
<line x1="167.793" y1="186.687" x2="184.671" y2="186.687" stroke="#7E98C8" stroke-width="2.389" stroke-linecap="round"/>
<line x1="167.793" y1="201.672" x2="184.671" y2="201.672" stroke="#7E98C8" stroke-width="2.389" stroke-linecap="round"/>
<line x1="167.793" y1="216.657" x2="184.671" y2="216.657" stroke="#7E98C8" stroke-width="2.389" stroke-linecap="round"/>
<path d="M172.892 271.511C172.892 268.872 175.031 266.733 177.67 266.733L203 266.733L172.892 293.724V271.511Z" fill="url(#paint2_linear_2121_1437)"/>
<g filter="url(#filter1_d_2121_1437)">
<rect x="245.103" y="40.9127" width="117.406" height="81.2811" rx="4" fill="url(#paint3_linear_2121_1437)"/>
</g>
<g filter="url(#filter2_d_2121_1437)">
<path d="M293.594 78.4588C295.467 80.0558 295.467 82.9495 293.594 84.5465L251.886 120.107C249.289 122.321 245.291 120.475 245.291 117.063L245.291 45.9427C245.291 42.5302 249.289 40.6849 251.886 42.8989L293.594 78.4588Z" fill="url(#paint4_linear_2121_1437)"/>
</g>
<g filter="url(#filter3_d_2121_1437)">
<path d="M314.327 77.6747C312.486 79.2698 312.486 82.1271 314.327 83.7222L356.09 119.89C358.681 122.133 362.709 120.293 362.709 116.866L362.709 44.5307C362.709 41.1037 358.681 39.2635 356.09 41.507L314.327 77.6747Z" fill="url(#paint5_linear_2121_1437)"/>
</g>
<g filter="url(#filter4_d_2121_1437)">
<path d="M301.208 75.6426C302.626 74.5863 304.57 74.5863 305.988 75.6426L358.696 114.909C361.784 117.209 360.157 122.116 356.306 122.116H250.89C247.039 122.116 245.412 117.209 248.5 114.909L301.208 75.6426Z" fill="url(#paint6_linear_2121_1437)"/>
</g>
<g filter="url(#filter5_d_2121_1437)">
<path d="M302.029 86.5895C303.44 87.6296 305.364 87.6296 306.775 86.5895L360.076 47.3046C363.184 45.0138 361.564 40.0847 357.703 40.0847L251.101 40.0846C247.24 40.0846 245.62 45.0138 248.728 47.3046L302.029 86.5895Z" fill="url(#paint7_linear_2121_1437)"/>
</g>
<g clip-path="url(#clip0_2121_1437)">
<path d="M201.086 212.339L191.104 233.307L191.081 203.641L289 142L201.086 212.339Z" fill="#1F2D47"/>
<path opacity="0.13" d="M191.104 203.866L249.915 173.102L200.805 212.93L191.182 232.976L191.104 203.866Z" fill="#1F2D47"/>
<path d="M191.104 233.307L200.782 212.662L288.781 142.307L191.104 233.307Z" fill="#111928"/>
<path d="M288.781 142.307L289 142L287.856 142.89L288.781 142.307Z" fill="#496CAB"/>
<g filter="url(#filter6_d_2121_1437)">
<path d="M288.2 143.234C288.341 143.009 288.08 142.749 287.856 142.89L200.814 212.529C200.81 212.531 200.807 212.534 200.804 212.536C200.756 212.563 200.749 212.629 200.79 212.666L225.226 234.796C227.071 236.467 229.977 236.065 231.3 233.957L288.2 143.234Z" fill="url(#paint8_linear_2121_1437)"/>
</g>
<g filter="url(#filter7_d_2121_1437)">
<path d="M287.856 142.89C288.078 142.717 287.891 142.364 287.623 142.452L173.537 179.921C170.621 180.879 169.825 184.627 172.1 186.686L188.694 201.714C190.022 202.917 191.988 203.089 193.506 202.136L287.856 142.89Z" fill="url(#paint9_linear_2121_1437)"/>
</g>
</g>
<circle cx="358.953" cy="42.9526" r="16.0474" fill="#7E98C8"/>
<path d="M354.374 38.923C354.78 38.755 355.2 38.566 355.634 38.356C356.082 38.132 356.516 37.894 356.936 37.642C357.356 37.376 357.755 37.103 358.133 36.823C358.525 36.529 358.875 36.221 359.183 35.899H361.367V50.452H358.238V39.973C357.818 40.253 357.349 40.512 356.831 40.75C356.313 40.974 355.809 41.17 355.319 41.338L354.374 38.923Z" fill="#111928"/>
<defs>
<filter id="filter0_d_2121_1437" x="50.5805" y="74.5779" width="185.857" height="247.938" filterUnits="userSpaceOnUse" color-interpolation-filters="sRGB">
<feFlood flood-opacity="0" result="BackgroundImageFix"/>
<feColorMatrix in="SourceAlpha" type="matrix" values="0 0 0 0 0 0 0 0 0 0 0 0 0 0 0 0 0 0 127 0" result="hardAlpha"/>
<feOffset dx="9.55601" dy="4.77801"/>
<feGaussianBlur stdDeviation="11.945"/>
<feComposite in2="hardAlpha" operator="out"/>
<feColorMatrix type="matrix" values="0 0 0 0 0.0666667 0 0 0 0 0.0980392 0 0 0 0 0.156863 0 0 0 0.32 0"/>
<feBlend mode="normal" in2="BackgroundImageFix" result="effect1_dropShadow_2121_1437"/>
<feBlend mode="normal" in="SourceGraphic" in2="effect1_dropShadow_2121_1437" result="shape"/>
</filter>
<filter id="filter1_d_2121_1437" x="230.769" y="21.8006" width="165.186" height="129.061" filterUnits="userSpaceOnUse" color-interpolation-filters="sRGB">
<feFlood flood-opacity="0" result="BackgroundImageFix"/>
<feColorMatrix in="SourceAlpha" type="matrix" values="0 0 0 0 0 0 0 0 0 0 0 0 0 0 0 0 0 0 127 0" result="hardAlpha"/>
<feOffset dx="9.55601" dy="4.77801"/>
<feGaussianBlur stdDeviation="11.945"/>
<feComposite in2="hardAlpha" operator="out"/>
<feColorMatrix type="matrix" values="0 0 0 0 0.0666667 0 0 0 0 0.0980392 0 0 0 0 0.156863 0 0 0 0.32 0"/>
<feBlend mode="normal" in2="BackgroundImageFix" result="effect1_dropShadow_2121_1437"/>
<feBlend mode="normal" in="SourceGraphic" in2="effect1_dropShadow_2121_1437" result="shape"/>
</filter>
<filter id="filter2_d_2121_1437" x="230.957" y="22.823" width="97.4878" height="126.915" filterUnits="userSpaceOnUse" color-interpolation-filters="sRGB">
<feFlood flood-opacity="0" result="BackgroundImageFix"/>
<feColorMatrix in="SourceAlpha" type="matrix" values="0 0 0 0 0 0 0 0 0 0 0 0 0 0 0 0 0 0 127 0" result="hardAlpha"/>
<feOffset dx="9.55601" dy="4.77801"/>
<feGaussianBlur stdDeviation="11.945"/>
<feComposite in2="hardAlpha" operator="out"/>
<feColorMatrix type="matrix" values="0 0 0 0 0.0666667 0 0 0 0 0.0980392 0 0 0 0 0.156863 0 0 0 0.32 0"/>
<feBlend mode="normal" in2="BackgroundImageFix" result="effect1_dropShadow_2121_1437"/>
<feBlend mode="normal" in="SourceGraphic" in2="effect1_dropShadow_2121_1437" result="shape"/>
</filter>
<filter id="filter3_d_2121_1437" x="298.612" y="21.4109" width="97.543" height="128.131" filterUnits="userSpaceOnUse" color-interpolation-filters="sRGB">
<feFlood flood-opacity="0" result="BackgroundImageFix"/>
<feColorMatrix in="SourceAlpha" type="matrix" values="0 0 0 0 0 0 0 0 0 0 0 0 0 0 0 0 0 0 127 0" result="hardAlpha"/>
<feOffset dx="9.55601" dy="4.77801"/>
<feGaussianBlur stdDeviation="11.945"/>
<feComposite in2="hardAlpha" operator="out"/>
<feColorMatrix type="matrix" values="0 0 0 0 0.0666667 0 0 0 0 0.0980392 0 0 0 0 0.156863 0 0 0 0.32 0"/>
<feBlend mode="normal" in2="BackgroundImageFix" result="effect1_dropShadow_2121_1437"/>
<feBlend mode="normal" in="SourceGraphic" in2="effect1_dropShadow_2121_1437" result="shape"/>
</filter>
<filter id="filter4_d_2121_1437" x="232.548" y="55.7384" width="161.212" height="95.046" filterUnits="userSpaceOnUse" color-interpolation-filters="sRGB">
<feFlood flood-opacity="0" result="BackgroundImageFix"/>
<feColorMatrix in="SourceAlpha" type="matrix" values="0 0 0 0 0 0 0 0 0 0 0 0 0 0 0 0 0 0 127 0" result="hardAlpha"/>
<feOffset dx="9.55601" dy="4.77801"/>
<feGaussianBlur stdDeviation="11.945"/>
<feComposite in2="hardAlpha" operator="out"/>
<feColorMatrix type="matrix" values="0 0 0 0 0.0666667 0 0 0 0 0.0980392 0 0 0 0 0.156863 0 0 0 0.32 0"/>
<feBlend mode="normal" in2="BackgroundImageFix" result="effect1_dropShadow_2121_1437"/>
<feBlend mode="normal" in="SourceGraphic" in2="effect1_dropShadow_2121_1437" result="shape"/>
</filter>
<filter id="filter5_d_2121_1437" x="232.76" y="20.9726" width="162.397" height="95.065" filterUnits="userSpaceOnUse" color-interpolation-filters="sRGB">
<feFlood flood-opacity="0" result="BackgroundImageFix"/>
<feColorMatrix in="SourceAlpha" type="matrix" values="0 0 0 0 0 0 0 0 0 0 0 0 0 0 0 0 0 0 127 0" result="hardAlpha"/>
<feOffset dx="9.55601" dy="4.77801"/>
<feGaussianBlur stdDeviation="11.945"/>
<feComposite in2="hardAlpha" operator="out"/>
<feColorMatrix type="matrix" values="0 0 0 0 0.0666667 0 0 0 0 0.0980392 0 0 0 0 0.156863 0 0 0 0.32 0"/>
<feBlend mode="normal" in2="BackgroundImageFix" result="effect1_dropShadow_2121_1437"/>
<feBlend mode="normal" in="SourceGraphic" in2="effect1_dropShadow_2121_1437" result="shape"/>
</filter>
<filter id="filter6_d_2121_1437" x="186.429" y="123.738" width="135.257" height="140.762" filterUnits="userSpaceOnUse" color-interpolation-filters="sRGB">
<feFlood flood-opacity="0" result="BackgroundImageFix"/>
<feColorMatrix in="SourceAlpha" type="matrix" values="0 0 0 0 0 0 0 0 0 0 0 0 0 0 0 0 0 0 127 0" result="hardAlpha"/>
<feOffset dx="9.55601" dy="4.77801"/>
<feGaussianBlur stdDeviation="11.945"/>
<feComposite in2="hardAlpha" operator="out"/>
<feColorMatrix type="matrix" values="0 0 0 0 0.0666667 0 0 0 0 0.0980392 0 0 0 0 0.156863 0 0 0 0.32 0"/>
<feBlend mode="normal" in2="BackgroundImageFix" result="effect1_dropShadow_2121_1437"/>
<feBlend mode="normal" in="SourceGraphic" in2="effect1_dropShadow_2121_1437" result="shape"/>
</filter>
<filter id="filter7_d_2121_1437" x="156.449" y="123.326" width="164.951" height="108.091" filterUnits="userSpaceOnUse" color-interpolation-filters="sRGB">
<feFlood flood-opacity="0" result="BackgroundImageFix"/>
<feColorMatrix in="SourceAlpha" type="matrix" values="0 0 0 0 0 0 0 0 0 0 0 0 0 0 0 0 0 0 127 0" result="hardAlpha"/>
<feOffset dx="9.55601" dy="4.77801"/>
<feGaussianBlur stdDeviation="11.945"/>
<feComposite in2="hardAlpha" operator="out"/>
<feColorMatrix type="matrix" values="0 0 0 0 0.0666667 0 0 0 0 0.0980392 0 0 0 0 0.156863 0 0 0 0.32 0"/>
<feBlend mode="normal" in2="BackgroundImageFix" result="effect1_dropShadow_2121_1437"/>
<feBlend mode="normal" in="SourceGraphic" in2="effect1_dropShadow_2121_1437" result="shape"/>
</filter>
<linearGradient id="paint0_linear_2121_1437" x1="65.2942" y1="23.3308" x2="65.2942" y2="229.756" gradientUnits="userSpaceOnUse">
<stop stop-color="#314872"/>
<stop offset="1" stop-color="#1F2D47"/>
</linearGradient>
<linearGradient id="paint1_linear_2121_1437" x1="133.953" y1="93.6899" x2="133.953" y2="293.847" gradientUnits="userSpaceOnUse">
<stop stop-color="#314872"/>
<stop offset="1" stop-color="#1F2D47"/>
</linearGradient>
<linearGradient id="paint2_linear_2121_1437" x1="188.246" y1="265.45" x2="188.246" y2="293.847" gradientUnits="userSpaceOnUse">
<stop stop-color="#314872"/>
<stop offset="1" stop-color="#1F2D47"/>
</linearGradient>
<linearGradient id="paint3_linear_2121_1437" x1="303.806" y1="40.9127" x2="303.806" y2="122.194" gradientUnits="userSpaceOnUse">
<stop stop-color="#314872"/>
<stop offset="1" stop-color="#1F2D47"/>
</linearGradient>
<linearGradient id="paint4_linear_2121_1437" x1="297.164" y1="81.5027" x2="228" y2="81.5027" gradientUnits="userSpaceOnUse">
<stop stop-color="#314872"/>
<stop offset="1" stop-color="#1F2D47"/>
</linearGradient>
<linearGradient id="paint5_linear_2121_1437" x1="310.836" y1="80.6985" x2="380" y2="80.6985" gradientUnits="userSpaceOnUse">
<stop stop-color="#314872"/>
<stop offset="1" stop-color="#1F2D47"/>
</linearGradient>
<linearGradient id="paint6_linear_2121_1437" x1="303.598" y1="73.8624" x2="303.598" y2="138.201" gradientUnits="userSpaceOnUse">
<stop stop-color="#314872"/>
<stop offset="1" stop-color="#1F2D47"/>
</linearGradient>
<linearGradient id="paint7_linear_2121_1437" x1="304.402" y1="88.3386" x2="304.402" y2="24" gradientUnits="userSpaceOnUse">
<stop stop-color="#314872"/>
<stop offset="1" stop-color="#1F2D47"/>
</linearGradient>
<linearGradient id="paint8_linear_2121_1437" x1="244.744" y1="142.307" x2="244.744" y2="238" gradientUnits="userSpaceOnUse">
<stop stop-color="#506DA0"/>
<stop offset="1" stop-color="#3A4F76"/>
</linearGradient>
<linearGradient id="paint9_linear_2121_1437" x1="228" y1="142" x2="228" y2="203.748" gradientUnits="userSpaceOnUse">
<stop stop-color="#506DA0"/>
<stop offset="1" stop-color="#3A4F76"/>
</linearGradient>
<clipPath id="clip0_2121_1437">
<rect width="122" height="96" fill="white" transform="translate(167 142)"/>
</clipPath>
</defs>
</svg>
